<?xml version="1.0" encoding="utf-8"?>
<!-- Generator: Adobe Illustrator 25.4.1, SVG Export Plug-In . SVG Version: 6.00 Build 0)  -->
<svg version="1.1" id="Layer_1" xmlns="http://www.w3.org/2000/svg" xmlns:xlink="http://www.w3.org/1999/xlink" x="0px" y="0px"
	 viewBox="0 0 49.21 49.21" style="enable-background:new 0 0 49.21 49.21;" xml:space="preserve">
<path style="fill:#191919;" d="M24.75,36.67c-0.27,0-0.5-0.22-0.5-0.5v-0.96c0-0.43,0.16-0.83,0.45-1.14
	c0.3-0.31,0.69-0.48,1.12-0.48c0.86,0,1.57,0.73,1.58,1.61v0.28c-0.02,0.27-0.25,0.48-0.53,0.47c-0.25-0.02-0.45-0.22-0.47-0.47
	v-0.28c0-0.34-0.26-0.62-0.58-0.62c-0.15,0-0.29,0.06-0.4,0.17c-0.11,0.12-0.18,0.28-0.17,0.45v0.96
	C25.25,36.44,25.03,36.66,24.75,36.67C24.76,36.66,24.75,36.67,24.75,36.67z"/>
<path style="fill:#191919;" d="M26.89,36.84c-0.27,0-0.5-0.22-0.5-0.5v-0.86c0-0.89,0.7-1.62,1.57-1.62c0.86,0,1.57,0.73,1.58,1.62
	v0.33c-0.01,0.27-0.25,0.49-0.52,0.48c-0.26-0.01-0.46-0.22-0.48-0.48v-0.33c0-0.35-0.26-0.62-0.58-0.62s-0.58,0.28-0.58,0.62v0.86
	C27.39,36.62,27.17,36.84,26.89,36.84L26.89,36.84L26.89,36.84z"/>
<path style="fill:#191919;" d="M29.75,46.28c-0.27,0-0.5-0.22-0.5-0.5c0-1.64,0.3-2.51,0.62-3.44c0.33-0.95,0.66-1.94,0.73-3.95
	c0.05-1.4-0.01-1.84-0.11-2.41l-0.01-0.08c-0.04-0.27-0.2-0.59-0.48-0.59c-0.13,0-0.24,0.05-0.33,0.14
	c-0.09,0.1-0.15,0.24-0.14,0.37v0.71c0,0.27-0.22,0.5-0.5,0.5c-0.27,0-0.5-0.22-0.5-0.5v-0.71c0-0.4,0.15-0.78,0.42-1.07
	c0.28-0.29,0.65-0.45,1.05-0.45c0.75,0,1.34,0.58,1.47,1.44l0.01,0.08c0.09,0.6,0.17,1.11,0.11,2.6c-0.08,2.15-0.45,3.26-0.79,4.23
	c-0.3,0.89-0.57,1.66-0.57,3.12C30.26,46.05,30.04,46.27,29.75,46.28L29.75,46.28L29.75,46.28z"/>
<path style="fill:#191919;" d="M29.75,48.78h-6.83c-0.67,0-1.21-0.54-1.21-1.21c0,0,0,0,0,0v-1.08c0-0.67,0.54-1.21,1.21-1.21h6.83
	c0.67,0,1.21,0.54,1.21,1.21v1.08C30.96,48.24,30.42,48.78,29.75,48.78z M22.92,46.28c-0.12,0-0.21,0.09-0.21,0.21v1.08
	c0,0.12,0.09,0.21,0.21,0.21h6.83c0.12,0,0.21-0.09,0.21-0.21c0,0,0,0,0,0v-1.08c0-0.12-0.09-0.21-0.21-0.21H22.92z"/>
<path style="fill:#191919;" d="M22.93,46.28c-0.27,0-0.5-0.22-0.5-0.5c0-1.02-1.06-2.54-1.62-3.36c-1.1-1.58-1.47-2.45-1.8-3.21
	c-0.17-0.4-0.33-0.76-0.58-1.2c-0.65-1.16-0.97-1.9-0.79-2.51c0.09-0.27,0.27-0.5,0.55-0.63c0.64-0.32,1.79-0.05,2.82,1.28
	c0.12,0.17,0.27,0.39,0.43,0.63c0.2,0.3,0.42,0.65,0.64,0.92l0.02-7.33c0-0.89,0.7-1.62,1.56-1.62c0.87,0,1.58,0.73,1.58,1.62v4.84
	c-0.02,0.27-0.25,0.48-0.53,0.47c-0.25-0.02-0.45-0.22-0.47-0.47v-4.84c0-0.35-0.27-0.62-0.58-0.62c-0.31,0-0.57,0.28-0.57,0.62
	v7.32c0,0.43-0.27,0.81-0.68,0.95c-0.41,0.14-0.85,0.01-1.12-0.32c-0.25-0.32-0.48-0.65-0.69-0.99c-0.12-0.2-0.26-0.39-0.4-0.58
	c-0.75-0.99-1.42-1.07-1.58-0.99c-0.09,0.11-0.07,0.45,0.66,1.75c0.27,0.48,0.45,0.88,0.63,1.3c0.33,0.76,0.67,1.54,1.71,3.04
	c0.68,0.97,1.8,2.6,1.8,3.93c0,0.27-0.22,0.5-0.5,0.5H22.93L22.93,46.28z"/>
<path style="fill:#191919;" d="M32.72,42.99c-0.27,0-0.5-0.22-0.5-0.5c0-0.27,0.22-0.5,0.5-0.5c1.93,0,3.5-1.57,3.5-3.5V5.17
	c0-1.93-1.57-3.5-3.5-3.5H16.5c-1.93,0-3.5,1.57-3.5,3.5V38.5c0,1.93,1.57,3.5,3.5,3.5c0.27,0.02,0.48,0.25,0.47,0.53
	c-0.02,0.25-0.22,0.45-0.47,0.47c-2.48,0-4.49-2.01-4.49-4.5V5.17c0-2.48,2.01-4.5,4.49-4.5h16.22c2.48,0,4.49,2.01,4.49,4.5V38.5
	C37.21,40.98,35.2,42.99,32.72,42.99z"/>
<path style="fill:#191919;" d="M28.68,6.4h-8.32c-1.12,0-2.03-0.91-2.03-2.03V3.46c0.02-0.27,0.26-0.48,0.54-0.46
	c0.25,0.02,0.44,0.21,0.46,0.46v0.91c0,0.57,0.47,1.04,1.04,1.04h8.32c0.57,0,1.04-0.47,1.04-1.04V3.46
	c0.02-0.27,0.25-0.48,0.53-0.47c0.25,0.02,0.45,0.22,0.47,0.47v0.91C30.71,5.49,29.8,6.4,28.68,6.4L28.68,6.4z"/>
<path style="fill:#0D6EFD;" d="M31.92,18.97H17.73c-0.33,0-0.61,0.27-0.61,0.6c0,0,0,0,0,0v4.1c0,0.33,0.27,0.61,0.61,0.61h14.18
	c0.33,0,0.61-0.27,0.61-0.6c0,0,0,0,0,0v-4.1C32.52,19.24,32.25,18.97,31.92,18.97z"/>
<path style="fill:#FFFFFF;" d="M19.83,22.95v-2.64h0.96c0.19,0,0.34,0.03,0.47,0.09c0.11,0.05,0.21,0.14,0.27,0.25
	c0.06,0.1,0.09,0.22,0.09,0.35c0.01,0.14-0.04,0.28-0.13,0.38c-0.09,0.08-0.19,0.15-0.31,0.18v0.03c0.09,0,0.17,0.03,0.26,0.09
	c0.09,0.05,0.15,0.12,0.21,0.22c0.06,0.11,0.08,0.22,0.08,0.35c0,0.13-0.03,0.25-0.09,0.36c-0.07,0.11-0.17,0.2-0.29,0.25
	c-0.16,0.07-0.33,0.1-0.5,0.09h-1.01L19.83,22.95L19.83,22.95z M20.22,21.45h0.53c0.12,0.01,0.24-0.04,0.34-0.11
	c0.09-0.07,0.14-0.19,0.14-0.3c0-0.1-0.04-0.2-0.12-0.27c-0.08-0.07-0.19-0.11-0.35-0.11h-0.54V21.45z M20.22,22.6h0.58
	c0.19,0,0.33-0.04,0.41-0.11c0.08-0.07,0.12-0.17,0.12-0.27c0-0.12-0.05-0.24-0.14-0.32c-0.09-0.09-0.22-0.14-0.38-0.14h-0.59V22.6z
	 M24.49,21.63c0,0.28-0.05,0.52-0.15,0.73c-0.1,0.21-0.24,0.36-0.42,0.47c-0.18,0.11-0.38,0.17-0.61,0.17
	c-0.23,0-0.43-0.06-0.61-0.17c-0.18-0.11-0.33-0.28-0.42-0.47c-0.11-0.2-0.15-0.45-0.15-0.73s0.05-0.53,0.15-0.73
	c0.19-0.4,0.6-0.64,1.04-0.63c0.23,0,0.43,0.06,0.61,0.17s0.32,0.27,0.42,0.47C24.44,21.1,24.49,21.35,24.49,21.63z M24.09,21.63
	c0-0.22-0.04-0.4-0.1-0.54c-0.06-0.13-0.16-0.25-0.28-0.33c-0.12-0.08-0.26-0.12-0.4-0.11c-0.14,0-0.28,0.04-0.4,0.11
	c-0.12,0.08-0.22,0.2-0.28,0.33c-0.07,0.17-0.11,0.35-0.1,0.54c0,0.21,0.04,0.4,0.1,0.54c0.07,0.14,0.17,0.26,0.28,0.34
	c0.11,0.08,0.25,0.11,0.4,0.11c0.14,0,0.28-0.04,0.4-0.11c0.12-0.08,0.22-0.2,0.28-0.34C24.06,22.02,24.09,21.84,24.09,21.63z
	 M27.28,21.63c0,0.28-0.05,0.52-0.15,0.73c-0.1,0.21-0.24,0.36-0.42,0.47c-0.18,0.11-0.38,0.17-0.61,0.17
	c-0.23,0-0.43-0.06-0.61-0.17c-0.18-0.11-0.33-0.28-0.42-0.47c-0.11-0.2-0.15-0.45-0.15-0.73s0.05-0.53,0.15-0.73
	c0.1-0.2,0.24-0.36,0.42-0.47s0.38-0.17,0.61-0.17c0.23,0,0.43,0.06,0.61,0.17s0.32,0.27,0.42,0.47
	C27.23,21.1,27.28,21.35,27.28,21.63z M26.88,21.63c0-0.22-0.04-0.4-0.1-0.54c-0.06-0.13-0.16-0.25-0.28-0.33
	c-0.12-0.08-0.26-0.12-0.4-0.11c-0.14,0-0.28,0.04-0.4,0.11c-0.12,0.08-0.22,0.2-0.28,0.33c-0.07,0.17-0.11,0.35-0.1,0.54
	c0,0.21,0.04,0.4,0.1,0.54c0.06,0.14,0.16,0.25,0.28,0.34c0.11,0.08,0.25,0.11,0.4,0.11c0.14,0,0.28-0.04,0.4-0.11
	c0.12-0.08,0.22-0.2,0.28-0.34C26.85,22.02,26.88,21.84,26.88,21.63z M27.77,22.95v-2.64h0.4v1.26h0.03l1.11-1.26h0.5l-1.07,1.19
	l1.07,1.45h-0.48l-0.85-1.18l-0.31,0.36v0.82H27.77L27.77,22.95z"/>
</svg>
