<?xml version="1.0" encoding="utf-8"?>
<!-- Generator: Adobe Illustrator 25.4.1, SVG Export Plug-In . SVG Version: 6.00 Build 0)  -->
<svg version="1.1" id="Layer_1" xmlns="http://www.w3.org/2000/svg" xmlns:xlink="http://www.w3.org/1999/xlink" x="0px" y="0px"
	 viewBox="0 0 49.21 49.21" style="enable-background:new 0 0 49.21 49.21;" xml:space="preserve">
<path style="fill:#0D6EFD;" d="M24.24,23.24c4.39,0,7.95-3.56,7.95-7.95v0c0-4.39-3.56-7.95-7.95-7.95s-7.95,3.56-7.95,7.95
	S19.85,23.24,24.24,23.24z"/>
<path d="M40.93,48.79H7.57c-1.23,0-2.23-1-2.23-2.23V2.66c0-0.6,0.23-1.15,0.66-1.58c0.42-0.42,0.98-0.65,1.58-0.65l33.36,0.01
	c1.23,0.01,2.22,1,2.22,2.23v43.89c0,1.23-1,2.23-2.22,2.23L40.93,48.79z M7.57,1.43c-0.33,0-0.63,0.13-0.87,0.36
	C6.46,2.02,6.34,2.33,6.34,2.66v43.9c0,0.68,0.55,1.23,1.23,1.23h33.36c0.68,0,1.23-0.56,1.23-1.23V2.68c0-0.68-0.55-1.23-1.23-1.23
	L7.57,1.43z"/>
<path style="fill:#FFFFFF;" d="M22.72,18.46c-0.13,0-0.26-0.05-0.35-0.14l-2.29-2.29c-0.18-0.21-0.17-0.52,0.04-0.71
	c0.19-0.17,0.48-0.17,0.67,0l1.94,1.94l5-5.01c0.21-0.18,0.52-0.17,0.71,0.04c0.17,0.19,0.17,0.48,0,0.67l-5.35,5.35
	C22.98,18.4,22.85,18.45,22.72,18.46L22.72,18.46L22.72,18.46z"/>
<path d="M32.95,31.38h-17.4c-0.27-0.02-0.48-0.25-0.47-0.53c0.02-0.25,0.22-0.45,0.47-0.47h17.4c0.27,0,0.5,0.22,0.5,0.5
	C33.44,31.15,33.22,31.37,32.95,31.38z M32.95,35.7h-17.4c-0.27-0.02-0.48-0.25-0.47-0.53c0.02-0.25,0.22-0.45,0.47-0.47h17.4
	c0.27,0,0.5,0.22,0.5,0.5C33.45,35.48,33.22,35.7,32.95,35.7z M32.95,40.02h-17.4c-0.27-0.02-0.48-0.25-0.47-0.53
	c0.02-0.25,0.22-0.45,0.47-0.47h17.4c0.27,0,0.5,0.22,0.5,0.5C33.45,39.8,33.22,40.02,32.95,40.02z"/>
</svg>
