<?xml version="1.0" encoding="utf-8"?>
<!-- Generator: Adobe Illustrator 25.4.1, SVG Export Plug-In . SVG Version: 6.00 Build 0)  -->
<svg version="1.1" id="Layer_1" xmlns="http://www.w3.org/2000/svg" xmlns:xlink="http://www.w3.org/1999/xlink" x="0px" y="0px"
	 viewBox="0 0 512 512" style="enable-background:new 0 0 512 512;" xml:space="preserve">
<style type="text/css">
	.st0{fill:#0D6EFD;}
	.st1{fill:#F90B1C;}
	.st2{fill:#FFFFFF;}
</style>
<path class="st0" d="M217.5,29.9c0,3.9-3.1,7-7,7l0,0h-0.1c-3.9,0-7-3.1-7-7s3.1-7,7-7h0.1C214.3,22.9,217.5,26.1,217.5,29.9
	L217.5,29.9z M151.3,218.1c0-3.9,3.1-7,7-7c0,0,0,0,0,0H331c3.9,0,7,3.2,6.9,7.1c0,3.8-3.1,6.9-6.9,6.9H158.3
	C154.5,225.1,151.3,222,151.3,218.1L151.3,218.1z M151.3,257.8c0-3.9,3.1-7,7-7H331c3.9,0,7,3.2,6.9,7.1c0,3.8-3.1,6.9-6.9,6.9
	H158.3C154.5,264.8,151.3,261.7,151.3,257.8C151.3,257.8,151.3,257.8,151.3,257.8L151.3,257.8z M129.6,290.6H89.8c-3.9,0-7,3.1-7,7
	v39.7c0,3.9,3.1,7,7,7c0,0,0,0,0,0h39.8c3.9,0,7-3.1,7-7l0,0v-39.7C136.6,293.8,133.4,290.6,129.6,290.6L129.6,290.6z M122.6,330.4
	H96.8v-25.8h25.8L122.6,330.4z M89.8,211.1c-3.9,0-7,3.1-7,7c0,0,0,0,0,0v39.7c0,3.9,3.1,7,7,7c0,0,0,0,0,0h39.8c3.9,0,7-3.1,7-7
	l0,0v-39.7c0-3.9-3.1-7-7-7h0L89.8,211.1z M122.6,250.9H96.8v-25.8h25.8V250.9z M129.6,370.1H89.8c-3.9,0-7,3.1-7,7c0,0,0,0,0,0
	v39.7c0,3.9,3.1,7,7,7c0,0,0,0,0,0h39.8c3.9,0,7-3.1,7-7l0,0v-39.7C136.6,373.3,133.4,370.1,129.6,370.1L129.6,370.1z M122.6,409.9
	H96.8v-25.8h25.8L122.6,409.9z M151.3,297.6c0-3.9,3.1-7,7-7H331c3.9,0,7,3.2,6.9,7.1c0,3.8-3.1,6.9-6.9,6.9H158.3
	C154.5,304.6,151.3,301.5,151.3,297.6C151.3,297.6,151.3,297.6,151.3,297.6z M474.1,331.6c-19.3-19.2-48.7-23.7-72.9-11.3V65.4
	c0-16.6-13.5-30.1-30.1-30.1H290c-0.4-6.7-5.9-12-12.7-12h-37.7c-3.7-16.1-19.7-26.2-35.8-22.5c-11.2,2.6-20,11.3-22.5,22.5h-37.7
	c-6.7,0-12.3,5.3-12.7,12H49.7c-16.6,0-30.1,13.5-30.1,30.1v399.6c0,16.6,13.5,30.1,30.1,30.1h309.6l14.9,14.9
	c2.7,2.7,7.2,2.7,9.9,0l90-89.9C498.5,395.6,498.5,356,474.1,331.6L474.1,331.6z M290,49.2h81.1c8.9,0,16.1,7.2,16.1,16.1v264.7
	c-0.5,0.5-1,1-1.6,1.5l-6.4,6.4l-6.4-6.4c-0.4-0.4-0.7-0.7-1.1-1V84.2c0-10.7-8.7-19.4-19.4-19.4H290V49.2z M144.8,37.2h42.7
	c3.9,0,7-3.1,7-7v-0.3c0.1-8.8,7.3-15.9,16.1-15.8c8.7,0.1,15.8,7.1,15.8,15.8v0.3c0,3.9,3.1,7,7,7H276v37.5H144.8V37.2z
	 M137.8,88.7H283c3.9,0,7-3.1,7-7v-3h62.3c3,0,5.4,2.4,5.4,5.4v236.3c-23.7-12.4-52.6-8.4-72.1,9.9H158.3c-3.9,0-7,3.2-6.9,7.1
	c0,3.8,3.1,6.9,6.9,6.9h116.2c-4.6,7.9-7.4,16.7-8.2,25.8h-108c-3.9,0-7,3.2-6.9,7.1c0,3.8,3.1,6.9,6.9,6.9h108.3
	c1.2,9.2,4.4,18,9.5,25.8H158.3c-3.9,0-7,3.2-6.9,7.1c0,3.8,3.1,6.9,6.9,6.9h129.9l27.7,27.7H68.5c-3,0-5.4-2.4-5.4-5.4v-362
	c0-3,2.4-5.4,5.4-5.4h62.4v3C130.8,85.6,134,88.7,137.8,88.7z M49.7,481c-8.9,0-16.1-7.2-16.1-16.1V65.4c0-8.9,7.2-16.1,16.1-16.1
	h81.1v15.5H68.5c-10.7,0-19.4,8.7-19.4,19.4v362c0,10.7,8.7,19.4,19.4,19.4h261.4l15.5,15.5L49.7,481z M464.2,410.1l-85,85
	l-41.5-41.5l0,0L296,411.9l0,0l-1.8-1.8c-18.8-19.1-18.5-49.9,0.6-68.7c18.9-18.5,49.1-18.6,68,0l11.4,11.4c1.3,1.3,3.1,2.1,4.9,2.1
	l0,0c1.9,0,3.6-0.7,4.9-2l11.4-11.4c19-19,49.7-19,68.7,0S483.2,391.2,464.2,410.1L464.2,410.1L464.2,410.1z M452.5,401.1
	c0,3.9-3.1,7-7,7c0,0,0,0,0,0h-29l-6.3,17.5c-1,2.8-3.6,4.6-6.6,4.6h0c-3,0-5.6-1.9-6.6-4.6c-3.4-9.5-6.5-18.9-9.7-29.2l-9.4,29.6
	c-0.9,2.9-3.5,4.8-6.5,4.9h-0.1c-2.9,0-5.6-1.8-6.6-4.6l-9.8-27l-1.6,4.3c-1,2.8-3.6,4.6-6.6,4.6H313c-3.9,0-7-3.1-7-7s3.1-7,7-7h29
	l6.5-17.7c1-2.8,3.6-4.6,6.6-4.6h0c2.9,0,5.6,1.8,6.6,4.6l9.3,25.8l10.1-31.6c1.2-3.7,5.1-5.7,8.8-4.5c2.2,0.7,3.9,2.5,4.6,4.7
	c3.3,11.5,6.4,21.7,9.5,31.3l1.2-3.3c1-2.8,3.6-4.6,6.6-4.6h33.9C449.4,394.2,452.5,397.3,452.5,401.1L452.5,401.1z"/>
<path class="st1" d="M172.2,170.6h16v16c0,3.9,3.1,7,7,7h0h30.5c3.9,0,7-3.1,7-7c0,0,0,0,0,0v-16h16c3.9,0,7-3.1,7-7c0,0,0,0,0,0
	v-30.5c0-3.9-3.1-7-7-7h-16v-16c0-3.9-3.1-7-7-7c0,0,0,0,0,0h-30.5c-3.9,0-7,3.1-7,7v0v16h-16c-3.9,0-7,3.1-7,7v30.5
	C165.2,167.5,168.3,170.6,172.2,170.6C172.2,170.6,172.2,170.6,172.2,170.6z"/>
<path class="st2" d="M179.2,140.1h16c3.9,0,7-3.1,7-7v0v-16h16.5v16c0,3.9,3.1,7,7,7h0h16v16.5h-16c-3.9,0-7,3.1-7,7v0v16h-16.5v-16
	c0-3.9-3.1-7-7-7h0h-16L179.2,140.1z"/>
</svg>
