<?xml version="1.0" encoding="utf-8"?>
<!-- Generator: Adobe Illustrator 25.4.1, SVG Export Plug-In . SVG Version: 6.00 Build 0)  -->
<svg version="1.1" id="Layer_1" xmlns="http://www.w3.org/2000/svg" xmlns:xlink="http://www.w3.org/1999/xlink" x="0px" y="0px"
	 viewBox="0 0 49.21 49.21" style="enable-background:new 0 0 49.21 49.21;" xml:space="preserve">
<path d="M24.25,47.78c-3.42,0-6.18-2.77-6.19-6.19V19.49c0-0.27,0.22-0.5,0.5-0.5h11.38c0.27,0,0.5,0.22,0.5,0.5V41.6
	C30.43,45.02,27.66,47.78,24.25,47.78L24.25,47.78L24.25,47.78z M19.06,19.98v21.62c0,2.86,2.32,5.18,5.19,5.19
	c2.86,0,5.18-2.32,5.19-5.19V19.98L19.06,19.98L19.06,19.98L19.06,19.98z"/>
<path d="M31.01,19.98H17.49c-0.94,0-1.71-0.76-1.71-1.71c0,0,0,0,0,0v-2.85c0-0.94,0.76-1.71,1.71-1.71h13.52
	c0.94,0,1.71,0.76,1.71,1.71v2.85C32.71,19.22,31.95,19.98,31.01,19.98L31.01,19.98z M17.49,14.71c-0.39,0-0.71,0.31-0.71,0.71
	c0,0,0,0,0,0.01v2.85c0,0.39,0.31,0.71,0.71,0.71c0,0,0.01,0,0.01,0h13.52c0.39,0,0.71-0.31,0.71-0.71c0,0,0,0,0-0.01v-2.85
	c0-0.39-0.31-0.71-0.71-0.71c0,0,0,0-0.01,0H17.49z"/>
<path style="fill:#0D6EFD;" d="M19.09,24.12h2.55c1.3,0,2.34,0.87,2.34,1.95v12.82c0,1.07-1.05,1.95-2.34,1.95h-2.55"/>
<path d="M19.82,18.22c-0.27,0-0.5-0.22-0.5-0.5v-1.76c0.02-0.27,0.25-0.48,0.53-0.47c0.25,0.02,0.45,0.22,0.47,0.47v1.76
	C20.32,18,20.09,18.22,19.82,18.22z M22.74,18.22c-0.27,0-0.5-0.22-0.5-0.5v-1.76c0.02-0.27,0.25-0.48,0.53-0.47
	c0.25,0.02,0.45,0.22,0.47,0.47v1.76C23.23,18,23.01,18.22,22.74,18.22z M25.66,18.22c-0.27,0-0.5-0.22-0.5-0.5v-1.76
	c0.02-0.27,0.25-0.48,0.53-0.47c0.25,0.02,0.45,0.22,0.47,0.47v1.76C26.15,18,25.93,18.22,25.66,18.22z M28.57,18.22
	c-0.27,0-0.5-0.22-0.5-0.5v-1.76c0.02-0.27,0.25-0.48,0.53-0.47c0.25,0.02,0.45,0.22,0.47,0.47v1.76
	C29.06,18,28.84,18.22,28.57,18.22z"/>
<path d="M1.77,32.35c-0.27,0-0.5-0.22-0.5-0.5V18.02c0-0.91,0.44-1.76,1.18-2.28L21.66,2.26c1.58-1.1,3.68-1.12,5.27-0.03
	l19.72,13.51c0.76,0.52,1.21,1.37,1.21,2.29l0.07,13.82c0,0.27-0.22,0.5-0.5,0.5c-0.27,0-0.5-0.22-0.5-0.5l-0.07-13.82
	c0-0.59-0.29-1.14-0.78-1.47L26.38,3.05c-1.25-0.85-2.89-0.84-4.14,0.02L3.04,16.55c-0.48,0.33-0.76,0.88-0.76,1.46v13.84
	C2.28,32.13,2.06,32.35,1.77,32.35L1.77,32.35L1.77,32.35z"/>
<path d="M43.36,14.01c-0.27,0-0.5-0.22-0.5-0.5V7.48c0-0.06-0.05-0.11-0.11-0.11h-2.91c-0.06,0-0.11,0.05-0.11,0.11v3.69
	c-0.02,0.27-0.25,0.48-0.53,0.47c-0.25-0.02-0.45-0.22-0.47-0.47V7.48c0-0.61,0.5-1.1,1.1-1.1h2.91c0.61,0,1.1,0.5,1.1,1.1v6.03
	C43.86,13.79,43.64,14.01,43.36,14.01z"/>
</svg>
