<?xml version="1.0" encoding="utf-8"?>
<!-- Generator: Adobe Illustrator 25.4.1, SVG Export Plug-In . SVG Version: 6.00 Build 0)  -->
<svg version="1.1" id="Layer_1" xmlns="http://www.w3.org/2000/svg" xmlns:xlink="http://www.w3.org/1999/xlink" x="0px" y="0px"
	 viewBox="0 0 182.5 161.2" style="enable-background:new 0 0 182.5 161.2;" xml:space="preserve">
<style type="text/css">
	.st0{display:none;fill:#FFFFFF;}
	.st1{fill:#2F9F71;}
	.st2{fill:url(#SVGID_1_);}
	.st3{fill:url(#SVGID_00000132079648094617171820000010202672734752231870_);}
	.st4{fill:url(#SVGID_00000044858722095785777090000014650309025025829289_);}
	.st5{fill:url(#SVGID_00000183940025333484291950000009356125741304576904_);}
	.st6{fill:url(#SVGID_00000160874469060002382550000009045766656675596220_);}
	.st7{fill:url(#SVGID_00000094604204616068501550000007353062342139664292_);}
	.st8{fill:url(#SVGID_00000128466588119548207030000008458636653317374628_);}
	.st9{fill:url(#SVGID_00000083807920672433792050000000206384290382282140_);}
	.st10{fill:url(#SVGID_00000155146735709937493570000015553859322100516494_);}
	.st11{fill:url(#SVGID_00000098918953441965556920000017492547269298393219_);}
	.st12{fill:#D2DDFC;}
	.st13{fill:#FFFFFF;}
	.st14{fill:#7F9CE5;}
	.st15{fill:#AFC3FE;}
	.st16{fill:#7183D7;}
	.st17{fill:#899AE2;}
	.st18{fill:#B8C9FF;}
	.st19{fill:#C7D4FF;}
	.st20{fill:#F3F1FC;}
	.st21{fill:#37A6FF;}
	.st22{fill:#ECF4F8;}
	.st23{fill:#0372CE;}
	.st24{fill:#FCC2B4;}
	.st25{opacity:0.4;fill:#FF9685;}
	.st26{fill:#E8E7F2;}
	.st27{fill:#3F3C51;}
	.st28{opacity:0.4;}
	.st29{fill:#FF9685;}
	.st30{fill:#CB4453;}
	.st31{fill:#DD5664;}
	.st32{fill:#F8E8D8;}
	.st33{fill:#F6DFC9;}
	.st34{fill:#F4B79F;}
	.st35{fill:#0D2642;}
	.st36{fill:#4A5082;}
	.st37{fill:#342C65;}
	.st38{fill:#E2E5FF;}
	.st39{fill:#A799E0;}
	.st40{fill:#595959;}
	.st41{opacity:0.2;fill:#A5C0D7;}
	.st42{fill:#D5DAF7;}
	.st43{fill:#E4E7F9;}
	.st44{fill:#3E3533;}
</style>
<g>
	<rect x="0.1" y="0.1" class="st0" width="182.2" height="161"/>
	<g>
		<g>
			<g>
				<g>
					<path class="st1" d="M30.7,116l11.1,13.9c-3-2.1-6.7-4.1-10-4.8c-0.1,0-0.2,0-0.2,0.1c-13.1-7.4-22.6-0.6-22.6-0.6
						c4,1.1,16.6,0.3,16.6,0.3c-1.8,1-2.5,2.9-2.5,2.9c3.9,0.9,7.8-1.9,8.5-2.5c0,0,0.1,0.1,0.1,0.1c1.9,0.4,3.9,1.3,5.9,2.3
						c-0.8,0-2.5,0-4.3,1c-2.6,1.4-6.7,1.9-6.7,1.9s11.9,4.1,11.5-2.6c2.7,1.5,5.2,3.3,7.1,4.8c-1.4,0.1-8.9,0.8-12.5,2.5
						c0,0,8.8,2.9,12.7-2.4c1.8,1.4,3,2.5,3,2.5c0.1,0.1,0.2,0.1,0.3,0.1c0,0,0,0,0,0c0.1-0.1,0.1-0.2,0-0.2c-0.1,0-3-2.7-6.8-5.3
						C43,122.1,30.7,116,30.7,116z"/>
					<path class="st1" d="M19.1,114.6l15,11.1C30.4,115.3,19.1,114.6,19.1,114.6z"/>
				</g>
			</g>
			<g>
				<g>
					
						<linearGradient id="SVGID_1_" gradientUnits="userSpaceOnUse" x1="-14068.1445" y1="-6542.9111" x2="-14068.1445" y2="-6548.4189" gradientTransform="matrix(0.8472 -0.5313 0.5313 0.8472 15441.9941 -1802.1193)">
						<stop  offset="0" style="stop-color:#A8F17E"/>
						<stop  offset="0.2016" style="stop-color:#A2EE7E"/>
						<stop  offset="0.4769" style="stop-color:#90E67C"/>
						<stop  offset="0.7934" style="stop-color:#74D87B"/>
						<stop  offset="1" style="stop-color:#5DCD79"/>
					</linearGradient>
					<path class="st2" d="M45.5,130.2c-0.1,0.1-0.2,0-0.2-0.1c-0.1-0.7-0.4-2.6-0.7-3.7c-0.3-1.4,0.5-3.9,2.2-2
						C48.5,126.3,46.8,129,45.5,130.2z"/>
					
						<linearGradient id="SVGID_00000007417063860946771810000001075088583783024829_" gradientUnits="userSpaceOnUse" x1="-14072.0215" y1="-6548.5571" x2="-14072.0215" y2="-6554.0913" gradientTransform="matrix(0.8472 -0.5313 0.5313 0.8472 15441.9941 -1802.1193)">
						<stop  offset="0" style="stop-color:#A8F17E"/>
						<stop  offset="0.2016" style="stop-color:#A2EE7E"/>
						<stop  offset="0.4769" style="stop-color:#90E67C"/>
						<stop  offset="0.7934" style="stop-color:#74D87B"/>
						<stop  offset="1" style="stop-color:#5DCD79"/>
					</linearGradient>
					<path style="fill:url(#SVGID_00000007417063860946771810000001075088583783024829_);" d="M42.7,125.3c0.1,0,0.1-0.2,0-0.3
						c-0.6-0.4-2.2-1.5-3.1-2.2c-1.1-0.9-3.7-1.2-2.7,1.1C37.8,126.3,40.9,126,42.7,125.3z"/>
					
						<linearGradient id="SVGID_00000049944323503608261750000009976205426744922047_" gradientUnits="userSpaceOnUse" x1="-14067.4102" y1="-6548.7056" x2="-14067.4102" y2="-6553.0396" gradientTransform="matrix(0.8472 -0.5313 0.5313 0.8472 15441.9941 -1802.1193)">
						<stop  offset="0" style="stop-color:#A8F17E"/>
						<stop  offset="0.2016" style="stop-color:#A2EE7E"/>
						<stop  offset="0.4769" style="stop-color:#90E67C"/>
						<stop  offset="0.7934" style="stop-color:#74D87B"/>
						<stop  offset="1" style="stop-color:#5DCD79"/>
					</linearGradient>
					<path style="fill:url(#SVGID_00000049944323503608261750000009976205426744922047_);" d="M42.8,125.1c-0.1,0.1-0.3,0-0.3-0.2
						c0.1-1.2,0.3-5.1,1.3-5.6C45.3,118.4,46.9,122,42.8,125.1z"/>
					
						<linearGradient id="SVGID_00000082330837332637466270000003034558675050032574_" gradientUnits="userSpaceOnUse" x1="-14069.7734" y1="-6559.6265" x2="-14069.7734" y2="-6564.7808" gradientTransform="matrix(0.8472 -0.5313 0.5313 0.8472 15441.9941 -1802.1193)">
						<stop  offset="0" style="stop-color:#A8F17E"/>
						<stop  offset="0.2016" style="stop-color:#A2EE7E"/>
						<stop  offset="0.4769" style="stop-color:#90E67C"/>
						<stop  offset="0.7934" style="stop-color:#74D87B"/>
						<stop  offset="1" style="stop-color:#5DCD79"/>
					</linearGradient>
					<path style="fill:url(#SVGID_00000082330837332637466270000003034558675050032574_);" d="M38.1,115.1c0.1,0,0.1-0.1,0.1-0.2
						c-0.4-0.4-1.6-1.6-2.2-2.3c-0.8-0.9-2.9-1.7-2.5,0.4C33.9,115,36.6,115.3,38.1,115.1z"/>
					
						<linearGradient id="SVGID_00000109030829035550175140000017395159887073109675_" gradientUnits="userSpaceOnUse" x1="-14065.5898" y1="-6559.5381" x2="-14065.5898" y2="-6563.8716" gradientTransform="matrix(0.8472 -0.5313 0.5313 0.8472 15441.9941 -1802.1193)">
						<stop  offset="0" style="stop-color:#A8F17E"/>
						<stop  offset="0.2016" style="stop-color:#A2EE7E"/>
						<stop  offset="0.4769" style="stop-color:#90E67C"/>
						<stop  offset="0.7934" style="stop-color:#74D87B"/>
						<stop  offset="1" style="stop-color:#5DCD79"/>
					</linearGradient>
					<path style="fill:url(#SVGID_00000109030829035550175140000017395159887073109675_);" d="M38.6,114.9c-0.1,0.1-0.3,0-0.3-0.2
						c0.1-1.2,0.3-5.1,1.3-5.6C41.1,108.3,42.7,111.8,38.6,114.9z"/>
					
						<linearGradient id="SVGID_00000068641546774706422020000000124307725614998670_" gradientUnits="userSpaceOnUse" x1="-14065.6035" y1="-6563.1826" x2="-14065.6035" y2="-6569.353" gradientTransform="matrix(0.8472 -0.5313 0.5313 0.8472 15441.9941 -1802.1193)">
						<stop  offset="0" style="stop-color:#A8F17E"/>
						<stop  offset="0.2016" style="stop-color:#A2EE7E"/>
						<stop  offset="0.4769" style="stop-color:#90E67C"/>
						<stop  offset="0.7934" style="stop-color:#74D87B"/>
						<stop  offset="1" style="stop-color:#5DCD79"/>
					</linearGradient>
					<path style="fill:url(#SVGID_00000068641546774706422020000000124307725614998670_);" d="M37.3,111.4c-0.1,0.1-0.2,0.1-0.3,0
						c-0.5-1.1-2.3-4.8-1.7-5.8C36.8,103.3,39.2,106.4,37.3,111.4z"/>
					
						<linearGradient id="SVGID_00000151517734518102621160000004523256484372175264_" gradientUnits="userSpaceOnUse" x1="-14072.4805" y1="-6542.7896" x2="-14072.4805" y2="-6548.0894" gradientTransform="matrix(0.8472 -0.5313 0.5313 0.8472 15441.9941 -1802.1193)">
						<stop  offset="0" style="stop-color:#A8F17E"/>
						<stop  offset="0.2016" style="stop-color:#A2EE7E"/>
						<stop  offset="0.4769" style="stop-color:#90E67C"/>
						<stop  offset="0.7934" style="stop-color:#74D87B"/>
						<stop  offset="1" style="stop-color:#5DCD79"/>
					</linearGradient>
					<path style="fill:url(#SVGID_00000151517734518102621160000004523256484372175264_);" d="M45.2,130.5c0.1,0,0.2-0.2,0-0.3
						c-1-0.7-4.3-3-5.4-2.6C38.3,128.2,40.1,131.6,45.2,130.5z"/>
					
						<linearGradient id="SVGID_00000075128089000212292560000004930140871764541850_" gradientUnits="userSpaceOnUse" x1="-14066.8359" y1="-6553.894" x2="-14066.8359" y2="-6558.522" gradientTransform="matrix(0.8472 -0.5313 0.5313 0.8472 15441.9941 -1802.1193)">
						<stop  offset="0" style="stop-color:#A8F17E"/>
						<stop  offset="0.2016" style="stop-color:#A2EE7E"/>
						<stop  offset="0.4769" style="stop-color:#90E67C"/>
						<stop  offset="0.7934" style="stop-color:#74D87B"/>
						<stop  offset="1" style="stop-color:#5DCD79"/>
					</linearGradient>
					<path style="fill:url(#SVGID_00000075128089000212292560000004930140871764541850_);" d="M40.4,120.4c-0.1,0.1-0.2,0-0.2-0.1
						c0-0.7,0.2-2.6,0.1-3.7c0-1.4,1.3-3.6,2.6-1.4C44.3,117.3,42.1,119.5,40.4,120.4z"/>
					
						<linearGradient id="SVGID_00000134211712890889273240000014465549976838869437_" gradientUnits="userSpaceOnUse" x1="-14071.0977" y1="-6553.855" x2="-14071.0977" y2="-6559.8301" gradientTransform="matrix(0.8472 -0.5313 0.5313 0.8472 15441.9941 -1802.1193)">
						<stop  offset="0" style="stop-color:#A8F17E"/>
						<stop  offset="0.2016" style="stop-color:#A2EE7E"/>
						<stop  offset="0.4769" style="stop-color:#90E67C"/>
						<stop  offset="0.7934" style="stop-color:#74D87B"/>
						<stop  offset="1" style="stop-color:#5DCD79"/>
					</linearGradient>
					<path style="fill:url(#SVGID_00000134211712890889273240000014465549976838869437_);" d="M40.1,120.6c0.1,0,0.2-0.2,0.1-0.3
						c-0.8-0.9-3.6-3.8-4.8-3.7C33.7,116.8,34.8,120.5,40.1,120.6z"/>
				</g>
				<g>
					
						<linearGradient id="SVGID_00000167393234543897689280000018118250971090155429_" gradientUnits="userSpaceOnUse" x1="-14068.667" y1="-6536.8413" x2="-14068.667" y2="-6564.0405" gradientTransform="matrix(0.8472 -0.5313 0.5313 0.8472 15441.9941 -1802.1193)">
						<stop  offset="0" style="stop-color:#A8F17E"/>
						<stop  offset="0.2016" style="stop-color:#A2EE7E"/>
						<stop  offset="0.4769" style="stop-color:#90E67C"/>
						<stop  offset="0.7934" style="stop-color:#74D87B"/>
						<stop  offset="1" style="stop-color:#5DCD79"/>
					</linearGradient>
					<path style="fill:url(#SVGID_00000167393234543897689280000018118250971090155429_);" d="M48.8,135.3
						C48.8,135.3,48.8,135.3,48.8,135.3c-0.1,0.1-0.3,0.1-0.4,0c-0.1-0.1-8.3-10.8-11.6-24.4c0-0.1,0-0.2,0.2-0.3
						c0.1,0,0.2,0.1,0.3,0.2c3.2,13.5,11.4,24.1,11.5,24.2C48.8,135.1,48.8,135.2,48.8,135.3z"/>
				</g>
			</g>
		</g>
		<g>
			<path class="st12" d="M54.3,32.3c0.2-0.5,0.3-1.1,0.3-1.6c0-2.8-2.2-5-5-5c-0.1,0-0.2,0-0.3,0c-0.5-4.2-4.1-7.4-8.3-7.4
				c-3.7,0-6.9,2.4-8,5.8c-0.2,0-0.5-0.1-0.7-0.1c-2.9,0-5.2,2.3-5.2,5.2c0,1.1,0.4,2.2,1,3.1H54.3z"/>
			<polygon class="st13" points="43.4,25.8 40.9,22.6 38.3,25.8 39.6,25.8 39.6,30.3 42.1,30.3 42.1,25.8 			"/>
		</g>
		<g>
			<g>
				<path class="st14" d="M171.1,25.5c-25.4-0.6-53.3-16.2-53.3-16.2S89.9,25.1,64.6,26c0,0-9.7,79.7,53.8,107.1
					C181.5,105,171.1,25.5,171.1,25.5z"/>
				<path class="st15" d="M171.1,24.7c-25.4-0.6-53.3-15.4-53.3-15.4s-27.8,15.1-53.2,16c0,0-9.7,76,53.8,102.2
					C181.5,100.6,171.1,24.7,171.1,24.7z"/>
				<path class="st15" d="M166.1,28.8c-23-0.5-48.4-14-48.4-14S92.5,28.6,69.5,29.3c0,0-8.8,68.8,48.8,92.5
					C175.6,97.6,166.1,28.8,166.1,28.8z"/>
				<path class="st16" d="M163,31.4c-21.5-0.5-45.3-13.1-45.3-13.1S94.2,31.1,72.6,31.8c0,0-8.2,64.4,45.7,86.6
					C171.9,95.7,163,31.4,163,31.4z"/>
				<path class="st16" d="M160.7,32.6c-20.4-0.5-42.9-12.6-42.9-12.6S95.4,32.3,75,33c0,0-7.8,62.3,43.3,83.8
					C169.1,94.8,160.7,32.6,160.7,32.6z"/>
				<path class="st17" d="M157.2,34.7c-18.7-0.5-39.4-11.9-39.4-11.9S97.2,34.5,78.5,35.1c0,0-7.1,58.6,39.8,78.8
					C165,93.2,157.2,34.7,157.2,34.7z"/>
				<path class="st16" d="M117.8,22.8l0.5,91.1c46.7-20.7,38.9-79.2,38.9-79.2C138.5,34.3,117.8,22.8,117.8,22.8z"/>
			</g>
			<g>
				<path class="st18" d="M140.7,70c0,12.6-10.2,22.8-22.8,22.8c-12.6,0-22.8-10.2-22.8-22.8c0-12.6,10.2-22.8,22.8-22.8
					C130.5,47.2,140.7,57.4,140.7,70z"/>
				<g>
					<g>
						<g>
							<g>
								<path class="st13" d="M122.5,69.8l-9.3-0.1c-1.1,0-1.9-0.9-1.9-1.9l0-5.2c0-3.6,3-6.5,6.6-6.5c3.6,0,6.6,3,6.5,6.5l0,5.2
									C124.5,69,123.6,69.8,122.5,69.8z M113.3,67.8l9.2,0.1l0-5.2c0-2.5-2-4.5-4.6-4.6c-2.5,0-4.6,2-4.6,4.5L113.3,67.8z"/>
								<path class="st13" d="M122.5,70.1l-9.3-0.1c-1.2,0-2.2-1-2.2-2.2l0-5.2c0-3.7,3.1-6.7,6.9-6.7c3.8,0,6.9,3.1,6.8,6.8l0,5.2
									C124.8,69.1,123.8,70.1,122.5,70.1z M118,56.4c-3.5,0-6.3,2.8-6.3,6.2l0,5.2c0,0.9,0.7,1.7,1.7,1.7l9.3,0.1
									c0.9,0,1.7-0.7,1.7-1.7l0-5.2C124.3,59.2,121.5,56.4,118,56.4z M122.8,68.1L113,68l0-5.4c0-2.6,2.2-4.8,4.9-4.8
									c2.7,0,4.9,2.2,4.8,4.8L122.8,68.1z M113.6,67.5l8.6,0.1l0-4.9c0-2.4-1.9-4.3-4.3-4.3c-2.4,0-4.3,1.9-4.3,4.2L113.6,67.5z"
									/>
							</g>
						</g>
					</g>
					<path class="st13" d="M127.3,68c0-0.7-0.7-1.2-1.5-1.2l-15.7-0.1c-0.9,0-1.6,0.5-1.6,1.2l-0.1,12c0,0.7,0.7,1.2,1.5,1.2
						l15.7,0.1c0.9,0,1.6-0.5,1.6-1.2L127.3,68z M119.1,76.6l-2.7,0l0.5-2.3c-0.4-0.3-0.7-0.8-0.7-1.4c0-0.9,0.7-1.7,1.6-1.7
						c0.9,0,1.6,0.8,1.6,1.7c0,0.6-0.3,1.1-0.7,1.4L119.1,76.6z"/>
				</g>
			</g>
		</g>
		<g>
			<path class="st19" d="M72.7,63H34.6c-6.5,0-11.8-5.3-11.8-11.8v0c0-6.5,5.3-11.8,11.8-11.8h38.1c6.5,0,11.8,5.3,11.8,11.8v0
				C84.4,57.7,79.2,63,72.7,63z"/>
			<g>
				<g>
					<path class="st20" d="M44.8,51.2c0,4.3-3.5,7.7-7.7,7.7c-4.3,0-7.7-3.5-7.7-7.7c0-4.3,3.5-7.7,7.7-7.7
						C41.3,43.5,44.8,46.9,44.8,51.2z"/>
					<g>
						<g>
							<path class="st16" d="M39.3,48.9c0,1.3-1,2.3-2.3,2.3c-1.3,0-2.3-1-2.3-2.3c0-1.3,1-2.3,2.3-2.3
								C38.3,46.6,39.3,47.6,39.3,48.9z"/>
							<path class="st16" d="M40.9,55.2c-0.1-2.1-1.8-3.7-3.8-3.7c-2.1,0-3.8,1.7-3.8,3.7H40.9z"/>
						</g>
					</g>
				</g>
				<g>
					<g>
						<path class="st20" d="M75.1,49.8h-23c-1.6,0-2.9-1.3-2.9-2.9v0c0-1.6,1.3-2.9,2.9-2.9h23c1.6,0,2.9,1.3,2.9,2.9v0
							C78,48.5,76.7,49.8,75.1,49.8z"/>
						<g>
							<g>
								<path class="st16" d="M57.9,45.9l-0.6,0.8v0l1-0.1v0.5l-1-0.1v0l0.6,0.8l-0.4,0.2l-0.4-0.9h0l-0.4,0.9l-0.4-0.2l0.6-0.8v0
									l-1,0.1v-0.5l1,0.1v0L56.3,46l0.4-0.2l0.4,0.9h0l0.4-0.9L57.9,45.9z"/>
							</g>
							<g>
								<path class="st16" d="M61.2,45.9l-0.6,0.8v0l1-0.1v0.5l-1-0.1v0l0.6,0.8l-0.4,0.2l-0.4-0.9h0l-0.4,0.9l-0.4-0.2l0.6-0.8v0
									l-1,0.1v-0.5l1,0.1v0L59.5,46l0.4-0.2l0.4,0.9h0l0.4-0.9L61.2,45.9z"/>
							</g>
							<g>
								<path class="st16" d="M64.5,45.9l-0.6,0.8v0l1-0.1v0.5l-1-0.1v0l0.6,0.8L64,48.1l-0.4-0.9h0l-0.4,0.9l-0.4-0.2l0.6-0.8v0
									l-1,0.1v-0.5l1,0.1v0L62.8,46l0.4-0.2l0.4,0.9h0l0.4-0.9L64.5,45.9z"/>
							</g>
							<g>
								<path class="st16" d="M67.7,45.9l-0.6,0.8v0l1-0.1v0.5l-1-0.1v0l0.6,0.8l-0.4,0.2l-0.4-0.9h0l-0.4,0.9l-0.4-0.2l0.6-0.8v0
									l-1,0.1v-0.5l1,0.1v0L66.1,46l0.4-0.2l0.4,0.9h0l0.4-0.9L67.7,45.9z"/>
							</g>
							<g>
								<path class="st16" d="M71,45.9l-0.6,0.8v0l1-0.1v0.5l-1-0.1v0l0.6,0.8l-0.4,0.2l-0.4-0.9h0l-0.4,0.9l-0.4-0.2L70,47v0
									l-1,0.1v-0.5l1,0.1v0L69.4,46l0.4-0.2l0.4,0.9h0l0.4-0.9L71,45.9z"/>
							</g>
						</g>
					</g>
					<g>
						<path class="st20" d="M75.1,58.4h-23c-1.6,0-2.9-1.3-2.9-2.9l0,0c0-1.6,1.3-2.9,2.9-2.9h23c1.6,0,2.9,1.3,2.9,2.9l0,0
							C78,57.1,76.7,58.4,75.1,58.4z"/>
						<g>
							<g>
								<path class="st16" d="M57.9,54.6l-0.6,0.8v0l1-0.1v0.5l-1-0.1v0l0.6,0.8l-0.4,0.2l-0.4-0.9h0l-0.4,0.9l-0.4-0.2l0.6-0.8v0
									l-1,0.1v-0.5l1,0.1v0l-0.6-0.8l0.4-0.2l0.4,0.9h0l0.4-0.9L57.9,54.6z"/>
							</g>
							<g>
								<path class="st16" d="M61.2,54.6l-0.6,0.8v0l1-0.1v0.5l-1-0.1v0l0.6,0.8l-0.4,0.2l-0.4-0.9h0l-0.4,0.9l-0.4-0.2l0.6-0.8v0
									l-1,0.1v-0.5l1,0.1v0l-0.6-0.8l0.4-0.2l0.4,0.9h0l0.4-0.9L61.2,54.6z"/>
							</g>
							<g>
								<path class="st16" d="M64.5,54.6l-0.6,0.8v0l1-0.1v0.5l-1-0.1v0l0.6,0.8L64,56.7l-0.4-0.9h0l-0.4,0.9l-0.4-0.2l0.6-0.8v0
									l-1,0.1v-0.5l1,0.1v0l-0.6-0.8l0.4-0.2l0.4,0.9h0l0.4-0.9L64.5,54.6z"/>
							</g>
							<g>
								<path class="st16" d="M67.7,54.6l-0.6,0.8v0l1-0.1v0.5l-1-0.1v0l0.6,0.8l-0.4,0.2l-0.4-0.9h0l-0.4,0.9l-0.4-0.2l0.6-0.8v0
									l-1,0.1v-0.5l1,0.1v0l-0.6-0.8l0.4-0.2l0.4,0.9h0l0.4-0.9L67.7,54.6z"/>
							</g>
							<g>
								<path class="st16" d="M71,54.6l-0.6,0.8v0l1-0.1v0.5l-1-0.1v0l0.6,0.8l-0.4,0.2l-0.4-0.9h0l-0.4,0.9l-0.4-0.2l0.6-0.8v0
									l-1,0.1v-0.5l1,0.1v0l-0.6-0.8l0.4-0.2l0.4,0.9h0l0.4-0.9L71,54.6z"/>
							</g>
						</g>
					</g>
				</g>
			</g>
		</g>
		<g>
			<g>
				<path class="st21" d="M103.1,118.3c0.3,2.2-7,5.2-8.4,3.5c-1.8-2.2-7.6-11.3-11.1-15.6c-1.9-3.1-8.7-12.4-7.2-17.6
					C90.6,87,102.5,114.6,103.1,118.3z"/>
			</g>
			<g>
				<path class="st21" d="M35.5,116.6c-0.3,2.2,6.8,5.1,8.2,3.5c1.8-2.2,7.3-11,10.7-15.3c1.8-3,8.4-12.2,6.9-17.2
					C47.4,85.9,36,113,35.5,116.6z"/>
			</g>
			<path class="st22" d="M60.2,86.6C61.1,85,67,85,70.2,85c3.2-0.1,8.6,0.3,9.7,2c-5.1,4.2-10.2,8.8-10.2,8.8L60.2,86.6z"/>
			<path class="st21" d="M53.4,127.7c-0.1,2.1-0.3,3.9-0.6,5.4h32.6c-0.1-1.5-0.3-3.2-0.4-5.4c-0.3-6.2,0.4-20.1,0.5-25
				c0.1-4.3-0.5-11.8-2-12.8c-3.1-2-7.1-2.5-14.3-2.5c-7.2,0-11.2,0.5-14.3,2.5c-1.5,1-2.1,8.4-2,12.8
				C53,107.6,53.8,121.4,53.4,127.7z"/>
			<path class="st23" d="M85.5,133.1c0-0.3-0.1-0.6-0.1-1c0-0.1,0-0.2,0-0.3c0-0.3,0-0.5-0.1-0.8c0-0.1,0-0.3,0-0.4
				c0-0.3,0-0.6-0.1-0.9c0-0.1,0-0.3,0-0.4c0-0.5-0.1-0.9-0.1-1.5c-0.1-1.2-0.1-2.6-0.1-4.2c0-3.7,0.2-8.3,0.3-12.4
				c0.1-3.5,0.2-6.6,0.3-8.4c0-0.1,0-0.1,0-0.2c-0.8,4.8-2.3,22.7-3.7,30.6H85.5z"/>
			<path class="st24" d="M69.4,87.4c-2.5,0-5,0.2-7.2,0.5c0.5,3,3.6,6.4,7.2,6.4c3.7,0,6.7-3.4,7.2-6.4
				C74.3,87.6,71.9,87.4,69.4,87.4z"/>
			<g>
				<path class="st24" d="M64.3,81.8h9.4l0.3,6.4c-2.2,1.5-7.9,1.2-10.1,0L64.3,81.8z"/>
				<path class="st25" d="M69,86.4c-1.4,0-3.3-1.1-4.9-1.5l0.2-3.1h9.4l0.2,2.9C72.3,85.2,70.4,86.4,69,86.4z"/>
			</g>
			<g>
				<path class="st22" d="M69.3,96.8c0,0,1.9-7.3-4.6-10.3c-4.7-2.1-5.9,1-5,2.2C60.6,89.8,69.3,96.8,69.3,96.8z"/>
				<path class="st26" d="M59.6,88.1c0.6,0.1,6.3,2.1,8.1,7.1c-4.6-4-8.9-6.8-8.9-6.8L59.6,88.1z"/>
				<path class="st22" d="M70.2,96.7c0,0-1.8-7,4.7-10c4.7-2.1,5.6,0.7,5,1.9C77.9,89.2,70.2,96.7,70.2,96.7z"/>
				<path class="st26" d="M79.7,88.4c-0.5,0.2-6.2,1.7-7.1,6.8c3.8-4.6,7.9-6.6,7.9-6.6L79.7,88.4z"/>
			</g>
			<path class="st24" d="M77.8,73.9c0,0,0,4.9-2.5,7.6c-2.5,2.6-4,3.4-5.1,3.7c-1.1,0.3-3.7-0.2-4.2-0.7c-0.4-0.6-4.1-2.9-4.8-4.6
				c-0.7-1.7-1.3-4.6-1.3-6c0,0,0.7-1.6,0.4-3.7c0,0,1.9-1.4,2.2-2.8c0,0,4.3,2.7,7-1c0,0,0.4,1.3-0.1,2c0,0,1.3-0.8,1.6-1.9
				c0,0,1.5,2.3,5,1.9c0,0,0,1,1.4,2.1C77.4,70.3,76.7,72.5,77.8,73.9z"/>
			<path class="st27" d="M57.2,63.6l-0.8-0.1c0.2-0.9,1.5-1.4,1.5-1.4L57,61.9c0,0,1.5,0.1,2.8-2c1.3-2.1,5.5-1.9,5.5-1.9
				c4.6-3.1,9.4-1,11.2,1c1.8,2,5.2,4.9,5.2,4.9C81.1,64,80.6,64,80.6,64c1.3,1.9-0.5,3.3-0.5,3.3c-0.1,1.1-0.9,4-0.9,4
				c-1.6,1.2-1.3,2.6-1.3,2.6c-1.1-1.3-0.4-3.5-0.4-3.5c-1.4-1-1.4-2-1.4-2c-3.5,0.4-5-1.8-5-1.8c-0.3,1.1-1.6,1.8-1.6,1.8
				c0.4-0.7,0.1-1.9,0.1-1.9c-2.7,3.5-7,1-7,1c-0.3,1.3-2.2,2.7-2.2,2.7c0.4,2.1-0.4,3.5-0.4,3.5c0,0,0,0,0,0l0,0
				c-0.5-1.7-1.3-2.5-1.3-2.5c-1-1-1.1-3.7-1.1-3.7C54.9,64.8,57.2,63.6,57.2,63.6z"/>
			<path class="st24" d="M77.8,73.9c0,0-0.2-1.6,1.3-3c0,0,1.6,1.1,0.7,3.7c-1,2.6-2.3,2.1-2.3,2.1l0-0.1
				C77.8,75.2,77.8,73.9,77.8,73.9z"/>
			<path class="st24" d="M58.6,70.9c0,0,0.8,0.9,1.3,2.9c0,0.6,0.1,1.5,0.3,2.4c-0.3,0-1.9,0-2.4-2.8C57.5,72.1,58,71.3,58.6,70.9z"
				/>
			<g class="st28">
				<path class="st29" d="M67.9,76.7c0,0-0.1-0.1-0.2-0.1c-0.1-0.1-0.2-0.2-0.3-0.3c0-0.1-0.1-0.2-0.1-0.3l0,0l0,0l0,0l0-0.1
					c0,0,0,0,0,0v0v0l0,0l0,0l0,0l0,0c0-0.1,0-0.1,0-0.2c0-0.2,0.2-0.5,0.3-0.8c0.6-1.2,1-2.3,0.8-2.3c-0.1-0.1-0.7,0.9-1.3,2.1
					c-0.1,0.3-0.3,0.6-0.3,1c0,0.1,0,0.2,0,0.2c0,0,0,0,0,0.1l0,0l0,0l0,0c0,0,0,0,0,0.1c0,0.2,0.1,0.3,0.2,0.4
					c0.2,0.2,0.4,0.3,0.5,0.3C67.8,76.8,67.9,76.8,67.9,76.7z"/>
			</g>
			<g>
				<path class="st30" d="M70.8,79c-1.5,0.5-3.5,0.6-5,0.2c0.3,1.1,0.6,1.8,2.6,1.8C69.9,81,70.9,80,70.8,79z"/>
				<path class="st31" d="M70.8,79c-0.2,0-0.3,0.1-0.5,0.1c-1.1,0.4-2.1,1-2.9,1.8c0.2,0,0.5,0.1,0.9,0.1C69.9,81,70.9,80.1,70.8,79
					z"/>
				<path class="st32" d="M66.3,79.3c0.1,0.2,0.1,0.4,0.1,0.5c0.1,0.1,2.2,0.5,4.3-0.2c0.1-0.2,0.1-0.3,0.1-0.6
					C69.6,79.3,67.6,79.4,66.3,79.3z"/>
			</g>
			<path class="st25" d="M58.9,71.5L58.9,71.5c0.3,0.4,0.7,1.2,1,2.4c0,0.5,0,1.1,0.1,1.7c-0.3,0-0.6-0.6-0.6-1.1
				c0.1-0.7-0.3-0.7-0.8-1c-0.5-0.3,0.5-0.7,0.1-1.2c-0.4-0.5-0.7,0.7-0.7,0.7C57.7,72.3,58.9,71.5,58.9,71.5z"/>
			<path class="st25" d="M78.2,72.1c0.7-0.2,1.4,0.6,1.5,1c0.1,0.6-0.3,0.6-0.4,0.1c-0.1-0.5-0.3-0.5-0.6-0.3
				c-0.3,0.2,0.1,1.2-0.1,2.1c-0.1,0.6-0.6,0.9-1,1.1c0.2-1.2,0.2-2.1,0.2-2.1S77.7,73.1,78.2,72.1z"/>
			<g>
				<g>
					<g>
						<path class="st24" d="M57.7,124.9c0.2-0.4,0.5-0.8,0.8-1.1c0.3-0.3,0.7-0.5,1.1-0.7c0.6-0.2,1.1-0.3,1.7-0.5
							c0.6-0.2,1.2-0.3,1.8-0.5c0.5-0.1,1-0.3,1.6-0.4c0.2,0,0.4,0,0.6,0c0.5,0,0.9,0.1,1.4,0.1c0.6,0.1,1.2,0.2,1.9,0.3
							c0.5,0.1,1,0.2,1.5,0.4c0.5,0.2,0.9,0.5,1.3,0.8c0.3,0.3,0.7,0.5,0.9,0.8c0.1,0.1,0.2,0.3,0.2,0.4c0,0.1-0.1,0.2-0.3,0.3
							c-0.1,0.1-0.3,0.1-0.5,0.1c-0.8-0.1-1.5-0.6-2.2-1c-0.2-0.1-0.5-0.2-0.7-0.3c-0.4-0.1-0.8-0.2-1.2-0.2c-0.3,0-0.5,0-0.8,0
							c0.1,0,0.2,0.1,0.2,0.1c0.4,0.2,0.7,0.4,1.1,0.6c0.4,0.2,0.7,0.4,1,0.6l0,0c0.2,0.1,0.5,0.3,0.7,0.5c0.4,0.3,0.7,0.7,1,1.2
							c0.1,0.2,0.2,0.3,0.3,0.5c0.2,0.2,0.4,0.4,0.6,0.6c0.2,0.2,0.4,0.5,0.4,0.8c0.1,0.3-0.2,0.5-0.5,0.5c-0.5,0-0.8-0.4-1.1-0.7
							c-0.4-0.5-0.8-0.9-1.2-1.3c-0.5-0.4-1-0.7-1.5-0.8c0,0,0,0-0.1,0c0,0,0.1,0,0.1,0.1c0.2,0.2,0.4,0.4,0.6,0.6
							c0.4,0.6,0.9,1.2,1.3,1.8c0.2,0.3,0.5,0.6,0.7,0.9c0.2,0.2,1,1.3,0.4,1.3c-0.2,0-0.4-0.1-0.6-0.1c-0.2-0.1-0.4-0.2-0.6-0.4
							c-0.4-0.4-0.8-0.8-1.1-1.3c-0.2-0.2-0.3-0.5-0.5-0.7c-0.3-0.3-0.6-0.5-1-0.6c-0.6-0.2-1.1-0.3-1.7-0.4
							c0.2,0.1,0.4,0.2,0.6,0.2c0.9,0.4,1.3,1,1.9,1.7c0.3,0.3,0.6,0.6,0.9,0.9c0.2,0.2,0.3,0.5,0.1,0.7c-0.2,0.2-0.4,0.1-0.6,0
							c-0.6-0.3-1-0.8-1.5-1.3c-0.6-0.5-1.2-0.8-1.9-1.2c-0.8-0.4-1.4-0.3-2.2-0.2c-0.4,0-0.8,0.1-1.2,0.1c-0.8,0-1.6,0-2.4-0.1
							c-0.3,0-0.6-0.1-0.9-0.3c-0.2-0.1-0.3-0.3-0.4-0.5C57.1,126.7,57.4,125.6,57.7,124.9z"/>
					</g>
				</g>
				<g>
					<path class="st33" d="M70.2,123.1c-0.9-0.5-1.8-0.8-2.8-1c-1-0.2-2.1-0.2-3.1-0.2c0,0-0.1,0-0.1,0c0.2-0.1,0.4-0.1,0.6-0.1
						c0.2,0,0.4,0,0.6,0c0.5,0,0.9,0.1,1.4,0.1c0.6,0.1,1.2,0.2,1.9,0.3c0.5,0.1,1,0.2,1.5,0.4c0.5,0.2,0.9,0.5,1.3,0.8
						c0.3,0.3,0.7,0.5,0.9,0.8c0.1,0.1,0.1,0.2,0.2,0.3C71.7,124.2,71,123.6,70.2,123.1z"/>
				</g>
				<g>
					<path class="st34" d="M71.1,127.5c-0.4-0.4-0.8-0.8-1.2-1.1c-0.4-0.4-0.8-0.7-1.3-1.1c-0.5-0.3-0.9-0.7-1.5-0.9
						c-0.4-0.2-0.9-0.4-1.3-0.6c0.3-0.1,0.7,0,1,0c0,0,0,0,0.1,0c0.4,0.2,0.7,0.4,1.1,0.6c0.4,0.2,0.7,0.4,1,0.6l0,0
						c0.2,0.1,0.5,0.3,0.7,0.5c0.4,0.3,0.7,0.7,1,1.2c0.1,0.2,0.2,0.3,0.3,0.5c0.2,0.2,0.4,0.4,0.6,0.6c0.2,0.2,0.4,0.5,0.4,0.8
						c0,0.2,0,0.3-0.1,0.3C71.8,128.4,71.5,127.9,71.1,127.5z"/>
				</g>
				<g>
					<path class="st33" d="M67.9,126.3c-0.4-0.3-0.8-0.5-1.3-0.8c0.6,0.1,1.2,0.3,1.7,0.5c0.6,0.3,1.2,0.7,1.6,1.1
						c0.2,0.2,0.5,0.5,0.6,0.7c0.1,0.2,0.3,0.4,0.4,0.6c0.2,0.2,0.4,0.4,0.6,0.5c-0.1,0-0.1,0-0.2,0c-0.5,0-0.8-0.4-1.1-0.7
						c-0.4-0.5-0.8-0.9-1.2-1.3C68.8,126.7,68.4,126.5,67.9,126.3z"/>
				</g>
				<g>
					<path class="st33" d="M58,127.2c0.3,0.2,0.5,0.3,0.8,0.4c0.6,0.2,1.3,0.3,1.9,0.3c0.7,0,1.3,0,2,0c0.6,0,1.1,0,1.7,0
						c0.5,0.1,1,0.3,1.4,0.6c0.6,0.4,1,0.9,1.5,1.4c0.2,0.2,0.4,0.5,0.7,0.7c0.1,0.1,0.3,0.2,0.5,0.3c0,0,0.1,0,0.1,0c0,0,0,0,0,0
						c-0.2,0.2-0.4,0.1-0.6,0c-0.6-0.3-1-0.8-1.5-1.3c-0.6-0.5-1.2-0.8-1.9-1.2c-0.8-0.4-1.4-0.3-2.2-0.2c-0.4,0-0.8,0.1-1.2,0.1
						c-0.8,0-1.6,0-2.4-0.1c-0.3,0-0.6-0.1-0.9-0.3c-0.2-0.1-0.3-0.3-0.4-0.5c-0.1-0.2-0.2-0.5-0.2-0.7
						C57.5,126.9,57.9,127.1,58,127.2z"/>
				</g>
				<g>
					<path class="st33" d="M66.9,127.7c-0.6-0.2-1.1-0.3-1.7-0.4c0,0,0,0,0,0c-0.3-0.1-0.5-0.2-0.8-0.3c0.6,0,1.2,0,1.8,0.1
						c0.6,0.1,1.3,0.3,1.8,0.7c0.6,0.4,1,1.1,1.4,1.6c0.2,0.3,0.4,0.6,0.7,0.8c0.2,0.2,0.4,0.3,0.6,0.3c0,0,0.1,0,0.2,0
						c0,0.1-0.1,0.2-0.2,0.3c-0.2,0-0.4-0.1-0.6-0.1c-0.2-0.1-0.4-0.2-0.6-0.4c-0.4-0.4-0.8-0.8-1.1-1.3c-0.2-0.2-0.3-0.5-0.5-0.7
						C67.6,128,67.2,127.9,66.9,127.7z"/>
				</g>
				<g>
					<path class="st33" d="M68.7,124c-0.4-0.1-0.8-0.2-1.2-0.2c-0.2,0-0.3,0-0.5,0c-0.1,0-0.2-0.1-0.3-0.1c0.6-0.1,1.1-0.1,1.7-0.1
						c0.6,0,1.2,0.2,1.8,0.5c0.3,0.1,0.6,0.3,0.9,0.5c0.2,0.2,0.4,0.4,0.7,0.5c0.1,0.1,0.2,0.1,0.4,0.1c-0.1,0-0.3,0.1-0.4,0
						c-0.8-0.1-1.5-0.6-2.2-1C69.2,124.2,69,124.1,68.7,124z"/>
				</g>
				<g>
					<g>
						<path class="st24" d="M58.4,127.3c0,0-17-2.8-20.5-5.4c-3.5-2.7-2.6-6.7-0.4-7.6c2.2-1,5.2-0.4,7.8,1.6
							c2.6,2,14.5,8.2,14.5,8.2L58.4,127.3z"/>
					</g>
				</g>
			</g>
			<g>
				<g>
					<g>
						<path class="st24" d="M82,126.5c-0.2-0.4-0.5-0.7-0.9-1c-0.3-0.3-0.8-0.5-1.2-0.6c-0.6-0.2-1.2-0.3-1.7-0.4
							c-0.6-0.1-1.2-0.3-1.8-0.4c-0.5-0.1-1-0.2-1.6-0.3c-0.2,0-0.4,0-0.6,0.1c-0.5,0.1-0.9,0.1-1.4,0.2c-0.6,0.1-1.2,0.2-1.8,0.4
							c-0.5,0.1-1,0.3-1.5,0.5c-0.5,0.2-0.8,0.5-1.2,0.9c-0.3,0.3-0.6,0.5-0.9,0.9c-0.1,0.1-0.2,0.3-0.2,0.5c0,0.1,0.1,0.2,0.3,0.3
							c0.2,0,0.3,0.1,0.5,0c0.8-0.2,1.5-0.7,2.2-1.1c0.2-0.1,0.5-0.2,0.7-0.3c0.4-0.1,0.8-0.2,1.1-0.3c0.3,0,0.5-0.1,0.8-0.1
							c-0.1,0-0.2,0.1-0.2,0.1c-0.4,0.2-0.7,0.4-1,0.6c-0.3,0.2-0.7,0.4-1,0.7l0,0c-0.2,0.2-0.4,0.3-0.6,0.5
							c-0.4,0.4-0.6,0.8-0.9,1.2c-0.1,0.2-0.2,0.3-0.3,0.5c-0.2,0.2-0.4,0.4-0.6,0.7c-0.2,0.2-0.4,0.5-0.4,0.8
							c0,0.4,0.3,0.5,0.6,0.4c0.5,0,0.8-0.4,1.1-0.8c0.3-0.5,0.7-0.9,1.2-1.3c0.4-0.4,0.9-0.7,1.5-0.9c0,0,0,0,0.1,0
							c0,0-0.1,0-0.1,0.1c-0.2,0.2-0.4,0.4-0.5,0.7c-0.4,0.6-0.8,1.2-1.2,1.8c-0.2,0.3-0.4,0.6-0.6,0.9c-0.1,0.2-1,1.3-0.3,1.3
							c0.2,0,0.4-0.1,0.6-0.1c0.2-0.1,0.4-0.3,0.6-0.4c0.4-0.4,0.7-0.9,1-1.3c0.2-0.3,0.3-0.5,0.5-0.8c0.2-0.3,0.6-0.5,0.9-0.7
							c0.5-0.2,1.1-0.4,1.7-0.5c-0.2,0.1-0.4,0.2-0.6,0.3c-0.8,0.4-1.3,1.1-1.8,1.8c-0.2,0.4-0.6,0.6-0.8,1c-0.1,0.2-0.3,0.5,0,0.7
							c0.2,0.1,0.4,0.1,0.6,0c0.6-0.3,1-0.9,1.4-1.3c0.5-0.5,1.2-0.9,1.8-1.3c0.7-0.4,1.4-0.3,2.2-0.3c0.4,0,0.8,0,1.2,0
							c0.8,0,1.6-0.1,2.4-0.3c0.3-0.1,0.6-0.2,0.8-0.4c0.2-0.2,0.3-0.4,0.4-0.6C82.8,128.2,82.4,127.2,82,126.5z"/>
					</g>
				</g>
				<g>
					<path class="st33" d="M69.5,125.4c0.9-0.5,1.8-0.9,2.8-1.1c1-0.2,2-0.3,3.1-0.4c0,0,0.1,0,0.1,0c-0.2,0-0.4-0.1-0.6-0.1
						c-0.2,0-0.4,0-0.6,0.1c-0.5,0.1-0.9,0.1-1.4,0.2c-0.6,0.1-1.2,0.2-1.8,0.4c-0.5,0.1-1,0.3-1.5,0.5c-0.5,0.2-0.8,0.5-1.2,0.9
						c-0.3,0.3-0.6,0.5-0.9,0.9c-0.1,0.1-0.1,0.2-0.2,0.3C68,126.5,68.7,125.9,69.5,125.4z"/>
				</g>
				<g>
					<path class="st34" d="M68.8,129.8c0.3-0.4,0.7-0.8,1.1-1.2c0.4-0.4,0.8-0.8,1.2-1.1c0.4-0.4,0.9-0.7,1.4-1
						c0.4-0.2,0.8-0.4,1.2-0.7c-0.3,0-0.7,0-1,0.1c0,0,0,0-0.1,0c-0.4,0.2-0.7,0.4-1,0.6c-0.3,0.2-0.7,0.4-1,0.7l0,0
						c-0.2,0.2-0.4,0.3-0.6,0.5c-0.4,0.4-0.6,0.8-0.9,1.2c-0.1,0.2-0.2,0.3-0.3,0.5c-0.2,0.2-0.4,0.4-0.6,0.7
						c-0.2,0.2-0.4,0.5-0.4,0.8c0,0.2,0,0.3,0.1,0.3C68.1,130.7,68.4,130.2,68.8,129.8z"/>
				</g>
				<g>
					<path class="st33" d="M71.9,128.4c0.4-0.3,0.8-0.6,1.2-0.8c-0.6,0.1-1.2,0.3-1.7,0.6c-0.6,0.3-1.1,0.7-1.6,1.2
						c-0.2,0.2-0.4,0.5-0.6,0.7c-0.1,0.2-0.2,0.4-0.4,0.6c-0.1,0.2-0.4,0.5-0.6,0.5c0.1,0,0.1,0,0.2,0c0.5,0,0.8-0.4,1.1-0.8
						c0.3-0.5,0.7-0.9,1.2-1.3C71,128.9,71.4,128.6,71.9,128.4z"/>
				</g>
				<g>
					<path class="st33" d="M81.8,128.8c-0.2,0.2-0.5,0.3-0.8,0.5c-0.6,0.3-1.2,0.4-1.9,0.4c-0.7,0.1-1.3,0.1-2,0.1
						c-0.6,0-1.1,0-1.7,0.1c-0.5,0.1-1,0.3-1.4,0.6c-0.6,0.4-1,1-1.4,1.5c-0.2,0.3-0.4,0.5-0.7,0.7c-0.1,0.1-0.3,0.2-0.5,0.3
						c0,0-0.1,0-0.1,0c0,0,0,0,0,0c0.2,0.1,0.4,0.1,0.6,0c0.6-0.3,1-0.9,1.4-1.3c0.5-0.5,1.2-0.9,1.8-1.3c0.7-0.4,1.4-0.3,2.2-0.3
						c0.4,0,0.8,0,1.2,0c0.8,0,1.6-0.1,2.4-0.3c0.3-0.1,0.6-0.2,0.8-0.4c0.2-0.2,0.3-0.4,0.4-0.6c0.1-0.2,0.1-0.5,0.1-0.8
						C82.3,128.5,82,128.7,81.8,128.8z"/>
				</g>
				<g>
					<path class="st33" d="M73.1,129.8c0.5-0.2,1.1-0.4,1.7-0.5c0,0,0,0,0,0c0.3-0.1,0.5-0.2,0.7-0.4c-0.6,0-1.2,0-1.8,0.2
						c-0.6,0.2-1.2,0.4-1.7,0.8c-0.6,0.5-0.9,1.1-1.3,1.7c-0.2,0.3-0.4,0.6-0.7,0.9c-0.2,0.2-0.4,0.3-0.6,0.4c0,0-0.1,0-0.2,0
						c0,0.1,0.1,0.2,0.3,0.2c0.2,0,0.4-0.1,0.6-0.1c0.2-0.1,0.4-0.3,0.6-0.4c0.4-0.4,0.7-0.9,1-1.3c0.2-0.3,0.3-0.5,0.5-0.8
						C72.4,130.1,72.7,129.9,73.1,129.8z"/>
				</g>
				<g>
					<path class="st33" d="M71,126.2c0.4-0.1,0.8-0.2,1.1-0.3c0.2,0,0.3,0,0.5-0.1c0.1,0,0.2-0.1,0.3-0.1c-0.6,0-1.1,0-1.7,0
						c-0.6,0.1-1.2,0.3-1.7,0.6c-0.3,0.2-0.6,0.4-0.8,0.6c-0.2,0.2-0.4,0.4-0.7,0.5c-0.1,0.1-0.2,0.1-0.4,0.1c0.1,0,0.3,0,0.4,0
						c0.8-0.2,1.5-0.7,2.2-1.1C70.5,126.4,70.7,126.3,71,126.2z"/>
				</g>
				<g>
					<g>
						<path class="st24" d="M81.5,128.9c0,0,16.8-3.7,20.2-6.6c3.4-2.9,2.2-6.8,0-7.6c-2.2-0.9-5.2-0.1-7.7,2c-2.5,2.1-14,9-14,9
							L81.5,128.9z"/>
					</g>
				</g>
			</g>
			<g>
				<path class="st35" d="M87,128c0.2-0.1,0.3-0.1,0.5-0.2C87.4,127.9,87.2,127.9,87,128z"/>
				<path class="st35" d="M90.9,147.5c1,0,1.7,1.2,1.4,2.2c-0.3,1-1.3,1.6-2.3,1.8c-1,0.2-2,0-3-0.3c-3.5-0.7-7-1.5-10.4-2.2l0-0.1
					c4.5-0.3,9-0.7,13.5-1.4c0.3,0,0.5-0.1,0.8-0.1L90.9,147.5z"/>
				<path class="st35" d="M48.7,149.8c-1-0.9-1.7-2.4-1-3.6c0.7-1.4,2.5-1.8,4.1-1.9c4.1-0.4,8.1-0.5,12.2-0.4c-0.1,2,0.4,4,1.4,5.7
					c-4,1.3-8.1,1.8-12.3,1.5c-1.4-0.1-3-0.3-4.1-1.2C48.9,149.9,48.8,149.8,48.7,149.8z"/>
				<path class="st36" d="M65.7,149.5c-0.1,0-0.2,0.1-0.4,0.1c-1-1.7-1.4-3.7-1.4-5.7c0-0.1,0-0.2,0-0.2l0,0c5.8-0.4,11-3.7,16-6.7
					c1.9-1.1,3.9-2.3,5.9-3.2l-0.4-0.8l0,0c0-1.2-0.9-2.1-2.1-2.1h-2.5c0.1-0.1,0.2-0.1,0.3-0.2c1.2-0.7,2.4-1.3,3.6-1.9
					c0.7-0.3,1.3-0.6,2-0.9c0.2,0,0.4-0.1,0.5-0.2c0,0,0,0,0,0c0.7-0.2,1.3-0.5,2-0.6c3.4-0.9,7-0.9,10.2,0.5
					c3.1,1.5,5.6,4.6,5.7,8.1c0.1,3.5-2.3,6.8-5.3,8.6c-2.8,1.7-6,2.5-9.3,3c-0.3,0-0.5,0.1-0.8,0.1c-4.5,0.7-9,1.1-13.5,1.4
					C73,149.1,69.4,149.3,65.7,149.5z"/>
				<path class="st36" d="M51.6,131.1c0.3,0.1,0.6,0.2,1,0.3v1.6h33.1l0.4,0.8c-2,0.9-4,2.1-5.9,3.2c-5,3-10.2,6.2-16,6.7l0,0
					c0,0.1,0,0.2,0,0.2c-4.1-0.1-8.2,0-12.2,0.4c-1.6,0.1-3.4,0.5-4.1,1.9c-0.6,1.2,0,2.8,1,3.6c-3.6-0.4-7.1-1.1-10.3-2.6
					c-2.9-1.3-5.8-3.5-6.6-6.6c-0.8-3.1,0.7-6.5,3.3-8.5c2.5-2,5.9-2.6,9.1-2.4C46.8,129.8,49.2,130.4,51.6,131.1z"/>
				<path class="st37" d="M92.5,131.3c-3.6,1.6-6.8,3.9-10.2,5.9c0.8-1,1.8-1.9,2.8-2.8c0.4-0.4-0.2-1-0.6-0.6
					c-1.3,1.1-2.5,2.3-3.6,3.7c-0.1,0.2-0.1,0.4,0,0.5c-0.5,0.3-1,0.5-1.5,0.8c-4.7,2.4-10,3.4-15.1,4.5c-0.6,0.1-0.3,1,0.2,0.9
					c5-1,10-2,14.6-4.2c4.8-2.3,8.9-5.7,13.7-7.8C93.5,131.8,93.1,131,92.5,131.3z"/>
				<path class="st37" d="M34.7,142.4c-0.5-2-0.6-4.1-0.1-6.1c0.1-0.6-0.7-0.8-0.9-0.2c-0.5,2.2-0.5,4.4,0.1,6.6
					C34,143.2,34.8,142.9,34.7,142.4z"/>
				<path class="st37" d="M36.7,142.1c-0.5-1.6-0.8-3.2-0.9-4.8c0-0.6-0.9-0.6-0.9,0c0.1,1.7,0.4,3.4,0.9,5
					C36,142.9,36.9,142.7,36.7,142.1z"/>
				<path class="st37" d="M73.6,140.7c-3.8-1.4-7.7-2.8-11.5-4.2c-1.1-1-2.3-2-3.5-3c-0.4-0.4-1.1,0.3-0.6,0.6
					c0.6,0.5,1.2,1,1.8,1.5c-0.5-0.2-1-0.4-1.5-0.6c-4.7-1.7-9.6-2.9-14.6-2.5c-0.6,0-0.6,0.9,0,0.9c5.3-0.4,10.3,1,15.2,2.8
					c0.9,0.3,1.9,0.7,2.8,1c0.1,0.1,0.1,0.1,0.2,0.2c0.2,0.1,0.3,0.1,0.5,0.1c3.7,1.4,7.4,2.7,11,4.1
					C73.9,141.7,74.2,140.9,73.6,140.7z"/>
			</g>
			<g>
				<g>
					<g>
						<path class="st38" d="M91.3,131.6H47.6V126c0-12.1,9.8-21.9,21.9-21.9h0c12.1,0,21.9,9.8,21.9,21.9V131.6z"/>
					</g>
				</g>
				<g>
					<g>
						<g>
							<path class="st39" d="M48.8,129.8v-7.1c0-9.8,7.9-17.7,17.7-17.7h5.9c9.8,0,17.7,7.9,17.7,17.7v7.1H48.8z"/>
						</g>
					</g>
				</g>
				<g>
					<g>
						<path class="st40" d="M85,110L85,110c0,0.5-0.4,1-0.9,1h-6.3c-0.5,0-0.9-0.4-0.9-1l0,0c0-0.5,0.4-1,0.9-1H84
							C84.5,109,85,109.5,85,110z"/>
					</g>
				</g>
				<path class="st41" d="M90,127.2c-32.8-1.3-37.8-15.3-38.3-22.1H51c-1.2,0-2.3,0.9-2.3,2v22.7H90V127.2z"/>
				<g>
					<g>
						<path class="st42" d="M91.9,131h-45c-0.8,0-1.4,0.6-1.4,1.4v0c0,0.8,0.6,1.4,1.4,1.4h45c0.8,0,1.4-0.6,1.4-1.4l0,0
							C93.3,131.6,92.7,131,91.9,131z"/>
					</g>
				</g>
				<g>
					<g>
						<g>
							<g>
								<path class="st43" d="M90.9,133.3H48.2c-0.4,0-0.7-0.3-0.7-0.7l0,0c0-0.4,0.3-0.7,0.7-0.7h42.7c0.4,0,0.7,0.3,0.7,0.7v0
									C91.7,133,91.3,133.3,90.9,133.3z"/>
							</g>
						</g>
					</g>
				</g>
			</g>
			<path class="st44" d="M75.1,71c-0.9-0.4-1.7-0.7-2.5-0.7c-0.4,0-0.8,0-1.2,0.1c-0.2,0-0.4,0.1-0.6,0.2c-0.2,0.1-0.4,0.1-0.7,0.2
				c0.1-0.2,0.3-0.4,0.5-0.5c0.2-0.1,0.4-0.3,0.6-0.4c0.4-0.2,1-0.3,1.5-0.3c0.5,0,1,0.2,1.4,0.5C74.5,70.2,74.9,70.5,75.1,71z"/>
			<path class="st44" d="M61.7,70.9c0.9-0.4,1.6-0.7,2.4-0.7c0.4,0,0.8,0,1.2,0.1c0.2,0,0.4,0.1,0.6,0.2c0.2,0.1,0.4,0.1,0.7,0.2
				c-0.1-0.2-0.3-0.4-0.5-0.5c-0.2-0.1-0.4-0.3-0.6-0.4c-0.4-0.2-1-0.3-1.5-0.3c-0.5,0-1,0.2-1.4,0.4C62.2,70.2,61.9,70.5,61.7,70.9
				z"/>
			<path class="st44" d="M65.1,72.5c0,0.5-0.3,1-0.7,1c-0.4,0-0.7-0.3-0.8-0.9c0-0.5,0.3-1,0.7-1C64.7,71.6,65,72,65.1,72.5z"/>
			<path class="st44" d="M73.1,72.7c0.1,0.5-0.2,1-0.5,1.1c-0.4,0.1-0.8-0.3-0.9-0.8c-0.1-0.5,0.2-1,0.5-1.1
				C72.7,71.8,73,72.2,73.1,72.7z"/>
		</g>
	</g>
</g>
</svg>
