<?xml version="1.0" encoding="UTF-8"?>
<svg xmlns="http://www.w3.org/2000/svg" viewBox="0 0 64 64" width="512" height="512"><g id="_02-Shield" data-name="02-Shield"><path d="M59,13V26c0,25-27,35-27,35S5,51,5,26V13A10.00362,10.00362,0,0,0,15,3H49A10.00366,10.00366,0,0,0,59,13Z" fill="#eee"/><path d="M49,3H44c0,4.15287,4.48,13,10,13V29c0,15.08807-9.83087,24.705-17.62915,29.965C44.01184,54.92542,59,44.62964,59,26V13A10.00366,10.00366,0,0,1,49,3Z" fill="#e0e0e0"/><path d="M53,17.83V26c0,16.96-15.28,26.3-21,29-5.72-2.7-21-12.04-21-29V17.83A16.01237,16.01237,0,0,0,19.83,9H44.17A16.01226,16.01226,0,0,0,53,17.83Z" fill="#64b5f6"/><path d="M53,17.83V26c0,16.96-15.28,26.3-21,29-.7-.33-1.55-.77-2.5-1.31C36.25,49.88,48,40.87,48,26V19c-4.01-1.62-7.21-5.99-8.83-10h5A16.01226,16.01226,0,0,0,53,17.83Z" fill="#42a5f5"/><path d="M30.70711,39.29289,45,25l-4-4L29,33l-6-6-4,4,8.29289,8.29289A2.41421,2.41421,0,0,0,29,40h0A2.41421,2.41421,0,0,0,30.70711,39.29289Z" fill="#eee"/><path d="M45,25,30.71,39.29a2.41415,2.41415,0,0,1-3.42,0l-2-2a2.41415,2.41415,0,0,0,3.42,0L43,23Z" fill="#e0e0e0"/></g></svg>
