<?xml version="1.0" encoding="utf-8"?>
<!-- Generator: Adobe Illustrator 25.4.1, SVG Export Plug-In . SVG Version: 6.00 Build 0)  -->
<svg version="1.1" id="Layer_1" xmlns="http://www.w3.org/2000/svg" xmlns:xlink="http://www.w3.org/1999/xlink" x="0px" y="0px"
	 viewBox="0 0 688 432" style="enable-background:new 0 0 688 432;" xml:space="preserve">
<style type="text/css">
	.st0{fill:none;}
	.st1{fill:#EEF3FF;}
	.st2{fill:url(#SVGID_1_);}
	.st3{fill:url(#SVGID_00000060710267170569989090000017636828767664626082_);}
	.st4{fill:url(#SVGID_00000003073899626815461610000004683620964003194246_);}
	.st5{fill:url(#SVGID_00000170247439976061546410000004180035688415750063_);}
	.st6{fill:#BCEFDE;}
	.st7{fill:#77C2EE;}
	.st8{fill:#49DDB5;}
	.st9{clip-path:url(#SVGID_00000083068813536498440550000011633706405962926485_);}
	.st10{fill:#B9672B;}
	.st11{fill:#FFCBAF;}
	.st12{fill:#BF3550;}
	.st13{fill:#9B2446;}
	.st14{fill:#4F4649;}
	.st15{fill:#DEE8FD;}
	.st16{fill:#FFFFFF;}
	.st17{fill:#D28570;}
	.st18{fill:#47B89A;}
	.st19{opacity:0.49;fill:#D28570;}
	.st20{opacity:0.51;fill:#49DDB5;}
	.st21{fill:#EAF5FC;}
	.st22{fill:#97CDEE;}
	.st23{opacity:0.27;}
</style>
<pattern  x="-334" y="-89" width="7.6" height="7.6" patternUnits="userSpaceOnUse" id="New_Pattern_Swatch_2" viewBox="0 -7.6 7.6 7.6" style="overflow:visible;">
	<g>
		<rect y="-7.6" class="st0" width="7.6" height="7.6"/>
		<circle class="st1" cx="3.8" cy="-3.8" r="1.7"/>
	</g>
</pattern>
<g>
	<path class="st1" d="M114.7,300.1c4.6,17.7,17.5,33.9,35.3,45.6c8.8,5.8,18.8,10.4,29.6,13.5c13.8,4,28.5,5.5,43.1,5.9
		c15.8,0.5,31.6,0.1,47.4,0c16.4-0.1,32.8-0.3,49.2-0.4c32.8-0.3,65.6-0.6,98.4-0.9c32.6-0.3,65.2-0.6,97.7-0.9
		c0.4,0,0.6-0.3,0.5-0.5c-0.6-1.3,28.4-24.8,32.1-28.2c11.5-10.6,22.7-21.6,28.8-34.7c7.3-15.7,5.7-35.1-9.6-46.8
		c-21.7-16.7-59.2-16.2-55.3-46.9c2.2-17.6,17.5-31.5,24.2-48C553.1,115.9,530.9,66,476,49c-23-7.1-49.2-7-72.6-1
		c-18.4,4.8-31.5,15.1-44.4,25.8c-12.1,10-29.5,26.9-49.7,22c-14-3.3-23.8-12.1-36.9-16.8c-13.9-5-29.7-6.9-44.8-4.9
		c-20.1,2.7-38.6,12.4-48.5,26.2c-18.5,26.1,4,47.2,14.4,71.4c3.7,8.7,4.7,18.8-1.1,26.8c-9.3,12.8-30.8,17-44.5,26.5
		c-8.9,6.2-16.4,13.7-22.1,21.8C114.4,263,110,282,114.7,300.1z"/>
	<g>
		<pattern  id="SVGID_1_" xlink:href="#New_Pattern_Swatch_2" patternTransform="matrix(1 0 0 1 5.071 -6.6057)">
		</pattern>
		<circle class="st2" cx="574.3" cy="81.4" r="62.9"/>
		
			<pattern  id="SVGID_00000165924087542988156260000011712478034685259685_" xlink:href="#New_Pattern_Swatch_2" patternTransform="matrix(1 0 0 1 5.071 -6.6057)">
		</pattern>
		<circle style="fill:url(#SVGID_00000165924087542988156260000011712478034685259685_);" cx="105" cy="322.9" r="62.9"/>
		
			<pattern  id="SVGID_00000080914261940847120420000004989732623411148930_" xlink:href="#New_Pattern_Swatch_2" patternTransform="matrix(1 0 0 1 5.071 -6.6057)">
		</pattern>
		<circle style="fill:url(#SVGID_00000080914261940847120420000004989732623411148930_);" cx="106.8" cy="120.6" r="39.2"/>
		
			<pattern  id="SVGID_00000008145483429629681630000010695184525309062545_" xlink:href="#New_Pattern_Swatch_2" patternTransform="matrix(1 0 0 1 5.071 -6.6057)">
		</pattern>
		<circle style="fill:url(#SVGID_00000008145483429629681630000010695184525309062545_);" cx="578.5" cy="327.4" r="39.2"/>
	</g>
	<g>
		<ellipse transform="matrix(0.973 -0.2309 0.2309 0.973 -38.808 39.268)" class="st1" cx="148.4" cy="185.4" rx="11.6" ry="11.6"/>
		<path class="st1" d="M106.8,204.5c0,3.3,2.7,6,6,6c3.3,0,6-2.7,6-6c0-3.3-2.7-6-6-6C109.5,198.5,106.8,201.2,106.8,204.5z"/>
	</g>
	<g>
		
			<ellipse transform="matrix(0.9735 -0.2286 0.2286 0.9735 -6.3095 72.5833)" class="st1" cx="310.1" cy="63.5" rx="11.6" ry="11.6"/>
		<path class="st1" d="M276.6,43.9c0,3.3,2.7,6,6,6c3.3,0,6-2.7,6-6c0-3.3-2.7-6-6-6C279.3,37.9,276.6,40.6,276.6,43.9z"/>
	</g>
	<g>
		<path class="st1" d="M161.6,98.1c3.2,1,6.6-0.8,7.5-4c1-3.2-0.8-6.6-4-7.5c-3.2-1-6.6,0.8-7.5,4C156.6,93.8,158.4,97.2,161.6,98.1
			z"/>
	</g>
	<g>
		<circle class="st1" cx="479.6" cy="33.5" r="6"/>
	</g>
	<g>
		
			<ellipse transform="matrix(0.3827 -0.9239 0.9239 0.3827 155.874 629.1652)" class="st1" cx="548.7" cy="197.9" rx="11.6" ry="11.6"/>
		<path class="st1" d="M556.3,166.4c0,3.3,2.7,6,6,6c3.3,0,6-2.7,6-6c0-3.3-2.7-6-6-6C559,160.3,556.3,163,556.3,166.4z"/>
		<circle class="st1" cx="573.4" cy="224.7" r="6"/>
	</g>
</g>
<g>
	<g>
		<path class="st6" d="M70.1,264c1.2-0.9,2.6-1.7,4-2.2c0.4-0.2,0.8-0.3,1.2-0.4c0.9-0.3,1.8-0.4,2.7-0.6c0.7-0.1,1.5-0.2,2.2-0.2
			c0.4,0,0.8,0,1.3,0c1.6,0,3.2,0.1,4.9,0.2c2.7,0.3,5.3,0.7,7.9,1.1c5.6,0.8,11.2,1.3,16.7-0.4c0.2-0.1,0.4-0.2,0.6-0.3
			c2.6,4,4.9,8.3,7.1,12.6c3.1,6.1,5.9,12.2,9.1,18.2c3.1,5.9,6.7,11.5,10.6,16.9c4,5.5,22.4,27.1,25.2,30.5
			c2.2,2.7,4.4,5.5,6.5,8.4c-0.2-0.2-0.4-0.3-0.6-0.5c-9.2-7.5-17.9-15.6-26-24.2c-2.4-2.6-4.8-5.2-7.1-7.8c-0.7-0.8-1.8-1-2.7-0.3
			c-0.2,0.1-0.3,0.3-0.4,0.5c-0.4,0.7-0.4,1.6,0.1,2.2c0.8,0.9,1.6,1.8,2.4,2.7c2.2,2.4,4.4,4.8,6.6,7.1c0.2,0.2,0.5,0.5,0.7,0.8
			c10.4,10.8,21.7,20.7,33.7,29.7c0.8,1.4,1.6,2.8,2.4,4.3c0.9,1.7,1.8,3.5,2.6,5.3l1.3-1c0.6-0.5,1.2-1,1.9-1.5
			c-0.8-1.8-1.7-3.6-2.6-5.3c-0.5-1.1-1.1-2.1-1.7-3.1c0-0.5-0.3-1-0.8-1.3l0,0c-4.7-7.8-10.3-15-16.1-21.9c-3-3.5-6-7-9-10.5
			c-2.2-5.8-3.9-11.7-5.3-17.7c-1.9-8.4-3.1-16.9-3.5-25.5c0.6-0.5-0.2-11.5,0-15c0.2-3.9,0.6-7.8,1.1-11.7c0.3-2.4,0.7-4.7,1.1-7.1
			c0.1-0.3,0.1-0.6,0.2-0.9c0.3-1.7,0.7-3.4,1.1-5c0.2-0.8,0.4-1.6,0.6-2.4c1.1-4.4,2.4-8.7,3.9-12.9c0.3-1-0.1-2.1-1.1-2.5
			c-0.1,0-0.2-0.1-0.2-0.1c-0.9-0.2-2,0.2-2.3,1.1c-0.1,0.2-0.1,0.4-0.2,0.6c-2,5.7-3.6,11.5-4.8,17.4c-0.1,0.6-0.3,1.1-0.4,1.7
			c-0.2,1.1-0.4,2.1-0.6,3.2c-0.2,1.3-0.4,2.5-0.6,3.8c-0.7,4.5-1.1,9-1.4,13.5c-1.5-5.1-2.9-10.1-4.2-15.2c-0.3-1.3-0.7-2.7-1-4
			c-0.1-0.4-0.2-0.8-0.3-1.2c-0.3-1.3-0.6-2.6-1-3.8c-0.1-0.4-0.2-0.8-0.3-1.2c-0.5-1.9-0.9-3.8-1.3-5.7c-0.1-0.3-0.2-0.7-0.2-1
			c-0.5-2-0.9-4.1-1.3-6.1c0-0.1-0.1-0.3-0.1-0.4c0-0.2-0.1-0.4-0.2-0.5c-0.4-0.7-1.1-1.2-2-1.1c-1,0.1-1.8,1.1-1.6,2.1c0,0,0,0,0,0
			c0.1,0.3,0.1,0.6,0.2,0.9c0.5,2.4,1,4.8,1.6,7.1c0.1,0.3,0.1,0.6,0.2,1c0.2,1,0.5,2,0.7,3c0.3,1.1,0.5,2.2,0.8,3.3
			c0.1,0.3,0.2,0.7,0.2,1c0.3,1.4,0.7,2.8,1.1,4.2c0.2,0.8,0.4,1.6,0.6,2.4c0.1,0.3,0.1,0.6,0.2,0.8c2.3,9,4.9,17.9,7.7,26.7
			c0.1,4.1,0.3,8.1,0.7,12.2c0.9,9.1,2.7,18.1,5.3,26.9c-3.4-4.1-6.6-8.4-9.6-12.8c-7.7-11.4-12.8-24.1-19.4-36.1
			c-5.1-9.3-11.3-17.9-19.6-24.4c2.2-4.7,2.7-10,1.7-15.1c-0.3-1.4-0.7-2.7-1.2-4c-0.1-0.3-0.2-0.7-0.4-1c-0.4-1.1-1-2.1-1.6-3.1
			c-0.2-0.3-0.4-0.6-0.5-0.8c-0.5-0.8-1.1-1.5-1.7-2.2c-0.7-0.8-1.8-1-2.7-0.3c-0.8,0.6-1,1.9-0.3,2.7c0.3,0.4,0.7,0.8,1,1.2
			c0.2,0.3,0.4,0.6,0.6,0.9c0.8,1.2,1.5,2.5,2,3.8c0.1,0.3,0.2,0.6,0.4,0.9c0.2,0.6,0.4,1.2,0.5,1.8c0.1,0.5,0.2,1,0.3,1.5
			c0,0,0,0.1,0,0.1c0.6,3.7,0.2,7.7-1.3,11.2c-3.7-2.4-7.6-4.4-11.8-5.6c-0.2-0.1-0.3-0.1-0.5-0.1c-0.6-0.2-1.1-0.3-1.7-0.5
			c-0.3-0.1-0.5-0.1-0.8-0.2c-0.4-0.1-0.8-0.2-1.2-0.2c-1.7-0.3-3.5-0.5-5.2-0.6c-0.5,0-1,0-1.5,0c-2,0-3.9,0.2-5.9,0.6
			c-1,0.2-1.8,1.1-1.6,2.2c0.1,1,1.1,1.9,2.2,1.6c1.2-0.2,2.5-0.4,3.7-0.5c1.5-0.1,3-0.1,4.5,0c0.5,0,1.1,0.1,1.7,0.2
			c1.7,0.2,3.3,0.6,5,1.1c5.6,1.7,10.8,4.8,15.3,8.5c4.4,3.6,8,7.8,11.2,12.4c-2.8,0.8-5.8,0.9-8.7,0.8c-4.9-0.3-9.7-1.4-14.6-1.9
			c-0.1,0-0.2,0-0.3,0c-0.6,0-1.1-0.1-1.7-0.1c-1.2-0.1-2.5-0.1-3.7,0c-1.9,0.1-3.8,0.3-5.6,0.8c-0.4,0.1-0.8,0.2-1.2,0.3
			c-2.1,0.7-4,1.6-5.8,3C65.7,262.5,68.1,265.5,70.1,264z"/>
		<g>
			<path class="st6" d="M69.3,324.9c9.4,4.4,13,15,18.5,23c4.3,6.1,10.8,11.7,18.8,10.9c3.5-0.4,6.9-2.1,8.8-5.1
				c2.2-3.3,2.6-7.3,3.7-11c1.1-3.6,3.2-7.5,7.2-8.1c3-0.5,6,0.5,9,0.4c3.3-0.1,6.1-1.7,7.2-4.9c0.2-0.6,0.3-1.1,0.4-1.7
				c0.2-1.1,0.1-2.3-0.1-3.4c0-0.3-0.1-0.6-0.2-0.9c0.2,0,0.5-0.1,0.6-0.3c0.1-0.1,0.1-0.3,0.1-0.4c0,0,0-0.1,0-0.1
				c-2-5.5-5.8-10.2-10.6-13.4c-4.3-2.9-9.4-4.6-14.6-4.7c-5.4-0.1-10.8,1.2-15.8,3.2c-11.3,4.5-21.1,12.3-33,15.6
				C68.7,323.9,68.8,324.7,69.3,324.9z"/>
			<path class="st6" d="M106.8,330.4c-0.8,1.2-1.8,2.4-2.9,3.3c0.2,0.2,0.3,0.4,0.2,0.7c-1.8,6.4-8.2,10.5-14.8,9.4
				c-0.8-0.1-0.7-1.4,0.2-1.3c5.8,1,11.4-2.5,13.2-8c-0.4,0.2-0.8,0.4-1.3,0.6c-1.8,0.6-3.8,0.3-5.6-0.3c-1.5-0.6-2.8-1.5-4.1-2.5
				c-3.4,1.6-7.5,1.7-10.9,0.2c-0.8-0.3-0.3-1.5,0.5-1.2c2.9,1.3,6.3,1.3,9.3,0.1c-2.3-1.8-4.5-3.7-7.4-4.2
				c-0.8-0.1-0.7-1.4,0.2-1.3c3.2,0.6,5.6,2.6,8,4.6c0-2.6-1-5.2-2.9-7c-0.2-0.2-0.1-0.7,0.1-0.9c0.3-0.2,0.7-0.1,0.9,0.1
				c2.3,2.3,3.4,5.5,3.1,8.7c0.6,0.5,1.3,0.9,2,1.3c1.8,1.1,3.9,1.8,6,1.3c0.7-0.2,1.3-0.5,1.9-0.8c0-5.8-2.9-11.3-7.7-14.6
				c-0.7-0.5,0.1-1.5,0.8-1c4.8,3.3,7.8,8.8,8.2,14.6c1-1,1.8-2.1,2.5-3.2c1.4-2,2.8-3.9,4.7-5.5c0.9-0.8,1.9-1.5,2.9-2.2
				c-1-3.4-3.3-6.3-6.4-8c-0.7-0.4-0.3-1.6,0.5-1.2c3.4,1.8,5.9,4.8,7.1,8.5c0.6-0.3,1.2-0.7,1.8-1c2.4-1.1,5-1.8,7.6-2.1
				c-1.9-2.7-4.4-4.8-7.4-6.1c-0.8-0.3-0.3-1.5,0.5-1.2c3.3,1.5,6.2,3.9,8.2,6.9c0.1,0.1,0.1,0.2,0.1,0.3c1.4-0.1,2.9,0,4.3,0.2
				c1,0.1,1.9,0.3,2.9,0.6c-1.1-2.3-2.7-4.4-4.8-6c-0.6-0.5,0.1-1.5,0.8-1c2.5,1.9,4.4,4.5,5.6,7.4c0,0.1,0,0.1,0,0.1
				c3.2,1.1,6.2,2.8,8.7,5c0.6,0.5-0.2,1.6-0.8,1c-2.3-2.1-5-3.6-7.8-4.6c-0.4,3.4-1.8,6.6-3.9,9.2c-0.5,0.6-1.6-0.1-1-0.8
				c2.1-2.5,3.3-5.6,3.7-8.9c-2.2-0.7-4.6-1-6.9-1c0,0,0,0,0,0.1c-0.3,4.4-2.3,8.5-5.5,11.6c-0.6,0.6-1.4-0.4-0.8-1
				c2.9-2.8,4.7-6.6,5-10.6c-2.7,0.2-5.4,0.8-8,2c-1.3,0.6-2.6,1.4-3.8,2.2c0.1,0.1,0.1,0.1,0.2,0.2c1.7,4.9,1.9,10.3,0.3,15.3
				c-1.7,5.4-5.5,10-10.3,12.9c-0.7,0.4-1.5-0.6-0.8-1c4.6-2.7,8.1-7.1,9.8-12.1c1.6-4.7,1.5-9.8-0.2-14.5c-0.4,0.3-0.7,0.6-1.1,0.9
				C109.6,326.3,108.2,328.3,106.8,330.4z"/>
		</g>
		<g>
			<path class="st6" d="M144.1,251.3c0.1,0.1,0.2,0.2,0.3,0.2c0.2,0,0.4-0.1,0.5-0.2c0.1,0.2,0.3,0.3,0.4,0.5
				c0.4,0.5,0.9,0.9,1.4,1.2c0.5,0.4,1.1,0.6,1.7,0.8c2.3,0.8,4.5-0.1,6-1.9c1.3-1.7,2.1-3.8,3.7-5.3c2.2-2.1,5.3-1.5,7.8-0.6
				c2.6,1,5.1,2.5,7.9,2.7c2.6,0.2,5-1,6.8-2.8c4-4.2,3.6-10.4,2-15.5c-2.1-6.7-6.7-13.4-5.1-20.7c0.1-0.3-0.3-0.8-0.7-0.5
				c-7.1,5.4-15.8,7.6-23.4,12.1c-0.4,0.3-0.8,0.5-1.2,0.8c-0.9,0.6-1.7,1.1-2.5,1.8c-1.9,1.5-3.6,3.1-5,5.1
				c-0.5,0.7-0.9,1.4-1.3,2.1c-1.4,2.6-2.2,5.4-2.4,8.3c-0.1,1.9,0.1,3.8,0.5,5.7c0.4,1.7,1,3.4,1.8,4.9
				C143.5,250.4,143.8,250.8,144.1,251.3z"/>
			<path class="st6" d="M164.3,233.6c1,0,2.1,0,3.1-0.2c0,0.2,0.1,0.3,0.3,0.4c4.5,1.8,9.6-0.1,11.9-4.4c0.3-0.5-0.5-1-0.8-0.5
				c-2,3.8-6.4,5.4-10.4,4.1c0.3-0.1,0.6-0.3,0.9-0.5c1.1-0.8,1.9-2,2.2-3.3c0.3-1.1,0.4-2.3,0.4-3.5c2.4-1.2,4.2-3.5,4.9-6.2
				c0.1-0.6-0.8-0.8-0.9-0.3c-0.5,2.3-2,4.2-4,5.4c-0.1-2.1-0.1-4.2,0.8-6.1c0.3-0.5-0.5-1-0.8-0.5c-1.1,2.1-0.9,4.3-0.9,6.6
				c-1.5-1.1-2.5-2.8-2.7-4.7c0-0.2-0.3-0.4-0.6-0.3c-0.3,0.1-0.4,0.3-0.3,0.6c0.3,2.3,1.7,4.4,3.6,5.6c0,0.6,0,1.2-0.1,1.7
				c-0.2,1.5-0.7,3.1-1.9,4.1c-0.4,0.3-0.8,0.6-1.3,0.7c-3.3-2.5-5.2-6.6-5-10.8c0-0.6-0.9-0.6-0.9,0c-0.2,4.2,1.6,8.3,4.8,11.1
				c-1,0.1-2,0.1-3,0c-1.7-0.1-3.5-0.1-5.2,0.3c-0.9,0.2-1.7,0.4-2.5,0.7c-1.5-2.1-2.2-4.7-1.8-7.2c0.1-0.6-0.8-0.8-0.9-0.3
				c-0.4,2.7,0.2,5.5,1.8,7.8c-0.5,0.2-0.9,0.4-1.4,0.6c-1.7,0.9-3.2,2.1-4.6,3.4c-0.7-2.2-0.8-4.6-0.3-6.9c0.1-0.6-0.8-0.8-0.9-0.3
				c-0.6,2.6-0.5,5.3,0.4,7.8c0,0.1,0.1,0.1,0.1,0.2c-0.7,0.8-1.3,1.7-1.8,2.6c-0.3,0.6-0.6,1.2-0.9,1.9c-0.9-1.7-1.3-3.5-1.4-5.4
				c0-0.6-0.9-0.6-0.9,0c0,2.3,0.6,4.5,1.8,6.4c0,0,0,0.1,0.1,0.1c-0.8,2.3-1.1,4.8-0.9,7.2c0.1,0.6,1,0.6,0.9,0
				c-0.2-2.2,0.1-4.4,0.7-6.5c2.1,1.2,4.6,1.9,7,1.8c0.6,0,0.6-0.9,0-0.9c-2.4,0.1-4.7-0.5-6.7-1.8c0.6-1.6,1.4-3.1,2.5-4.4
				c0,0,0,0,0,0c2.6,1.8,5.9,2.4,9,1.9c0.6-0.1,0.4-1-0.2-0.9c-2.9,0.5-5.8-0.2-8.2-1.8c1.3-1.5,2.9-2.7,4.6-3.7
				c0.9-0.5,1.9-0.9,2.9-1.2c0,0.1,0,0.1,0.1,0.2c2.1,3.1,5.1,5.6,8.6,6.8c3.8,1.4,8.1,1.2,11.9-0.3c0.5-0.2,0.3-1.1-0.2-0.9
				c-3.6,1.4-7.6,1.6-11.3,0.3c-3.4-1.1-6.3-3.5-8.2-6.4c0.3-0.1,0.7-0.2,1-0.2C160.7,233.4,162.4,233.5,164.3,233.6z"/>
		</g>
		<g>
			<path class="st6" d="M17.1,298c6.7-3.3,14.4-1.2,21.3,0.2c6.2,1.2,13.2,1.9,18.7-1.8c2.6-1.7,4.2-4.3,5.5-7
				c1.3-2.7,2.5-5.7,4.9-7.7c2.7-2.2,6.2-2.8,9.3-4.2c2.5-1.1,4.6-2.9,6.3-5.1c2.4-3.3,3.6-7.5,3.2-11.6c-0.1-0.9-0.3-1.8-0.5-2.7
				c0.1-0.1,0.2-0.2,0.3-0.4c0.1-0.2,0-0.5-0.2-0.7c0,0-0.1-0.1-0.1-0.1c-0.1-0.1-0.2-0.2-0.2-0.2c-5.4-4.9-12.1-8.3-19.3-9.7
				c-3.2-0.6-6.5-0.9-9.8-0.3c-3.3,0.5-6.3,1.9-8.7,4.3c-1.3,1.3-2.6,2.8-4.2,3.8c-1.5,1-3.3,1.6-5,2.2c-3.2,1-6.3,2.1-9,4.2
				c-2.5,1.9-4.6,4.4-6.2,7.1c-1.6,2.9-2.4,6.1-2.8,9.4c-0.7,6.5,0.1,14-4.4,19.4C15.9,297.5,16.5,298.3,17.1,298z"/>
			<path class="st6" d="M23.7,290.6c1.1-4.9,5-8.3,9.1-10.8c0.5-0.3,1-0.6,1.6-0.9c-2.5-0.6-5.1-0.5-7.6,0.1
				c-0.3,0.1-0.7-0.2-0.7-0.5c-0.1-0.4,0.2-0.6,0.5-0.7c3-0.8,6.1-0.7,9.1,0.2c0.1,0,0.1,0.1,0.2,0.1c1.4-0.8,2.9-1.7,4.2-2.6
				c1.5-1.1,2.9-2.3,4.2-3.6c-4.4-3.3-10-4.5-15.3-3.5c-0.8,0.2-1-1.1-0.2-1.3c5.7-1.1,11.8,0.3,16.4,3.8c0.4-0.4,0.8-0.8,1.2-1.3
				c2-2.1,4-4.2,6.1-6.1c-3.2-3.5-8-5.2-12.7-4.6c-0.8,0.1-1-1.2-0.2-1.3c5.1-0.7,10.3,1.2,13.8,5c1.4-1.2,2.9-2.3,4.5-3.2
				c1.5-0.9,3.1-1.6,4.7-2.2c-3.5-2.4-7.3-4.1-11.5-4.9c-0.8-0.2-0.7-1.4,0.2-1.3c4.5,1,8.8,2.8,12.6,5.5c0.1,0,0.1,0.1,0.2,0.2
				c2.2-0.7,4.4-1.2,6.6-1.5c0.6-0.1,1.2-0.1,1.9-0.2c-1.9-2.8-5-4.6-8.4-4.8c-0.8-0.1-0.7-1.3,0.2-1.3c4,0.3,7.7,2.6,9.7,6
				c4-0.1,8,0.5,11.7,1.7c0.8,0.3,0.3,1.5-0.5,1.2c-1.2-0.4-2.5-0.7-3.7-1c0.1,2.7-0.3,5.3-1.1,7.9c-0.3,0.8-1.5,0.3-1.2-0.5
				c0.8-2.5,1.2-5.1,1-7.7c-2-0.3-4-0.5-6-0.4c1.8,4.6,1.1,10.1-1.8,14.1c-0.5,0.7-1.5-0.1-1-0.8c2.8-3.8,3.4-8.9,1.6-13.2
				c0,0,0,0,0-0.1c-2.7,0.2-5.4,0.7-8,1.5c0,0,0,0,0,0.1c2.1,7.2,2.2,14.9,0.3,22.2c-0.2,0.8-1.4,0.3-1.2-0.5
				c1.8-6.9,1.7-14.3-0.3-21.2c0-0.1,0-0.1,0-0.2c-1.3,0.5-2.6,1-3.8,1.7c-2.2,1.1-4.2,2.6-6.1,4.1c2.9,2.8,4.3,6.8,4.4,10.9
				c0.1,4.3-1.1,8.5-2.4,12.6c-0.2,0.8-1.4,0.3-1.2-0.5c2.1-7,4.5-16.4-1.7-22.1c0,0,0,0,0,0c-1.5,1.4-2.9,2.8-4.3,4.3
				c-0.8,0.9-1.6,1.7-2.5,2.6c2.6,7,1.7,15-2.3,21.2c-0.5,0.7-1.5-0.1-1-0.8c3.7-5.7,4.6-13,2.3-19.4c-0.7,0.7-1.4,1.3-2.1,1.9
				c-2,1.7-4.2,3.1-6.5,4.4c0,0.1,0.1,0.2,0.1,0.3c0,4.5-2.3,8.9-5.9,11.7c-0.7,0.5-1.5-0.5-0.8-1c3.2-2.4,5.2-6.2,5.4-10.2
				c-4.4,2.6-9.1,5.7-10.3,10.9C24.8,291.6,23.5,291.5,23.7,290.6z"/>
		</g>
		<g>
			<path class="st6" d="M15.6,224.3c6.3,1.5,10.2,7.1,14.1,11.9c3.5,4.3,7.8,8.5,13.5,9.1c2.7,0.3,5.2-0.5,7.6-1.6
				c2.4-1.1,4.8-2.4,7.5-2.4c3,0,5.7,1.5,8.5,2.3c2.3,0.6,4.7,0.6,7,0c3.6-0.9,6.8-3.2,8.8-6.4c0.3-0.5,0.7-1.1,0.9-1.7
				c0.1,0,0.2,0,0.3-0.1c0,0,0,0,0,0c0.2-0.1,0.4-0.3,0.3-0.6c0-0.1,0-0.3-0.1-0.4c0-0.3-0.1-0.5-0.1-0.8c-1-6-3.6-11.7-7.4-16.4
				c-1.8-2.2-3.9-4.2-6.4-5.6c-2.5-1.5-5.3-2.2-8.2-1.9c-1.6,0.1-3.3,0.4-4.9,0.3c-1.6-0.1-3.1-0.7-4.5-1.3c-2.7-1.1-5.4-2-8.3-2.2
				c-2.7-0.1-5.5,0.4-8,1.4c-2.7,1.1-5,2.8-7,4.8c-4,4-7.6,9.4-13.6,10.6C15.1,223.3,15.1,224.2,15.6,224.3z"/>
			<path class="st6" d="M24.1,223c3.4-2.7,7.9-2.8,12-2.2c0.5,0.1,1,0.2,1.6,0.2c-1.4-1.8-3.1-3.2-5.1-4.1c-0.3-0.1-0.3-0.5-0.2-0.8
				c0.2-0.3,0.5-0.3,0.8-0.2c2.4,1.1,4.5,2.9,6,5.1c0,0.1,0.1,0.1,0.1,0.2c1.4,0.2,2.8,0.4,4.3,0.5c1.6,0.1,3.2,0.1,4.8-0.1
				c-1.1-4.6-4.2-8.6-8.4-10.8c-0.6-0.3,0-1.3,0.6-0.9c4.5,2.4,7.7,6.7,8.9,11.6c0.5-0.1,1-0.1,1.5-0.2c2.5-0.3,5-0.6,7.5-0.7
				c-0.2-4.1-2.5-7.9-6-10c-0.6-0.4,0-1.3,0.6-0.9c3.8,2.3,6.3,6.5,6.5,11c1.6,0,3.2,0.1,4.8,0.4c1.5,0.2,2.9,0.6,4.3,1.1
				c-1-3.5-2.7-6.8-4.9-9.6c-0.4-0.6,0.4-1.3,0.8-0.8c2.5,3.1,4.3,6.8,5.4,10.6c0,0.1,0,0.1,0,0.2c1.8,0.7,3.6,1.6,5.3,2.6
				c0.5,0.3,0.9,0.6,1.3,0.9c0.3-2.9-0.8-5.9-2.9-7.9c-0.5-0.5,0.3-1.3,0.8-0.8c2.5,2.4,3.7,6,3.1,9.4c2.7,2.1,5.1,4.7,6.9,7.6
				c0.4,0.6-0.6,1.1-1,0.5c-0.6-0.9-1.3-1.8-2-2.7c-1.4,1.8-3.1,3.4-5.1,4.7c-0.6,0.4-1.1-0.6-0.5-1c1.9-1.2,3.6-2.7,4.9-4.6
				c-1.2-1.3-2.4-2.5-3.8-3.6c-1.3,4.1-4.8,7.4-9,8.4c-0.7,0.2-1-0.9-0.3-1.1c3.9-1,7.2-4.1,8.3-8c0,0,0,0,0,0
				c-1.9-1.4-4-2.5-6.2-3.4c0,0,0,0.1,0,0.1c-2.6,6-6.8,11.2-12,15c-0.6,0.4-1.1-0.6-0.5-1c5-3.6,9.1-8.7,11.5-14.4
				c0-0.1,0.1-0.1,0.1-0.1c-1.1-0.4-2.3-0.8-3.5-1c-2.1-0.5-4.2-0.6-6.3-0.6c0.4,3.5-0.9,7-3.1,9.7c-2.3,2.9-5.4,5.1-8.5,7.1
				c-0.6,0.4-1.1-0.6-0.5-1c5.3-3.5,12-8.5,11.1-15.8c0,0,0,0,0,0c-1.8,0.1-3.5,0.3-5.3,0.5c-1,0.1-2.1,0.3-3.1,0.4
				c-2.1,6.1-7.1,11-13.2,12.9c-0.7,0.2-0.9-0.9-0.3-1.1c5.6-1.8,10.2-6.2,12.3-11.7c-0.8,0.1-1.7,0.1-2.5,0.1
				c-2.3,0-4.5-0.3-6.8-0.6c0,0.1-0.1,0.1-0.1,0.2c-2.5,3-6.4,4.7-10.4,4.6c-0.7,0-0.7-1.1,0-1.1c3.5,0.1,6.9-1.3,9.2-3.9
				c-4.3-0.7-9.3-1.2-12.9,1.7C24.3,224.3,23.5,223.5,24.1,223z"/>
		</g>
		<g>
			<path class="st6" d="M83.5,217.5c3.4,4.5,8,8.1,13.2,10.2c0.1,0.1,0.3,0.1,0.4,0.1c0,0,0,0,0.1,0c0.2,0.1,0.4,0,0.5-0.1
				c0.1-0.1,0.1-0.2,0.2-0.3c1.1-0.2,2.1-0.5,3-1c2.6-1.2,4.7-3.2,6-5.7c1-1.9,1.5-4,1.4-6.1c-0.1-2.6-0.8-5.3-0.2-7.9
				c0.6-2.3,2.3-4.2,3.7-6c1.5-1.8,2.7-3.8,3-6.2c0.7-5.1-2.1-9.8-5-13.7c-3.3-4.4-7.4-9-7.3-14.8c0-0.5-0.7-0.7-0.9-0.2
				c-2.2,5-7.7,6.9-12,9.6c-2.2,1.3-4.1,3-5.6,5.1c-1.4,2-2.4,4.3-2.9,6.7c-0.5,2.6-0.3,5.1,0.1,7.7c0.2,1.4,0.4,2.8,0.2,4.2
				c-0.2,1.5-0.8,2.8-1.3,4.2c-0.8,2.5-0.8,5-0.1,7.5C80.7,213.3,82,215.5,83.5,217.5z"/>
			<path class="st6" d="M99.6,173.2c-3.1,2.4-4.1,6.3-4.5,9.9c0,0.5-0.1,0.9-0.1,1.4c-1.2-1.5-2.1-3.4-2.5-5.3
				c-0.1-0.3-0.4-0.4-0.6-0.3c-0.3,0.1-0.4,0.4-0.3,0.6c0.5,2.3,1.6,4.5,3.2,6.3c0,0,0.1,0.1,0.1,0.1c-0.1,1.3-0.2,2.6-0.4,3.8
				c-0.2,1.4-0.6,2.8-1.1,4.1c-3.7-1.9-6.5-5.4-7.6-9.5c-0.2-0.6-1.1-0.3-0.9,0.3c1.1,4.4,4.2,8.1,8.2,10.2
				c-0.2,0.4-0.3,0.9-0.5,1.3c-0.8,2.1-1.6,4.2-2.2,6.3c-3.5-1-6.3-3.8-7.4-7.3c-0.2-0.6-1.1-0.3-0.9,0.3c1.2,3.8,4.3,6.8,8.1,7.9
				c-0.3,1.4-0.6,2.8-0.7,4.2c-0.1,1.3-0.1,2.7,0,4c-2.8-1.6-5.3-3.8-7.3-6.3c-0.4-0.5-1.2,0-0.8,0.5c2.2,2.8,4.9,5.2,8.1,6.9
				c0.1,0,0.1,0,0.2,0.1c0.2,1.7,0.6,3.5,1.2,5.1c0.2,0.5,0.3,0.9,0.5,1.4c-2.6-0.4-4.9-1.9-6.2-4.2c-0.3-0.6-1.1,0-0.8,0.5
				c1.5,2.7,4.4,4.5,7.5,4.7c1.3,2.8,3,5.4,5.2,7.6c0.4,0.5,1.1-0.3,0.7-0.7c-0.7-0.7-1.3-1.5-1.9-2.3c1.9-0.8,3.6-2,5.1-3.4
				c0.5-0.4-0.3-1.1-0.7-0.7c-1.4,1.4-3.1,2.5-5,3.3c-0.9-1.3-1.7-2.6-2.3-4.1c3.8-0.3,7.4-2.6,9.2-6c0.3-0.6-0.6-1-0.9-0.5
				c-1.7,3.2-5.1,5.3-8.7,5.5c0,0,0,0,0,0c-0.8-2-1.4-4-1.7-6.1c0,0,0,0,0.1,0c5.8-1,11.1-3.5,15.6-7.3c0.5-0.4-0.2-1.1-0.7-0.7
				c-4.2,3.6-9.4,6-14.9,6.9c-0.1,0-0.1,0-0.1,0.1c-0.1-1.1-0.2-2.1-0.1-3.2c0-1.9,0.4-3.8,0.8-5.6c3,1.1,6.2,0.7,9-0.6
				c3-1.4,5.5-3.6,8-5.9c0.5-0.4-0.3-1.1-0.7-0.7c-4.2,3.8-9.9,8.6-16,6.2c0,0,0,0,0,0c0.4-1.5,1-3,1.5-4.5c0.3-0.9,0.7-1.7,1-2.6
				c5.7-0.5,11-3.8,14-8.7c0.3-0.5-0.5-1-0.9-0.5c-2.7,4.5-7.5,7.6-12.8,8.2c0.2-0.7,0.5-1.4,0.6-2.1c0.5-2,0.7-4,0.9-6
				c0.1,0,0.1,0,0.2-0.1c3.2-1.5,5.5-4.6,6.2-8c0.1-0.6-0.8-0.8-1-0.2c-0.6,3.1-2.6,5.7-5.3,7.2c0.3-3.9,0.9-8.3,4.2-10.8
				C100.7,173.7,100.1,172.8,99.6,173.2z"/>
		</g>
		<g>
			<path class="st6" d="M120.3,241.5c3.8,3.6,8.5,6.2,13.6,7.6c0.4,0.1,0.8,0.2,1.1,0.3c0.1,0,0.3,0.1,0.4,0.1
				c0.2,0,0.4-0.1,0.5-0.2c0.1-0.1,0.1-0.2,0.1-0.3c0.5-0.2,1-0.4,1.5-0.7c1.5-0.8,2.8-1.9,3.8-3.2c1-1.2,1.8-2.6,2.4-4.1
				c0,0,0-0.1,0-0.1c0.2-0.7,0.4-1.4,0.5-2.2c0,0,0,0,0,0c0.2-1.3,0.2-2.7-0.1-4c-0.2-1.2-0.6-2.3-0.9-3.5c-0.4-1.4-0.7-2.8-0.5-4.2
				c0.2-2.4,1.5-4.5,2.7-6.5c1.1-2.1,2-4.2,2-6.6c-0.2-5.2-3.7-9.3-7.3-12.7c-4-3.8-8.7-7.6-9.7-13.3c-0.1-0.5-0.8-0.5-1-0.1
				c-1.4,5.3-6.5,8.1-10.3,11.4c-1.9,1.7-3.6,3.6-4.7,6c-1.1,2.2-1.7,4.6-1.8,7.1c-0.1,2.6,0.6,5.1,1.4,7.5c0.4,1.3,0.8,2.7,0.9,4.1
				c0,1.5-0.3,2.9-0.6,4.3c-0.4,2.6,0,5.1,1.2,7.4C116.8,237.7,118.5,239.7,120.3,241.5z"/>
			<path class="st6" d="M128.9,195.1c-2.6,2.9-3,6.8-2.8,10.6c0,0.5,0.1,0.9,0.1,1.4c-1.5-1.3-2.6-3-3.3-4.8
				c-0.1-0.2-0.5-0.3-0.7-0.2c-0.3,0.1-0.3,0.4-0.2,0.7c0.9,2.2,2.3,4.2,4.2,5.7c0,0,0.1,0.1,0.2,0.1c0.1,1.3,0.2,2.6,0.2,3.8
				c0,1.4-0.2,2.8-0.4,4.3c-4-1.3-7.3-4.3-9.1-8.1c-0.3-0.6-1.1-0.1-0.9,0.5c1.8,4.1,5.5,7.3,9.8,8.7c-0.1,0.4-0.2,0.9-0.2,1.3
				c-0.4,2.2-0.9,4.4-1.1,6.6c-3.6-0.4-6.9-2.7-8.6-6c-0.3-0.6-1.2-0.1-0.9,0.5c1.8,3.5,5.4,6,9.3,6.5c-0.1,1.4-0.1,2.8,0,4.3
				c0.1,1.3,0.4,2.6,0.7,3.9c-3-1.1-5.9-2.8-8.2-5c-0.5-0.4-1.2,0.2-0.7,0.7c2.6,2.4,5.7,4.3,9.1,5.5c0.1,0,0.1,0,0.2,0
				c0.5,1.7,1.2,3.3,2,4.9c0.2,0.4,0.5,0.8,0.7,1.2c-2.6,0.1-5.2-1.1-6.8-3.1c-0.4-0.5-1.1,0.2-0.7,0.7c2,2.4,5.1,3.7,8.1,3.4
				c1.7,2.6,3.8,4.8,6.3,6.6c0.5,0.4,1.1-0.5,0.5-0.8c-0.8-0.6-1.6-1.2-2.3-1.9c1.7-1.1,3.3-2.6,4.5-4.2c0.4-0.5-0.5-1.1-0.8-0.5
				c-1.2,1.6-2.7,3-4.4,4.1c-1.1-1.1-2.1-2.3-3-3.6c3.7-0.9,6.9-3.8,8.1-7.5c0.2-0.6-0.7-0.9-0.9-0.3c-1.1,3.4-4.1,6.1-7.6,6.9
				c0,0,0,0,0,0c-1.1-1.8-2-3.7-2.6-5.7c0,0,0,0,0.1,0c5.5-1.9,10.4-5.3,14.1-9.8c0.4-0.5-0.4-1-0.8-0.5c-3.6,4.2-8.3,7.5-13.5,9.3
				c0,0-0.1,0-0.1,0.1c-0.3-1-0.5-2.1-0.7-3.2c-0.3-1.9-0.3-3.8-0.1-5.7c3.1,0.6,6.2-0.4,8.8-2.1c2.8-1.9,4.9-4.5,6.9-7.1
				c0.4-0.5-0.4-1-0.8-0.5c-3.5,4.5-8.3,10.2-14.7,8.8c0,0,0,0,0,0c0.2-1.6,0.5-3.1,0.8-4.7c0.2-0.9,0.4-1.8,0.5-2.7
				c5.6-1.5,10.2-5.6,12.3-10.9c0.2-0.6-0.7-0.9-0.9-0.3c-1.9,4.9-6.2,8.7-11.2,10.2c0.1-0.7,0.2-1.5,0.3-2.2c0.2-2,0.1-4.1-0.1-6.1
				c0.1,0,0.1,0,0.2-0.1c2.9-2,4.6-5.4,4.7-8.9c0-0.6-1-0.7-1,0c-0.1,3.1-1.6,6-4,7.9c-0.3-3.9-0.5-8.3,2.3-11.4
				C129.9,195.3,129.3,194.6,128.9,195.1z"/>
		</g>
	</g>
	<g>
		<path class="st6" d="M609.3,264c-1.2-0.9-2.6-1.7-4-2.2c-0.4-0.2-0.8-0.3-1.2-0.4c-0.9-0.3-1.8-0.4-2.7-0.6
			c-0.7-0.1-1.5-0.2-2.2-0.2c-0.4,0-0.8,0-1.3,0c-1.6,0-3.2,0.1-4.9,0.2c-2.7,0.3-5.3,0.7-7.9,1.1c-5.6,0.8-11.2,1.3-16.7-0.4
			c-0.2-0.1-0.4-0.2-0.6-0.3c-2.6,4-4.9,8.3-7.1,12.6c-3.1,6.1-5.9,12.2-9.1,18.2c-3.1,5.9-6.7,11.5-10.6,16.9
			c-4,5.5-22.4,27.1-25.2,30.5c-2.2,2.7-4.4,5.5-6.5,8.4c0.2-0.2,0.4-0.3,0.6-0.5c9.2-7.5,17.9-15.6,26-24.2
			c2.4-2.6,4.8-5.2,7.1-7.8c0.7-0.8,1.8-1,2.7-0.3c0.2,0.1,0.3,0.3,0.4,0.5c0.4,0.7,0.4,1.6-0.1,2.2c-0.8,0.9-1.6,1.8-2.4,2.7
			c-2.2,2.4-4.4,4.8-6.6,7.1c-0.2,0.2-0.5,0.5-0.7,0.8c-10.4,10.8-21.7,20.7-33.7,29.7c-0.8,1.4-1.6,2.8-2.4,4.3
			c-0.9,1.7-1.8,3.5-2.6,5.3l-1.3-1c-0.6-0.5-1.2-1-1.9-1.5c0.8-1.8,1.7-3.6,2.6-5.3c0.5-1.1,1.1-2.1,1.7-3.1c0-0.5,0.3-1,0.8-1.3
			l0,0c4.7-7.8,10.3-15,16.1-21.9c3-3.5,6-7,9-10.5c2.2-5.8,3.9-11.7,5.3-17.7c1.9-8.4,3.1-16.9,3.5-25.5c-0.6-0.5,0.2-11.5,0-15
			c-0.2-3.9-0.6-7.8-1.1-11.7c-0.3-2.4-0.7-4.7-1.1-7.1c-0.1-0.3-0.1-0.6-0.2-0.9c-0.3-1.7-0.7-3.4-1.1-5c-0.2-0.8-0.4-1.6-0.6-2.4
			c-1.1-4.4-2.4-8.7-3.9-12.9c-0.3-1,0.1-2.1,1.1-2.5c0.1,0,0.2-0.1,0.2-0.1c0.9-0.2,2,0.2,2.3,1.1c0.1,0.2,0.1,0.4,0.2,0.6
			c2,5.7,3.6,11.5,4.8,17.4c0.1,0.6,0.3,1.1,0.4,1.7c0.2,1.1,0.4,2.1,0.6,3.2c0.2,1.3,0.4,2.5,0.6,3.8c0.7,4.5,1.1,9,1.4,13.5
			c1.5-5.1,2.9-10.1,4.2-15.2c0.3-1.3,0.7-2.7,1-4c0.1-0.4,0.2-0.8,0.3-1.2c0.3-1.3,0.6-2.6,1-3.8c0.1-0.4,0.2-0.8,0.3-1.2
			c0.5-1.9,0.9-3.8,1.3-5.7c0.1-0.3,0.2-0.7,0.2-1c0.5-2,0.9-4.1,1.3-6.1c0-0.1,0.1-0.3,0.1-0.4c0-0.2,0.1-0.4,0.2-0.5
			c0.4-0.7,1.1-1.2,2-1.1c1,0.1,1.8,1.1,1.6,2.1c0,0,0,0,0,0c-0.1,0.3-0.1,0.6-0.2,0.9c-0.5,2.4-1,4.8-1.6,7.1
			c-0.1,0.3-0.1,0.6-0.2,1c-0.2,1-0.5,2-0.7,3c-0.3,1.1-0.5,2.2-0.8,3.3c-0.1,0.3-0.2,0.7-0.2,1c-0.3,1.4-0.7,2.8-1.1,4.2
			c-0.2,0.8-0.4,1.6-0.6,2.4c-0.1,0.3-0.1,0.6-0.2,0.8c-2.3,9-4.9,17.9-7.7,26.7c-0.1,4.1-0.3,8.1-0.7,12.2
			c-0.9,9.1-2.7,18.1-5.3,26.9c3.4-4.1,6.6-8.4,9.6-12.8c7.7-11.4,12.8-24.1,19.4-36.1c5.1-9.3,11.3-17.9,19.6-24.4
			c-2.2-4.7-2.7-10-1.7-15.1c0.3-1.4,0.7-2.7,1.2-4c0.1-0.3,0.2-0.7,0.4-1c0.4-1.1,1-2.1,1.6-3.1c0.2-0.3,0.4-0.6,0.5-0.8
			c0.5-0.8,1.1-1.5,1.7-2.2c0.7-0.8,1.8-1,2.7-0.3c0.8,0.6,1,1.9,0.3,2.7c-0.3,0.4-0.7,0.8-1,1.2c-0.2,0.3-0.4,0.6-0.6,0.9
			c-0.8,1.2-1.5,2.5-2,3.8c-0.1,0.3-0.2,0.6-0.4,0.9c-0.2,0.6-0.4,1.2-0.5,1.8c-0.1,0.5-0.2,1-0.3,1.5c0,0,0,0.1,0,0.1
			c-0.6,3.7-0.2,7.7,1.3,11.2c3.7-2.4,7.6-4.4,11.8-5.6c0.2-0.1,0.3-0.1,0.5-0.1c0.6-0.2,1.1-0.3,1.7-0.5c0.3-0.1,0.5-0.1,0.8-0.2
			c0.4-0.1,0.8-0.2,1.2-0.2c1.7-0.3,3.5-0.5,5.2-0.6c0.5,0,1,0,1.5,0c2,0,3.9,0.2,5.9,0.6c1,0.2,1.8,1.1,1.6,2.2
			c-0.1,1-1.1,1.9-2.2,1.6c-1.2-0.2-2.5-0.4-3.7-0.5c-1.5-0.1-3-0.1-4.5,0c-0.5,0-1.1,0.1-1.7,0.2c-1.7,0.2-3.3,0.6-5,1.1
			c-5.6,1.7-10.8,4.8-15.3,8.5c-4.4,3.6-8,7.8-11.2,12.4c2.8,0.8,5.8,0.9,8.7,0.8c4.9-0.3,9.7-1.4,14.6-1.9c0.1,0,0.2,0,0.3,0
			c0.6,0,1.1-0.1,1.7-0.1c1.2-0.1,2.5-0.1,3.7,0c1.9,0.1,3.8,0.3,5.6,0.8c0.4,0.1,0.8,0.2,1.2,0.3c2.1,0.7,4,1.6,5.8,3
			C613.6,262.5,611.2,265.5,609.3,264z"/>
		<g>
			<path class="st6" d="M610.1,323.7c-11.8-3.3-21.6-11.1-33-15.6c-5-2-10.3-3.3-15.8-3.2c-5.2,0.1-10.3,1.8-14.6,4.7
				c-4.8,3.2-8.6,7.9-10.6,13.4c0,0,0,0,0,0.1c-0.1,0.2,0,0.3,0.1,0.4c0.1,0.2,0.4,0.4,0.6,0.3c-0.1,0.3-0.1,0.6-0.2,0.9
				c-0.2,1.1-0.3,2.3-0.1,3.4c0.1,0.6,0.2,1.1,0.4,1.7c1.1,3.2,3.9,4.9,7.2,4.9c3,0,6-0.9,9-0.4c4.1,0.7,6.1,4.5,7.2,8.1
				c1.1,3.7,1.5,7.7,3.7,11c2,3,5.3,4.7,8.8,5.1c8,0.9,14.5-4.7,18.8-10.9c5.6-8,9.2-18.6,18.5-23
				C610.5,324.7,610.6,323.9,610.1,323.7z"/>
			<path class="st6" d="M572.6,330.4c0.8,1.2,1.8,2.4,2.9,3.3c-0.2,0.2-0.3,0.4-0.2,0.7c1.8,6.4,8.2,10.5,14.8,9.4
				c0.8-0.1,0.7-1.4-0.2-1.3c-5.8,1-11.4-2.5-13.2-8c0.4,0.2,0.8,0.4,1.3,0.6c1.8,0.6,3.8,0.3,5.6-0.3c1.5-0.6,2.8-1.5,4.1-2.5
				c3.4,1.6,7.5,1.7,10.9,0.2c0.8-0.3,0.3-1.5-0.5-1.2c-2.9,1.3-6.3,1.3-9.3,0.1c2.3-1.8,4.5-3.7,7.4-4.2c0.8-0.1,0.7-1.4-0.2-1.3
				c-3.2,0.6-5.6,2.6-8,4.6c0-2.6,1-5.2,2.9-7c0.2-0.2,0.1-0.7-0.1-0.9c-0.3-0.2-0.7-0.1-0.9,0.1c-2.3,2.3-3.4,5.5-3.1,8.7
				c-0.6,0.5-1.3,0.9-2,1.3c-1.8,1.1-3.9,1.8-6,1.3c-0.7-0.2-1.3-0.5-1.9-0.8c0-5.8,2.9-11.3,7.7-14.6c0.7-0.5-0.1-1.5-0.8-1
				c-4.8,3.3-7.8,8.8-8.2,14.6c-1-1-1.8-2.1-2.5-3.2c-1.4-2-2.8-3.9-4.7-5.5c-0.9-0.8-1.9-1.5-2.9-2.2c1-3.4,3.3-6.3,6.4-8
				c0.7-0.4,0.3-1.6-0.5-1.2c-3.4,1.8-5.9,4.8-7.1,8.5c-0.6-0.3-1.2-0.7-1.8-1c-2.4-1.1-5-1.8-7.6-2.1c1.9-2.7,4.4-4.8,7.4-6.1
				c0.8-0.3,0.3-1.5-0.5-1.2c-3.3,1.5-6.2,3.9-8.2,6.9c-0.1,0.1-0.1,0.2-0.1,0.3c-1.4-0.1-2.9,0-4.3,0.2c-1,0.1-1.9,0.3-2.9,0.6
				c1.1-2.3,2.7-4.4,4.8-6c0.6-0.5-0.1-1.5-0.8-1c-2.5,1.9-4.4,4.5-5.6,7.4c0,0.1,0,0.1,0,0.1c-3.2,1.1-6.2,2.8-8.7,5
				c-0.6,0.5,0.2,1.6,0.8,1c2.3-2.1,5-3.6,7.8-4.6c0.4,3.4,1.8,6.6,3.9,9.2c0.5,0.6,1.6-0.1,1-0.8c-2.1-2.5-3.3-5.6-3.7-8.9
				c2.2-0.7,4.6-1,6.9-1c0,0,0,0,0,0.1c0.3,4.4,2.3,8.5,5.5,11.6c0.6,0.6,1.4-0.4,0.8-1c-2.9-2.8-4.7-6.6-5-10.6
				c2.7,0.2,5.4,0.8,8,2c1.3,0.6,2.6,1.4,3.8,2.2c-0.1,0.1-0.1,0.1-0.2,0.2c-1.7,4.9-1.9,10.3-0.3,15.3c1.7,5.4,5.5,10,10.3,12.9
				c0.7,0.4,1.5-0.6,0.8-1c-4.6-2.7-8.1-7.1-9.8-12.1c-1.6-4.7-1.5-9.8,0.2-14.5c0.4,0.3,0.7,0.6,1.1,0.9
				C569.7,326.3,571.1,328.3,572.6,330.4z"/>
		</g>
		<g>
			<path class="st6" d="M536.1,249.9c0.8-1.5,1.4-3.2,1.8-4.9c0.4-1.9,0.6-3.8,0.5-5.7c-0.2-2.9-1-5.8-2.4-8.3
				c-0.4-0.7-0.8-1.5-1.3-2.1c-1.4-2-3.1-3.6-5-5.1c-0.8-0.6-1.6-1.2-2.5-1.8c-0.4-0.3-0.8-0.5-1.2-0.8c-7.5-4.5-16.3-6.7-23.4-12.1
				c-0.4-0.3-0.8,0.2-0.7,0.5c1.6,7.3-2.9,14-5.1,20.7c-1.6,5.1-2,11.3,2,15.5c1.8,1.9,4.2,3,6.8,2.8c2.8-0.2,5.3-1.7,7.9-2.7
				c2.6-0.9,5.7-1.5,7.8,0.6c1.6,1.5,2.4,3.6,3.7,5.3c1.5,1.9,3.7,2.7,6,1.9c0.6-0.2,1.2-0.5,1.7-0.8c0.5-0.4,1-0.8,1.4-1.2
				c0.2-0.2,0.3-0.3,0.4-0.5c0.1,0.2,0.3,0.2,0.5,0.2c0.1,0,0.2-0.1,0.3-0.2C535.6,250.8,535.8,250.4,536.1,249.9z"/>
			<path class="st6" d="M515.1,233.6c-1,0-2.1,0-3.1-0.2c0,0.2-0.1,0.3-0.3,0.4c-4.5,1.8-9.6-0.1-11.9-4.4c-0.3-0.5,0.5-1,0.8-0.5
				c2,3.8,6.4,5.4,10.4,4.1c-0.3-0.1-0.6-0.3-0.9-0.5c-1.1-0.8-1.9-2-2.2-3.3c-0.3-1.1-0.4-2.3-0.4-3.5c-2.4-1.2-4.2-3.5-4.9-6.2
				c-0.1-0.6,0.8-0.8,0.9-0.3c0.5,2.3,2,4.2,4,5.4c0.1-2.1,0.1-4.2-0.8-6.1c-0.3-0.5,0.5-1,0.8-0.5c1.1,2.1,0.9,4.3,0.9,6.6
				c1.5-1.1,2.5-2.8,2.7-4.7c0-0.2,0.3-0.4,0.6-0.3c0.3,0.1,0.4,0.3,0.3,0.6c-0.3,2.3-1.7,4.4-3.6,5.6c0,0.6,0,1.2,0.1,1.7
				c0.2,1.5,0.7,3.1,1.9,4.1c0.4,0.3,0.8,0.6,1.3,0.7c3.3-2.5,5.2-6.6,5-10.8c0-0.6,0.9-0.6,0.9,0c0.2,4.2-1.6,8.3-4.8,11.1
				c1,0.1,2,0.1,3,0c1.7-0.1,3.5-0.1,5.2,0.3c0.9,0.2,1.7,0.4,2.5,0.7c1.5-2.1,2.2-4.7,1.8-7.2c-0.1-0.6,0.8-0.8,0.9-0.3
				c0.4,2.7-0.2,5.5-1.8,7.8c0.5,0.2,0.9,0.4,1.4,0.6c1.7,0.9,3.2,2.1,4.6,3.4c0.7-2.2,0.8-4.6,0.3-6.9c-0.1-0.6,0.8-0.8,0.9-0.3
				c0.6,2.6,0.5,5.3-0.4,7.8c0,0.1-0.1,0.1-0.1,0.2c0.7,0.8,1.3,1.7,1.8,2.6c0.3,0.6,0.6,1.2,0.9,1.9c0.9-1.7,1.3-3.5,1.4-5.4
				c0-0.6,0.9-0.6,0.9,0c0,2.3-0.6,4.5-1.8,6.4c0,0,0,0.1-0.1,0.1c0.8,2.3,1.1,4.8,0.9,7.2c-0.1,0.6-1,0.6-0.9,0
				c0.2-2.2-0.1-4.4-0.7-6.5c-2.1,1.2-4.6,1.9-7,1.8c-0.6,0-0.6-0.9,0-0.9c2.4,0.1,4.7-0.5,6.7-1.8c-0.6-1.6-1.4-3.1-2.5-4.4
				c0,0,0,0,0,0c-2.6,1.8-5.9,2.4-9,1.9c-0.6-0.1-0.4-1,0.2-0.9c2.9,0.5,5.8-0.2,8.2-1.8c-1.3-1.5-2.9-2.7-4.6-3.7
				c-0.9-0.5-1.9-0.9-2.9-1.2c0,0.1,0,0.1-0.1,0.2c-2.1,3.1-5.1,5.6-8.6,6.8c-3.8,1.4-8.1,1.2-11.9-0.3c-0.5-0.2-0.3-1.1,0.2-0.9
				c3.6,1.4,7.6,1.6,11.3,0.3c3.4-1.1,6.3-3.5,8.2-6.4c-0.3-0.1-0.7-0.2-1-0.2C518.7,233.4,516.9,233.5,515.1,233.6z"/>
		</g>
		<g>
			<path class="st6" d="M663,297c-4.5-5.4-3.7-12.9-4.4-19.4c-0.3-3.3-1.1-6.5-2.8-9.4c-1.5-2.8-3.6-5.2-6.2-7.1
				c-2.7-2.1-5.8-3.2-9-4.2c-1.7-0.5-3.5-1.1-5-2.2c-1.6-1.1-2.8-2.5-4.2-3.8c-2.4-2.3-5.4-3.8-8.7-4.3c-3.2-0.5-6.6-0.3-9.8,0.3
				c-7.2,1.4-13.9,4.8-19.3,9.7c-0.1,0.1-0.2,0.1-0.2,0.2c0,0-0.1,0.1-0.1,0.1c-0.2,0.2-0.2,0.5-0.2,0.7c0,0.1,0.1,0.3,0.3,0.4
				c-0.2,0.9-0.4,1.8-0.5,2.7c-0.4,4.1,0.8,8.2,3.2,11.6c1.6,2.2,3.8,4,6.3,5.1c3.1,1.4,6.6,2,9.3,4.2c2.4,2,3.6,5,4.9,7.7
				c1.3,2.7,2.9,5.3,5.5,7c5.6,3.7,12.5,3,18.7,1.8c6.9-1.4,14.6-3.5,21.3-0.2C662.8,298.3,663.4,297.5,663,297z"/>
			<path class="st6" d="M655.6,290.6c-1.1-4.9-5-8.3-9.1-10.8c-0.5-0.3-1-0.6-1.6-0.9c2.5-0.6,5.1-0.5,7.6,0.1
				c0.3,0.1,0.7-0.2,0.7-0.5c0.1-0.4-0.2-0.6-0.5-0.7c-3-0.8-6.1-0.7-9.1,0.2c-0.1,0-0.1,0.1-0.2,0.1c-1.4-0.8-2.9-1.7-4.2-2.6
				c-1.5-1.1-2.9-2.3-4.2-3.6c4.4-3.3,10-4.5,15.3-3.5c0.8,0.2,1-1.1,0.2-1.3c-5.7-1.1-11.8,0.3-16.4,3.8c-0.4-0.4-0.8-0.8-1.2-1.3
				c-2-2.1-4-4.2-6.1-6.1c3.2-3.5,8-5.2,12.7-4.6c0.8,0.1,1-1.2,0.2-1.3c-5.1-0.7-10.3,1.2-13.8,5c-1.4-1.2-2.9-2.3-4.5-3.2
				c-1.5-0.9-3.1-1.6-4.7-2.2c3.5-2.4,7.3-4.1,11.5-4.9c0.8-0.2,0.7-1.4-0.2-1.3c-4.5,1-8.8,2.8-12.6,5.5c-0.1,0-0.1,0.1-0.2,0.2
				c-2.2-0.7-4.4-1.2-6.6-1.5c-0.6-0.1-1.2-0.1-1.9-0.2c1.9-2.8,5-4.6,8.4-4.8c0.8-0.1,0.7-1.3-0.2-1.3c-4,0.3-7.7,2.6-9.7,6
				c-4-0.1-8,0.5-11.7,1.7c-0.8,0.3-0.3,1.5,0.5,1.2c1.2-0.4,2.5-0.7,3.7-1c-0.1,2.7,0.3,5.3,1.1,7.9c0.3,0.8,1.5,0.3,1.2-0.5
				c-0.8-2.5-1.2-5.1-1-7.7c2-0.3,4-0.5,6-0.4c-1.8,4.6-1.1,10.1,1.8,14.1c0.5,0.7,1.5-0.1,1-0.8c-2.8-3.8-3.4-8.9-1.6-13.2
				c0,0,0,0,0-0.1c2.7,0.2,5.4,0.7,8,1.5c0,0,0,0,0,0.1c-2.1,7.2-2.2,14.9-0.3,22.2c0.2,0.8,1.4,0.3,1.2-0.5
				c-1.8-6.9-1.7-14.3,0.3-21.2c0-0.1,0-0.1,0-0.2c1.3,0.5,2.6,1,3.8,1.7c2.2,1.1,4.2,2.6,6.1,4.1c-2.9,2.8-4.3,6.8-4.4,10.9
				c-0.1,4.3,1.1,8.5,2.4,12.6c0.2,0.8,1.4,0.3,1.2-0.5c-2.1-7-4.5-16.4,1.7-22.1c0,0,0,0,0,0c1.5,1.4,2.9,2.8,4.3,4.3
				c0.8,0.9,1.6,1.7,2.5,2.6c-2.6,7-1.7,15,2.3,21.2c0.5,0.7,1.5-0.1,1-0.8c-3.7-5.7-4.6-13-2.3-19.4c0.7,0.7,1.4,1.3,2.1,1.9
				c2,1.7,4.2,3.1,6.5,4.4c0,0.1-0.1,0.2-0.1,0.3c0,4.5,2.3,8.9,5.9,11.7c0.7,0.5,1.5-0.5,0.8-1c-3.2-2.4-5.2-6.2-5.4-10.2
				c4.4,2.6,9.1,5.7,10.3,10.9C654.5,291.6,655.8,291.5,655.6,290.6z"/>
		</g>
		<g>
			<path class="st6" d="M663.7,223.2c-6-1.1-9.6-6.6-13.6-10.6c-2.1-2-4.4-3.7-7-4.8c-2.5-1-5.3-1.5-8-1.4c-3,0.1-5.6,1.1-8.3,2.2
				c-1.5,0.6-3,1.2-4.5,1.3c-1.6,0.2-3.3-0.1-4.9-0.3c-2.9-0.2-5.7,0.4-8.2,1.9c-2.5,1.4-4.6,3.4-6.4,5.6
				c-3.9,4.7-6.5,10.4-7.4,16.4c-0.1,0.3-0.1,0.5-0.1,0.8c0,0.1,0,0.3-0.1,0.4c0,0.3,0.1,0.5,0.3,0.6c0,0,0,0,0,0
				c0.1,0.1,0.2,0.1,0.3,0.1c0.3,0.6,0.6,1.2,0.9,1.7c2,3.1,5.2,5.4,8.8,6.4c2.3,0.6,4.7,0.6,7,0c2.8-0.8,5.5-2.3,8.5-2.3
				c2.7,0,5.2,1.4,7.5,2.4c2.4,1.1,4.9,1.9,7.6,1.6c5.7-0.6,10.1-4.9,13.5-9.1c3.9-4.7,7.8-10.4,14.1-11.9
				C664.2,224.2,664.2,223.3,663.7,223.2z"/>
			<path class="st6" d="M655.2,223c-3.4-2.7-7.9-2.8-12-2.2c-0.5,0.1-1,0.2-1.6,0.2c1.4-1.8,3.1-3.2,5.1-4.1
				c0.3-0.1,0.3-0.5,0.2-0.8c-0.2-0.3-0.5-0.3-0.8-0.2c-2.4,1.1-4.5,2.9-6,5.1c0,0.1-0.1,0.1-0.1,0.2c-1.4,0.2-2.8,0.4-4.3,0.5
				c-1.6,0.1-3.2,0.1-4.8-0.1c1.1-4.6,4.2-8.6,8.4-10.8c0.6-0.3,0-1.3-0.6-0.9c-4.5,2.4-7.7,6.7-8.9,11.6c-0.5-0.1-1-0.1-1.5-0.2
				c-2.5-0.3-5-0.6-7.5-0.7c0.2-4.1,2.5-7.9,6-10c0.6-0.4,0-1.3-0.6-0.9c-3.8,2.3-6.3,6.5-6.5,11c-1.6,0-3.2,0.1-4.8,0.4
				c-1.5,0.2-2.9,0.6-4.3,1.1c1-3.5,2.7-6.8,4.9-9.6c0.4-0.6-0.4-1.3-0.8-0.8c-2.5,3.1-4.3,6.8-5.4,10.6c0,0.1,0,0.1,0,0.2
				c-1.8,0.7-3.6,1.6-5.3,2.6c-0.5,0.3-0.9,0.6-1.3,0.9c-0.3-2.9,0.8-5.9,2.9-7.9c0.5-0.5-0.3-1.3-0.8-0.8c-2.5,2.4-3.7,6-3.1,9.4
				c-2.7,2.1-5.1,4.7-6.9,7.6c-0.4,0.6,0.6,1.1,1,0.5c0.6-0.9,1.3-1.8,2-2.7c1.4,1.8,3.1,3.4,5.1,4.7c0.6,0.4,1.1-0.6,0.5-1
				c-1.9-1.2-3.6-2.7-4.9-4.6c1.2-1.3,2.4-2.5,3.8-3.6c1.3,4.1,4.8,7.4,9,8.4c0.7,0.2,1-0.9,0.3-1.1c-3.9-1-7.2-4.1-8.3-8
				c0,0,0,0,0,0c1.9-1.4,4-2.5,6.2-3.4c0,0,0,0.1,0,0.1c2.6,6,6.8,11.2,12,15c0.6,0.4,1.1-0.6,0.5-1c-5-3.6-9.1-8.7-11.5-14.4
				c0-0.1-0.1-0.1-0.1-0.1c1.1-0.4,2.3-0.8,3.5-1c2.1-0.5,4.2-0.6,6.3-0.6c-0.4,3.5,0.9,7,3.1,9.7c2.3,2.9,5.4,5.1,8.5,7.1
				c0.6,0.4,1.1-0.6,0.5-1c-5.3-3.5-12-8.5-11.1-15.8c0,0,0,0,0,0c1.8,0.1,3.5,0.3,5.3,0.5c1,0.1,2.1,0.3,3.1,0.4
				c2.1,6.1,7.1,11,13.2,12.9c0.7,0.2,0.9-0.9,0.3-1.1c-5.6-1.8-10.2-6.2-12.3-11.7c0.8,0.1,1.7,0.1,2.5,0.1c2.3,0,4.5-0.3,6.8-0.6
				c0,0.1,0.1,0.1,0.1,0.2c2.5,3,6.4,4.7,10.4,4.6c0.7,0,0.7-1.1,0-1.1c-3.5,0.1-6.9-1.3-9.2-3.9c4.3-0.7,9.3-1.2,12.9,1.7
				C655,224.3,655.8,223.5,655.2,223z"/>
		</g>
		<g>
			<path class="st6" d="M599.4,210.8c0.7-2.5,0.7-5-0.1-7.5c-0.5-1.4-1.1-2.7-1.3-4.2c-0.2-1.4,0-2.8,0.2-4.2
				c0.4-2.6,0.6-5.1,0.1-7.7c-0.5-2.4-1.5-4.7-2.9-6.7c-1.5-2.1-3.4-3.7-5.6-5.1c-4.3-2.7-9.8-4.6-12-9.6c-0.2-0.4-0.9-0.3-0.9,0.2
				c0,5.8-4,10.4-7.3,14.8c-2.9,3.9-5.7,8.6-5,13.7c0.3,2.4,1.6,4.4,3,6.2c1.5,1.8,3.2,3.7,3.7,6c0.6,2.6-0.1,5.3-0.2,7.9
				c0,2.1,0.4,4.2,1.4,6.1c1.3,2.5,3.5,4.5,6,5.7c0.9,0.5,1.9,0.8,3,1c0,0.1,0.1,0.2,0.2,0.3c0.1,0.1,0.3,0.2,0.5,0.1c0,0,0,0,0.1,0
				c0.1-0.1,0.3-0.1,0.4-0.1c5.2-2.1,9.9-5.6,13.2-10.2C597.4,215.5,598.7,213.3,599.4,210.8z"/>
			<path class="st6" d="M579.7,173.2c3.1,2.4,4.1,6.3,4.5,9.9c0,0.5,0.1,0.9,0.1,1.4c1.2-1.5,2.1-3.4,2.5-5.3
				c0.1-0.3,0.4-0.4,0.6-0.3c0.3,0.1,0.4,0.4,0.3,0.6c-0.5,2.3-1.6,4.5-3.2,6.3c0,0-0.1,0.1-0.1,0.1c0.1,1.3,0.2,2.6,0.4,3.8
				c0.2,1.4,0.6,2.8,1.1,4.1c3.7-1.9,6.5-5.4,7.6-9.5c0.2-0.6,1.1-0.3,0.9,0.3c-1.1,4.4-4.2,8.1-8.2,10.2c0.2,0.4,0.3,0.9,0.5,1.3
				c0.8,2.1,1.6,4.2,2.2,6.3c3.5-1,6.3-3.8,7.4-7.3c0.2-0.6,1.1-0.3,0.9,0.3c-1.2,3.8-4.3,6.8-8.1,7.9c0.3,1.4,0.6,2.8,0.7,4.2
				c0.1,1.3,0.1,2.7,0,4c2.8-1.6,5.3-3.8,7.3-6.3c0.4-0.5,1.2,0,0.8,0.5c-2.2,2.8-4.9,5.2-8.1,6.9c-0.1,0-0.1,0-0.2,0.1
				c-0.2,1.7-0.6,3.5-1.2,5.1c-0.2,0.5-0.3,0.9-0.5,1.4c2.6-0.4,4.9-1.9,6.2-4.2c0.3-0.6,1.1,0,0.8,0.5c-1.5,2.7-4.4,4.5-7.5,4.7
				c-1.3,2.8-3,5.4-5.2,7.6c-0.4,0.5-1.1-0.3-0.7-0.7c0.7-0.7,1.3-1.5,1.9-2.3c-1.9-0.8-3.6-2-5.1-3.4c-0.5-0.4,0.3-1.1,0.7-0.7
				c1.4,1.4,3.1,2.5,5,3.3c0.9-1.3,1.7-2.6,2.3-4.1c-3.8-0.3-7.4-2.6-9.2-6c-0.3-0.6,0.6-1,0.9-0.5c1.7,3.2,5.1,5.3,8.7,5.5
				c0,0,0,0,0,0c0.8-2,1.4-4,1.7-6.1c0,0,0,0-0.1,0c-5.8-1-11.1-3.5-15.6-7.3c-0.5-0.4,0.2-1.1,0.7-0.7c4.2,3.6,9.4,6,14.9,6.9
				c0.1,0,0.1,0,0.1,0.1c0.1-1.1,0.2-2.1,0.1-3.2c0-1.9-0.4-3.8-0.8-5.6c-3,1.1-6.2,0.7-9-0.6c-3-1.4-5.5-3.6-8-5.9
				c-0.5-0.4,0.3-1.1,0.7-0.7c4.2,3.8,9.9,8.6,16,6.2c0,0,0,0,0,0c-0.4-1.5-1-3-1.5-4.5c-0.3-0.9-0.7-1.7-1-2.6
				c-5.7-0.5-11-3.8-14-8.7c-0.3-0.5,0.5-1,0.9-0.5c2.7,4.5,7.5,7.6,12.8,8.2c-0.2-0.7-0.5-1.4-0.6-2.1c-0.5-2-0.7-4-0.9-6
				c-0.1,0-0.1,0-0.2-0.1c-3.2-1.5-5.5-4.6-6.2-8c-0.1-0.6,0.8-0.8,1-0.2c0.6,3.1,2.6,5.7,5.3,7.2c-0.3-3.9-0.9-8.3-4.2-10.8
				C578.7,173.7,579.2,172.8,579.7,173.2z"/>
		</g>
		<g>
			<path class="st6" d="M563.6,235.5c1.2-2.3,1.6-4.8,1.2-7.4c-0.2-1.4-0.6-2.9-0.6-4.3c0-1.4,0.4-2.8,0.9-4.1
				c0.8-2.5,1.5-4.9,1.4-7.5c-0.1-2.4-0.7-4.9-1.8-7.1c-1.1-2.3-2.8-4.3-4.7-6c-3.8-3.3-8.9-6.2-10.3-11.4c-0.1-0.5-0.9-0.4-1,0.1
				c-0.9,5.7-5.7,9.6-9.7,13.3c-3.6,3.4-7.1,7.5-7.3,12.7c-0.1,2.4,0.8,4.6,2,6.6c1.1,2.1,2.5,4.2,2.7,6.5c0.1,1.4-0.2,2.8-0.5,4.2
				c-0.3,1.2-0.7,2.3-0.9,3.5c-0.3,1.3-0.3,2.7-0.1,4c0,0,0,0,0,0c0.1,0.7,0.3,1.5,0.5,2.2c0,0,0,0.1,0,0.1c0.5,1.5,1.3,2.9,2.4,4.1
				c1.1,1.3,2.4,2.4,3.8,3.2c0.5,0.3,1,0.5,1.5,0.7c0,0.1,0.1,0.2,0.1,0.3c0.1,0.1,0.3,0.2,0.5,0.2c0.1,0,0.3-0.1,0.4-0.1
				c0.4-0.1,0.8-0.2,1.1-0.3c5.1-1.3,9.8-3.9,13.6-7.6C560.9,239.7,562.5,237.7,563.6,235.5z"/>
			<path class="st6" d="M550.5,195.1c2.6,2.9,3,6.8,2.8,10.6c0,0.5-0.1,0.9-0.1,1.4c1.5-1.3,2.6-3,3.3-4.8c0.1-0.2,0.5-0.3,0.7-0.2
				c0.3,0.1,0.3,0.4,0.2,0.7c-0.9,2.2-2.3,4.2-4.2,5.7c0,0-0.1,0.1-0.2,0.1c-0.1,1.3-0.2,2.6-0.2,3.8c0,1.4,0.2,2.8,0.4,4.3
				c4-1.3,7.3-4.3,9.1-8.1c0.3-0.6,1.1-0.1,0.9,0.5c-1.8,4.1-5.5,7.3-9.8,8.7c0.1,0.4,0.2,0.9,0.2,1.3c0.4,2.2,0.9,4.4,1.1,6.6
				c3.6-0.4,6.9-2.7,8.6-6c0.3-0.6,1.2-0.1,0.9,0.5c-1.8,3.5-5.4,6-9.3,6.5c0.1,1.4,0.1,2.8,0,4.3c-0.1,1.3-0.4,2.6-0.7,3.9
				c3-1.1,5.9-2.8,8.2-5c0.5-0.4,1.2,0.2,0.7,0.7c-2.6,2.4-5.7,4.3-9.1,5.5c-0.1,0-0.1,0-0.2,0c-0.5,1.7-1.2,3.3-2,4.9
				c-0.2,0.4-0.5,0.8-0.7,1.2c2.6,0.1,5.2-1.1,6.8-3.1c0.4-0.5,1.1,0.2,0.7,0.7c-2,2.4-5.1,3.7-8.1,3.4c-1.7,2.6-3.8,4.8-6.3,6.6
				c-0.5,0.4-1.1-0.5-0.5-0.8c0.8-0.6,1.6-1.2,2.3-1.9c-1.7-1.1-3.3-2.6-4.5-4.2c-0.4-0.5,0.5-1.1,0.8-0.5c1.2,1.6,2.7,3,4.4,4.1
				c1.1-1.1,2.1-2.3,3-3.6c-3.7-0.9-6.9-3.8-8.1-7.5c-0.2-0.6,0.7-0.9,0.9-0.3c1.1,3.4,4.1,6.1,7.6,6.9c0,0,0,0,0,0
				c1.1-1.8,2-3.7,2.6-5.7c0,0,0,0-0.1,0c-5.5-1.9-10.4-5.3-14.1-9.8c-0.4-0.5,0.4-1,0.8-0.5c3.6,4.2,8.3,7.5,13.5,9.3
				c0,0,0.1,0,0.1,0.1c0.3-1,0.5-2.1,0.7-3.2c0.3-1.9,0.3-3.8,0.1-5.7c-3.1,0.6-6.2-0.4-8.8-2.1c-2.8-1.9-4.9-4.5-6.9-7.1
				c-0.4-0.5,0.4-1,0.8-0.5c3.5,4.5,8.3,10.2,14.7,8.8c0,0,0,0,0,0c-0.2-1.6-0.5-3.1-0.8-4.7c-0.2-0.9-0.4-1.8-0.5-2.7
				c-5.6-1.5-10.2-5.6-12.3-10.9c-0.2-0.6,0.7-0.9,0.9-0.3c1.9,4.9,6.2,8.7,11.2,10.2c-0.1-0.7-0.2-1.5-0.3-2.2
				c-0.2-2-0.1-4.1,0.1-6.1c-0.1,0-0.1,0-0.2-0.1c-2.9-2-4.6-5.4-4.7-8.9c0-0.6,1-0.7,1,0c0.1,3.1,1.6,6,4,7.9
				c0.3-3.9,0.5-8.3-2.3-11.4C549.4,195.3,550.1,194.6,550.5,195.1z"/>
		</g>
	</g>
</g>
<g>
	<path class="st7" d="M556.9,367.6H122.4c-1.2,0-2.1-1-2.1-2.1v0c0-1.2,1-2.1,2.1-2.1h434.5c1.2,0,2.1,1,2.1,2.1v0
		C559.1,366.6,558.1,367.6,556.9,367.6z"/>
	<g>
		<path class="st8" d="M233,383v7.4h-8v22.5h-9.4v-22.5h-7.9V383H233z"/>
		<path class="st8" d="M263.2,383v30h-9.4v-11.7h-8.9v11.7h-9.4v-30h9.4v10.8h8.9V383H263.2z"/>
		<path class="st8" d="M286.7,408.4h-10l-1.5,4.5h-9.9l11-30h10.8l10.9,30h-9.9L286.7,408.4z M284.4,401.3l-2.7-8.3l-2.7,8.3H284.4z
			"/>
		<path class="st8" d="M328.9,412.9h-9.4l-9.9-15.1v15.1h-9.4v-30h9.4l9.9,15.3V383h9.4V412.9z"/>
		<path class="st8" d="M351.2,412.9l-8.7-13v13h-9.4v-30h9.4v12.6l8.6-12.6h10.6l-10.3,14.3l11,15.6H351.2z"/>
		<path class="st8" d="M401,383l-10.7,20.9v9.1h-9.4v-9.1L370.1,383h10.7l4.8,10.6l4.8-10.6H401z"/>
		<path class="st8" d="M410,411.2c-2.4-1.3-4.2-3.2-5.6-5.5c-1.4-2.3-2.1-5-2.1-7.9c0-2.9,0.7-5.6,2.1-7.9c1.4-2.3,3.2-4.2,5.6-5.5
			c2.4-1.3,4.9-2,7.8-2s5.4,0.7,7.7,2c2.3,1.3,4.2,3.1,5.6,5.5c1.4,2.3,2.1,5,2.1,7.9c0,2.9-0.7,5.6-2.1,7.9
			c-1.4,2.3-3.2,4.2-5.6,5.5c-2.4,1.3-4.9,2-7.7,2C414.9,413.2,412.3,412.5,410,411.2z M422.1,402.7c1-1.2,1.5-2.8,1.5-4.8
			c0-2.1-0.5-3.7-1.5-4.9c-1-1.2-2.5-1.8-4.3-1.8c-1.9,0-3.3,0.6-4.4,1.8c-1,1.2-1.5,2.8-1.5,4.9c0,2,0.5,3.6,1.5,4.8
			c1,1.2,2.5,1.8,4.4,1.8C419.6,404.5,421,403.9,422.1,402.7z"/>
		<path class="st8" d="M445.7,383v16.9c0,1.4,0.3,2.5,0.9,3.3c0.6,0.8,1.6,1.2,2.9,1.2c1.4,0,2.4-0.4,3-1.2c0.6-0.8,1-1.9,1-3.3V383
			h9.3v16.9c0,2.8-0.6,5.3-1.8,7.3c-1.2,2-2.8,3.5-4.9,4.5c-2.1,1-4.4,1.5-6.9,1.5c-2.5,0-4.8-0.5-6.7-1.5c-2-1-3.5-2.5-4.6-4.5
			c-1.1-2-1.7-4.4-1.7-7.3V383H445.7z"/>
	</g>
	<g>
		<defs>
			
				<rect id="SVGID_00000135657461305208184830000001312684978789132957_" x="46.6" y="69.4" transform="matrix(-1 -1.224647e-16 1.224647e-16 -1 679.3333 433.3496)" width="586.2" height="294.5"/>
		</defs>
		<clipPath id="SVGID_00000069392008401196124530000008332468475783131010_">
			<use xlink:href="#SVGID_00000135657461305208184830000001312684978789132957_"  style="overflow:visible;"/>
		</clipPath>
		<g style="clip-path:url(#SVGID_00000069392008401196124530000008332468475783131010_);">
			<g>
				<path class="st10" d="M165.4,129.5c1.7-7.3,8.3-13.2,15.7-14.1c7.4-0.9,15.3,3.2,18.7,9.8l2.8-0.6c3.7,6.8,2.6,15.9-2.4,21.8
					c-5.1,5.9-13.8,8.3-21.2,6C169.7,149.6,163.2,139,165.4,129.5z"/>
			</g>
			<g>
				<g>
					<path class="st11" d="M243.8,209.1l0.2,40.2l3.5,43.2l10.1,124.8c0,0,9.4,10.4,15,3L268,287l-1.4-39.2
						c-0.5-7.4-2-14.7-4.9-21.5C257.8,216.8,252.1,210.5,243.8,209.1z"/>
					<path class="st7" d="M273,417l1.8,28.5c0.2,2.5-1,4.8-3.1,6.5l-11.9,9.3c-1,0.8-2.7,0.2-2.8-1c-0.1-2.6,1.3-7,9.3-12.6
						l-0.4-12.9c0,0-0.3,13.3-2.9,13.7c0,0-4.3,1.6-2.9-14.3c0,0-2.7-8.8,2.8-13.9l-8.7-28.9l20.6-0.8L273,417z"/>
				</g>
				<path class="st12" d="M243.8,209.1l0.2,40.2l3.5,43.2c6.8-1.8,13.5-3.7,20.3-5.5c0.1,0,0.1,0,0.2-0.1l-1.4-39.2
					c-0.5-7.4-2-14.7-4.9-21.5C257.8,216.8,252.1,210.5,243.8,209.1z"/>
			</g>
			<path class="st13" d="M260.3,464.9l-6.6,81.6l-21.6,126.4c0.3,0.7,0.6,1.5,0.9,2.2h-14.3c0.8-0.4,1.4-0.3,1.4-0.3
				c-4.4-53.9-7.4-104.4,0-129.3L216.9,389h-12.7l-32,151.5c-4.7,41.3-20.5,90.3-44.1,134.3c0.5,0,1,0.1,1.4,0.3h-16.3l1-1.5
				L144,536.7l14.6-139.6c5.1-58.8,27.2-91.7,27.2-91.7h60.2l5.4,25.3C261,374.7,263.9,419.9,260.3,464.9z"/>
			<path class="st12" d="M174.4,220.8l8,76.4l-15.8,54.8c34.8,13.1,64.4,13,87.5-3.6l-7.8-46.9l6.1-38.5l4.9-10
				c2.1-4.4,2.5-9.4,0.9-13.9l-9.6-27.7c-4.5-2.8-9.6-4.9-15.3-6.3c-1.5-0.4-2.9-0.7-4.3-0.9c0,0,0,0,0,0
				c-12.7-2.4-24.2-0.9-37.1,2.5c-3.3,0.9-6.7,1.9-10.3,3C176.8,210.9,173.7,215.7,174.4,220.8z"/>
			<path class="st13" d="M191.9,206.5c1.4,2.2,2.9,4.4,4.6,6.4c9.8,12.5,23.6,21.8,38.8,26.2c0.4,0.1,0.8-0.1,0.9-0.5
				c1.2-3.2,1.9-6.6,2.1-10c0.5-9.2-3.1-18.1-9.3-24.6c0,0,0,0,0,0C216.3,201.6,204.8,203.1,191.9,206.5z"/>
			<g>
				<path class="st11" d="M221.5,203l0.1-4l0-0.5l-0.1-9.9l-20.3-2.2l0.3,8.1c0.1,1.5,0.1,3,0.3,4.5c0,0.4,0,2,0,3.9
					c0,0.4,0,0.9,0.1,1.3c-3,4.6,21.1,28.3,29.5,28.2C233.5,229.6,228.4,205.8,221.5,203z"/>
				<path class="st11" d="M202.5,204.3c3,0.4,6.1,0.2,9.3-0.6c0,0,0.1,0,0.1,0c5.8-1.6,9.6-7.1,9.6-13.1l0-1.9l-20.3-2.2l0.3,8.1
					c0.1,1.5,0.1,3,0.3,4.5c0,0.4,0,2.3,0,4.3C202,203.7,202.2,203.9,202.5,204.3z"/>
				<path class="st11" d="M180,165.1c1.5,5.8,5.9,7.7,10,8.8c0.1,0,0.2,0.1,0.3,0.1c2,3.9,4.8,7.8,8.1,11c3.4,3.8,7.7,6.6,12.6,7.7
					c0.1,0,0.3,0.1,0.4,0.1c0.3,0.1,0.6,0.1,0.8,0.2c0.2,0,0.4,0,0.6,0c0.2,0,0.3,0,0.5,0c0.4,0,0.7,0,1.1,0c0.4,0,0.7,0,1.1-0.1
					c0.2,0,0.3,0,0.5-0.1c0.2,0,0.4,0,0.6-0.1c0.3-0.1,0.6-0.1,0.8-0.2c0.1,0,0.3-0.1,0.4-0.1c4.8-1.3,9-4.3,12.2-8.2
					c3.1-3.3,5.7-7.3,7.6-11.3c1.6-0.5,3.2-1.1,4.7-1.9c2.5-1.4,4.5-3.6,5.3-7.4c1-4.8-0.4-11-4.4-11.2c-1.2-0.1-2.5,0.4-3.8,1.2
					c-1.9-7.9-6.3-16.2-11.5-21.9c-2.2-2.8-4.7-4.7-7.5-5.7c-1.5-0.7-3-1.1-4.4-1.2c-1-0.1-2-0.1-3,0c-1,0-2,0.1-3,0.2
					c-1.5,0.1-2.9,0.7-4.4,1.4c-2.7,1.2-5.1,3.1-7.2,6.1c-5,5.9-9,14.4-10.6,22.4c-1.3-0.7-2.7-1.2-3.9-1
					C180,154.1,178.8,160.4,180,165.1z"/>
				<g>
					<path class="st10" d="M173.6,123.5c2.2-4.5,7.4-6.7,12.1-5.2c0.9,0.3,0.5,1.7-0.4,1.4c-4.2-1.3-8.6,0.6-10.5,4.5
						C174.5,125.1,173.2,124.3,173.6,123.5z"/>
					<path class="st10" d="M171,123.4c0.5-0.8,1.8,0,1.3,0.8c-3.3,4.8-2.7,11.2,1.5,15.2c0.7,0.7-0.4,1.7-1.1,1.1
						C168.1,136,167.4,128.7,171,123.4z"/>
					<path class="st10" d="M174.8,145.4c5.4-5.5,8-13.5,6.8-21.2c-0.2-0.9,1.3-1.3,1.4-0.4c1.4,8.2-1.3,16.7-7.1,22.6
						C175.1,147.1,174.1,146.1,174.8,145.4z"/>
					<path class="st10" d="M184.4,133.3c0.6-4.1,2.3-8,4.8-11.3c0.6-0.8,1.9,0,1.3,0.8c-2.4,3.2-4,7-4.6,10.9
						c-0.1,0.4-0.6,0.6-0.9,0.5C184.5,134.1,184.3,133.7,184.4,133.3z"/>
					<path class="st10" d="M183.9,142.8c0.9-1.1,1.8-2.2,2.4-3.5c0.7-1.4,1-3,1.4-4.5c0.7-2.5,1.7-4.9,3.5-6.8
						c1.7-1.9,4-3.2,6.4-3.8c0.9-0.3,1.3,1.2,0.4,1.4c-2.4,0.6-4.4,1.9-6.1,3.8c-1.8,2.1-2.5,4.5-3.2,7.1c-0.7,2.6-1.8,4.8-3.5,6.9
						c-1.8,2.1-3.8,4.1-4.2,6.9c-0.1,0.9-1.6,0.5-1.4-0.4C180.1,147.1,182.1,144.9,183.9,142.8z"/>
				</g>
				<g>
					<g>
						<path class="st11" d="M222.6,170.8c-0.3-0.8-0.9-1.4-1.4-2.1c-0.5-0.8-1-1.6-1.4-2.4c-0.8-1.7-1.3-3.5-1.4-5.3
							c0-0.5-0.6-0.8-1.1-0.8c-0.5,0.1-0.8,0.6-0.7,1.1c0.3,3.1,1.4,6.1,3.3,8.6c0.7,1,1.8,2,0.7,3.1c-1,1.1-2.8,0.8-4.1,0.6
							c-1.2-0.1-1.3,1.7-0.1,1.8c1.8,0.2,3.7,0.4,5.1-0.7C222.6,173.9,223.2,172.3,222.6,170.8z"/>
					</g>
					<path class="st14" d="M204.4,162c0.2,1.7,1.4,3,2.5,2.9c1.2-0.1,1.9-1.5,1.7-3.2c-0.2-1.7-1.4-3-2.5-2.9
						C204.9,158.8,204.2,160.3,204.4,162z"/>
					<path class="st14" d="M222.6,161.9c0.2,1.7,1.4,3,2.5,2.9c1.2-0.1,1.9-1.5,1.7-3.2c-0.2-1.7-1.4-3-2.5-2.9
						C223.1,158.7,222.4,160.2,222.6,161.9z"/>
					<g>
						<path class="st14" d="M223.3,149.8c0.4-0.2,0.8-0.2,1.2-0.1c2.5,0.4,4.4,2.6,4.8,5.5c-0.2-0.4-0.3-0.8-0.6-1.1c0,0,0,0-0.1,0
							c-0.2-0.2-0.3-0.4-0.5-0.5c-0.7-0.5-1.6-0.7-2.4-0.9c-0.9-0.2-1.8-0.3-2.5-0.7c-0.4-0.2-0.7-0.5-0.7-1
							C222.5,150.4,222.9,150,223.3,149.8z"/>
					</g>
					<g>
						<path class="st14" d="M207.5,149c-0.4-0.3-0.8-0.4-1.2-0.4c-2.6-0.3-4.7,1.5-5.4,4.2c0.2-0.4,0.4-0.7,0.8-0.9c0,0,0,0,0.1,0
							c0.2-0.2,0.4-0.3,0.6-0.4c0.8-0.3,1.6-0.3,2.5-0.3c0.9,0,1.8,0.1,2.6-0.1c0.4-0.1,0.8-0.3,0.8-0.9
							C208.2,149.9,207.9,149.3,207.5,149z"/>
					</g>
					<path class="st11" d="M207.9,176.6c2.8,2.6,6.9,3.5,10.6,2.5c1.1-0.3,1.4,1.4,0.4,1.6c-4.3,1.1-9,0-12.2-3
						C205.9,177,207.1,175.8,207.9,176.6z"/>
				</g>
				<g>
					<g>
						<g>
							<path class="st15" d="M190.1,158.2c3.7,4.7,7.7,9.1,11.9,13.2c0.7,0.7-0.4,1.7-1.1,1.1c-4.3-4.1-8.2-8.6-11.9-13.2
								C188.4,158.5,189.5,157.5,190.1,158.2z"/>
							<path class="st15" d="M190.3,171c2.1,5.9,5.8,11.1,10.8,14.9c0.8,0.6,0,1.9-0.8,1.3c-5.3-4.1-9.3-9.5-11.5-15.8
								C188.5,170.5,189.9,170.1,190.3,171z"/>
						</g>
						<g>
							<path class="st15" d="M238.5,158.2c-3.7,4.7-7.7,9.1-11.9,13.2c-0.7,0.7,0.4,1.7,1.1,1.1c4.3-4.1,8.2-8.6,11.9-13.2
								C240.1,158.5,239.1,157.5,238.5,158.2z"/>
							<path class="st15" d="M238.3,171c-2.1,5.9-5.8,11.1-10.8,14.9c-0.8,0.6,0,1.9,0.8,1.3c5.3-4.1,9.3-9.5,11.5-15.8
								C240.1,170.5,238.6,170.1,238.3,171z"/>
						</g>
					</g>
					<g>
						<path class="st16" d="M198.3,175.6c0.3-3.6,2.9-6.6,6.4-7.5c0.7-0.2,1.5-0.4,2.3-0.5c5.3-1.1,10.7-1.4,16-0.8
							c4.8,0.5,8.3,4.6,8.1,9.3c-0.2,3.4-1,6.9-2.3,10.1c-3,3-6.7,5.3-10.9,6.4c-0.1,0-0.3,0.1-0.4,0.1c-0.3,0.1-0.6,0.2-0.8,0.2
							c-0.2,0-0.4,0-0.6,0.1c-0.2,0-0.3,0-0.5,0.1c-0.4,0-0.7,0.1-1.1,0.1c-0.4,0-0.8,0-1.1,0c-0.2,0-0.3,0-0.5,0
							c-0.2,0-0.4,0-0.6,0c-0.3,0-0.6-0.1-0.8-0.2c-0.1,0-0.3-0.1-0.4-0.1c-4.1-0.8-7.8-2.9-10.9-5.7
							C198.8,183.3,198,179.3,198.3,175.6z"/>
						<g>
							<path class="st15" d="M205.3,173.5c6.7,0.1,13.5-0.6,20.1-1.9c0.9-0.2,1.3,1.3,0.4,1.4c-6.7,1.3-13.6,2-20.5,1.9
								C204.4,175,204.4,173.5,205.3,173.5z"/>
							<path class="st15" d="M207.3,178.8c5.7,0.5,11.5,0.2,17.1-1.1c0.9-0.2,1.3,1.2,0.4,1.4c-5.7,1.3-11.6,1.7-17.5,1.1
								C206.3,180.2,206.3,178.7,207.3,178.8z"/>
							<path class="st15" d="M206.3,184.4c6.1,0.8,12.4,0.4,18.3-1.2c0.9-0.2,1.3,1.2,0.4,1.4c-6.3,1.7-12.7,2-19.1,1.2
								C205,185.7,205.4,184.3,206.3,184.4z"/>
						</g>
					</g>
				</g>
				<g>
					<path class="st10" d="M175.1,145.4c2.2,0.4,4.5-0.7,6.1-2.3c1.6-1.6,2.7-3.6,3.8-5.5c2.3-3.9,4.9-7.8,8.7-10.4
						c2.5-1.7,5.3-2.9,8.1-4c5.8-2.3,12-4.6,18.1-3.4c5.9,1.2,10.6,5.6,15.2,9.6c4.6,4,9.8,7.9,15.9,7.9c-2.6,0.3-5.2,0.7-7.8,1
						c5.1,3.5,8.5,9.8,7.6,15.9c-0.6,3.9-2.8,7.4-4.2,11.1c-1.4,3.7-1.8,8.3,0.7,11.3c-1.8-0.5-3.3-1.9-4-3.6
						c0.3,3.2-0.8,6.5-3.1,8.8c-2.3,2.3-5.6,3.5-8.8,3.1c2.2-1.1,3.2-3.7,3.1-6.1c0-2.4-0.8-4.8-1.2-7.2c-0.4-2.1-0.4-4.5,0.6-6.4
						c-0.7,0.9-1.8,1.5-3,1.5c3.4-4.6,4-11,1.9-16.3c-5.9-2.2-11.2-6.2-14.9-11.4c1.6,4-0.1,9.1-3.7,11.5c-1.1-5.3-3-10.4-5.6-15.1
						c0.8,3.5-1.5,6.9-4.1,9.2c-2.6,2.4-5.7,4.4-7.5,7.5c-1.7,3.1-1.2,7.9,2.1,9.1c-2.2,1.1-5.2,0.2-6.3-2.1c2,3.9,2.6,8.6,1.7,12.9
						c-0.3,1.1-0.6,2.3-0.5,3.4c0.1,1.1,0.9,2.3,2.1,2.4c-1.3,0.2-2.7-0.3-3.6-1.3c1.5,1.5,1.9,3.9,1.1,5.9c-0.8,2-2.8,3.4-5,3.4
						c1.8-1.2,1.7-3.9,0.6-5.7c-1.1-1.8-3-2.9-4.7-4.2c-4.1-3.3-6.8-8.3-7.4-13.5c-0.6-5.2,0.9-10.7,4.1-14.8
						C179,148.5,176.4,147.5,175.1,145.4z"/>
				</g>
			</g>
			<path class="st16" d="M256.1,232.3c-1.1-3.1-2.2-6.2-2.6-9.5c-0.1-0.9-1.6-1-1.5,0c0.7,5.6,3.2,10.6,4.8,16
				c0.8,2.6,1.3,5.4,1.2,8.2c-0.1,2.9-1.1,5.7-2.3,8.2c-1.4,2.9-3.3,5.7-5.2,8.4c-0.4,0.5,0.1,1.1,0.6,1.1
				c-3.4,13.2-5.1,26.8-4.8,40.4c0.1,4,0.3,8.1,0.7,12.1c0,0.2,0.1,0.4,0.3,0.5c2.3,12.5,4.2,25,5.8,37.6
				c1.6,12.9,2.7,25.8,3.4,38.7c0.4,7.3,0.7,14.6,0.9,22c0,1,1.5,1,1.5,0c-0.3-13.1-1-26.1-2.1-39.2c-1.1-12.9-2.6-25.8-4.5-38.6
				c-1.1-7.3-2.3-14.6-3.7-21.9c0-0.2-0.1-0.3-0.2-0.3c-1.3-13.7-0.7-27.6,1.9-41.1c0.8-4,1.7-7.9,2.7-11.8c0.1-0.2,0-0.4-0.1-0.5
				c2.9-4.2,5.6-8.7,6.3-13.8C260.1,243,258,237.6,256.1,232.3z"/>
			<g>
				<path class="st10" d="M202.2,126.2c-3.5,2-7,4.2-9,7.8c-0.9,1.6-1.4,3.4-2,5.1c-0.7,1.8-1.6,3.4-3,4.7c-0.7,0.7,0.4,1.7,1.1,1.1
					c1.3-1.2,2.2-2.7,2.9-4.3c0.7-1.6,1.2-3.4,1.9-5c1.7-3.8,5.4-6.1,8.9-8.1C203.8,127.1,203,125.8,202.2,126.2z"/>
				<path class="st10" d="M202,132.4c-0.2-0.9-1.7-0.5-1.4,0.4c1,4-2.3,7.3-4.6,10.2c-2.2,2.7-4.2,6.1-3.2,9.7
					c0.3,0.9,1.7,0.5,1.4-0.4c-1.1-4,2.1-7.4,4.4-10.2C200.9,139.3,202.9,136.1,202,132.4z"/>
				<path class="st10" d="M188.8,173.3c-6.1-6.1-6.4-16.1-0.6-22.5c0.6-0.7-0.4-1.8-1.1-1.1c-3,3.4-4.8,7.9-4.6,12.4
					c0.1,4.6,2.1,9,5.3,12.2C188.4,175,189.5,173.9,188.8,173.3z"/>
				<path class="st10" d="M189.2,157.8c-0.5-0.8-1.8,0-1.3,0.8c1.9,2.7,2.4,6.1,1.5,9.2c-0.3,0.9,1.2,1.3,1.4,0.4
					C191.8,164.7,191.2,160.8,189.2,157.8z"/>
				<path class="st10" d="M216.2,139.6c-1.3-5.3-4.6-9.9-9.1-12.9c-0.8-0.5-1.6,0.8-0.8,1.3c4.2,2.8,7.2,7.1,8.4,12
					C215,140.9,216.5,140.5,216.2,139.6z"/>
				<path class="st10" d="M235.4,144.9c-5.2-1.3-9.7-4.7-12.4-9.4c-1.4-2.4-2.4-5.1-4.5-7c-1.8-1.6-4.4-2.6-6.8-1.7
					c-0.9,0.3-0.5,1.8,0.4,1.4c2.7-1,5.3,0.9,6.7,3c1.6,2.2,2.5,4.8,4.1,7c2.9,4,7.2,6.9,12,8.1
					C235.9,146.6,236.3,145.2,235.4,144.9z"/>
				<path class="st10" d="M235.6,135.5c-8.4-2.4-13.6-14.2-23.5-11.7c-0.9,0.2-0.5,1.7,0.4,1.4c4.6-1.2,8.8,1.8,12.2,4.7
					c3.2,2.8,6.3,5.8,10.5,7C236.2,137.2,236.6,135.7,235.6,135.5z"/>
				<path class="st10" d="M247,150c-1.6-5.9-6.7-10.2-12.8-10.8c-1-0.1-0.9,1.4,0,1.5c5.8,0.6,10.6,5.1,11.6,10.9
					c1.1,6-3,11.3-2.9,17.3c0,1,1.5,1,1.5,0c0-3.4,1.3-6.5,2.2-9.6C247.5,156.2,247.8,153.1,247,150z"/>
				<path class="st10" d="M239.8,148.2c-0.6-0.8-1.9,0-1.3,0.8c2.8,3.9,1.6,8.9,0.3,13.2c-1.4,4.4-3,9.1-1.3,13.7
					c0.3,0.9,1.8,0.5,1.4-0.4c-1.8-4.9,0.5-9.8,1.8-14.5C241.9,156.7,242.5,151.9,239.8,148.2z"/>
				<path class="st10" d="M237.3,153.1c-0.1-0.4-0.5-0.6-0.9-0.5c-0.4,0.1-0.6,0.5-0.5,0.9c0.4,1.6,0.6,3.1,0.6,4.8
					c0,0.4,0.3,0.8,0.7,0.7c0.4,0,0.7-0.3,0.7-0.7C238,156.5,237.7,154.8,237.3,153.1z"/>
			</g>
			<g>
				<path class="st11" d="M93.4,215.2l16.3,43.9c2.9,7.7,12,11.2,19.2,7.2l14-7.6l2.1-1.2l40.7-22.1l-2.5-23.8
					c-0.2-1.5-1.8-2.4-3.2-1.6l-42.4,23.6l-1.4,0.8v0l-11.2,6.3c-2.8-4.4-12.1-19.8-20.1-33C101.4,210,97.4,212.6,93.4,215.2z"/>
				<path class="st12" d="M134.7,235.5c0.6,2.1,1.2,4.1,1.8,6.1c1.1,3.7,2.2,7.4,3.3,11.1c0.9,3,1.9,6.1,2.9,9.1l49.2-18.2l-7-32.4
					c-0.2-1.7-2-2.6-3.5-1.8L134.7,235.5z"/>
				<path class="st7" d="M60,166.7l9.4,7.6l-1.5,1.5c-9.7-6.2-7.1-1.2-7.1-1.2l11.2,6.7c5.9,9.7,12.9,10.7,12.9,10.7l8.6,23.1
					c4-2.6,8.1-5.1,11.8-7.4c-6.9-11.3-12.8-21.1-12.8-21.1l2.1-5.2c1-2.4,1.1-5,0.5-7.5c-1.4-6.4,0.2-11.1,0.2-11.1
					c-4.9-0.3-4.2,9.2-4.2,9.2l-3.5,2l-5.4-5.8c-8.1-19.6-10.3-13-10.3-13l6,12.9l-2.1,1.3c-8.4-16.6-9.9-10.6-9.9-10.6l7.5,12.3
					l-1.9,1.7C58.9,160.5,60,166.7,60,166.7z"/>
			</g>
			<g>
				<path class="st16" d="M221.2,250.9c-4.9,9.7-15.6,15.3-26.4,13.7c-0.9-0.1-1.3,1.3-0.4,1.4c11.4,1.7,22.8-4.1,28.1-14.4
					C222.9,250.8,221.6,250.1,221.2,250.9z"/>
				<path class="st16" d="M252.3,262.9c1.3-3.8,3.3-7.3,4.9-11c1.7-3.9,2.4-7.8,1.4-12c-1.1-4.6-3.4-8.8-5.8-12.8
					c-0.5-0.8,0.8-1.6,1.3-0.8c4,6.9,8.2,14.7,5.7,22.9c-1.2,4-3.6,7.6-5.1,11.5c-1.6,3.9-2.7,8-3.5,12.2c-1,4.8-1.6,9.6-2.2,14.5
					c-0.1,0.9-1.6,1-1.5,0C248.5,279.1,249.6,270.8,252.3,262.9z"/>
			</g>
		</g>
		<g style="clip-path:url(#SVGID_00000069392008401196124530000008332468475783131010_);">
			<g>
				<path class="st8" d="M591,211.3l-16.3,43.9c-2.9,7.7-12,11.2-19.2,7.2l-14-7.6l-2.1-1.2l-40.7-22.1l2.5-23.8
					c0.2-1.5,1.8-2.4,3.2-1.6l42.4,23.6l1.4,0.8v0l11.2,6.3c2.8-4.4,12.1-19.8,20.1-33C582.9,206.1,587,208.7,591,211.3z"/>
				<path class="st17" d="M624.4,162.8l-9.4,7.6l1.5,1.5c9.7-6.2,7.1-1.2,7.1-1.2l-11.2,6.7c-5.9,9.7-12.9,10.7-12.9,10.7l-8.6,23.1
					c-4-2.6-8.1-5.1-11.8-7.4c6.9-11.3,12.8-21.1,12.8-21.1l-2.1-5.2c-1-2.4-1.1-5-0.5-7.5c1.4-6.4-0.2-11.1-0.2-11.1
					c4.9-0.3,4.2,9.2,4.2,9.2l3.5,2l5.4-5.8c8.1-19.6,10.3-13,10.3-13l-6,12.9l2.1,1.3c8.4-16.6,9.9-10.6,9.9-10.6l-7.5,12.3
					l1.9,1.7C625.5,156.6,624.4,162.8,624.4,162.8z"/>
			</g>
			<path class="st18" d="M519.2,459.7l-6.6,80.8l-21.3,125c0.3,0.7,0.6,1.4,0.9,2.1h-14.2c0.8-0.4,1.4-0.3,1.4-0.3
				c-4.4-53.3-7.4-103.2,0-127.9l-3.1-154.8h-12.5l-31.6,149.8c-4.6,40.9-20.3,89.3-43.6,132.9c0.5,0,1,0.1,1.4,0.3h-16.2l1-1.5
				l29.5-135.4l14.4-138c5-58.2,27-90.7,27-90.7h59.5l5.4,25C519.9,370.5,522.8,415.2,519.2,459.7z"/>
			<path class="st14" d="M394.2,696.4h-6.9v-6.7c0-1-1.4-1.4-1.9-0.5l-3.8,7h-42c2.2-3.7,6.4-5.2,10.3-5.7
				c6.6-0.9,12.3-4.9,15.9-10.5l7.9-12.3H390C401.8,670.6,394.2,696.4,394.2,696.4z"/>
			<path class="st14" d="M523.2,696.2h-36.8l-6.9-10.4v10.4h-6.3c-1.4-22.6,2.7-27.6,4.9-28.6h14.2c6.4,13.9,19.8,20.8,31.5,25.7
				C525.3,693.9,524.8,696.2,523.2,696.2z"/>
			<path class="st8" d="M516.3,250l-4.9,9.9l-6.3,42h-59.5l-11.3-83.7c-0.7-5,2.4-9.7,7.2-11.2c18.5-5.7,33.5-8.9,51.1-4.4
				c5.6,1.4,10.7,3.5,15.1,6.3l9.5,27.4C518.7,240.8,518.4,245.7,516.3,250z"/>
			<path class="st8" d="M502.9,292.6l-59,3.2c0,0-30.5,61.5-28.2,97.7c0,0,75.8,20.6,108.2-2.6C523.8,390.9,512.7,311.9,502.9,292.6
				z"/>
			<path class="st18" d="M480.5,248.1c-4.9,9.6-15.4,15.1-26.1,13.5c-0.9-0.1-1.3,1.3-0.4,1.4c11.3,1.7,22.6-4,27.8-14.2
				C482.2,248,481,247.2,480.5,248.1z"/>
			<g>
				<path class="st18" d="M495.5,388.4c-1-8.2-2.1-16.5-3.1-24.7c-0.1-0.9,1.3-1.1,1.5-0.2c1,8.2,2,16.4,3.1,24.5
					c4.5-0.1,9.1-0.5,13.5-1.4c-0.2-0.1-0.5-0.2-0.5-0.6c-1.6-6.4-2.9-13-3.9-19.5c-0.1-0.9,1.3-1.1,1.5-0.2
					c1,6.6,2.3,13.1,3.9,19.5c0.1,0.3,0,0.5-0.1,0.6c3.8-0.8,7.5-1.8,11.1-3.2c-2.4-9.9-4.8-19.8-7.2-29.8c0-0.1,0-0.2,0-0.3
					c-7.5,0.5-14.9,1.6-22.2,3.3c-0.2,0.1-0.3,0.1-0.5,0.1c-0.1,0-0.3-0.1-0.4-0.2c-0.1-0.1-0.2-0.2-0.2-0.4
					c-0.6-3.3-1.2-6.7-1.7-10c-0.2-0.9,1.3-1.1,1.5-0.2c0.5,3.1,1.1,6.1,1.6,9.2c7.3-1.7,14.8-2.8,22.3-3.3c0.6,0,0.9,0.6,0.8,1.1
					c0.2,0.1,0.4,0.3,0.4,0.5c2.4,9.9,4.8,19.9,7.2,29.8c0.1,0.3-0.1,0.6-0.3,0.7c0.1,0.3-0.1,0.6-0.4,0.8
					c-8.6,3.2-17.7,4.9-26.8,4.9C495.6,389.5,495.3,388.8,495.5,388.4z"/>
				<path class="st18" d="M498.8,364.1c5.1,0.2,10.1-0.8,14.8-2.8c0.9-0.4,1.4,1,0.6,1.4c-4.9,2.1-10.2,3.1-15.5,2.9
					C497.6,365.5,497.8,364,498.8,364.1z"/>
			</g>
			<g>
				<path class="st18" d="M450.8,388.4c1-8.2,2.1-16.5,3.1-24.7c0.1-0.9-1.3-1.1-1.5-0.2c-1,8.2-2,16.4-3.1,24.5
					c-4.5-0.1-9.1-0.5-13.5-1.4c0.2-0.1,0.5-0.2,0.5-0.6c1.6-6.4,2.9-13,3.9-19.5c0.1-0.9-1.3-1.1-1.5-0.2c-1,6.6-2.3,13.1-3.9,19.5
					c-0.1,0.3,0,0.5,0.1,0.6c-3.8-0.8-7.5-1.8-11.1-3.2c2.4-9.9,4.8-19.8,7.2-29.8c0-0.1,0-0.2,0-0.3c7.5,0.5,14.9,1.6,22.2,3.3
					c0.2,0.1,0.3,0.1,0.5,0.1c0.1,0,0.3-0.1,0.4-0.2c0.1-0.1,0.2-0.2,0.2-0.4c0.6-3.3,1.2-6.7,1.7-10c0.2-0.9-1.3-1.1-1.5-0.2
					c-0.5,3.1-1.1,6.1-1.6,9.2c-7.3-1.7-14.8-2.8-22.3-3.3c-0.6,0-0.9,0.6-0.8,1.1c-0.2,0.1-0.4,0.3-0.4,0.5
					c-2.4,9.9-4.8,19.9-7.2,29.8c-0.1,0.3,0.1,0.6,0.3,0.7c-0.1,0.3,0.1,0.6,0.4,0.8c8.6,3.2,17.7,4.9,26.8,4.9
					C450.7,389.5,451,388.8,450.8,388.4z"/>
				<path class="st18" d="M447.5,364.1c-5.1,0.2-10.1-0.8-14.8-2.8c-0.9-0.4-1.4,1-0.6,1.4c4.9,2.1,10.2,3.1,15.5,2.9
					C448.7,365.5,448.5,364,447.5,364.1z"/>
			</g>
			<path class="st18" d="M506.4,314.1c1,5.5,1.9,11,2.8,16.5c0.5-0.1,1-0.2,1.4-0.3c-0.9-5.9-1.9-11.8-3-17.6c0-0.2-0.1-0.3-0.2-0.3
				c-1.3-13.5-0.7-27.3,1.9-40.6c0.7-3.9,1.7-7.8,2.7-11.6c0.1-0.2,0-0.4-0.1-0.5c2.8-4.2,5.5-8.6,6.2-13.7c0.8-5.7-1.2-11-3.1-16.3
				c-1.1-3.1-2.2-6.2-2.6-9.4c-0.1-0.9-1.6-0.9-1.5,0c0.7,5.5,3.1,10.5,4.7,15.8c0.8,2.6,1.3,5.3,1.2,8.1c-0.1,2.8-1.1,5.6-2.3,8.2
				c-1.4,2.9-3.3,5.6-5.1,8.3c-0.4,0.5,0.1,1,0.6,1.1c-3.4,13-5,26.5-4.8,40c0.1,4,0.3,8,0.7,11.9
				C506.1,313.8,506.2,314,506.4,314.1z"/>
			<path class="st18" d="M486.5,205c-0.3-1.4-2.5-0.8-2.1,0.6c1.3,5.5-1.9,11.3-7,13.5c-5.5,2.4-12,0.7-16.1-3.5
				c-2.3-2.3-3.8-5.3-4.6-8.5c-0.3-1.4-2.5-0.8-2.1,0.6c1.5,6.5,6.3,12.3,12.8,14.1c6.5,1.8,13.9-0.5,17.5-6.4
				C486.7,212.3,487.4,208.6,486.5,205z"/>
			<g>
				<g>
					<path class="st17" d="M464,211.9L464,211.9c3.9,7.4,14.9,5.4,16-2.8l0.1-0.8c0.8-2.8,1.1-5.6,0.9-8.5l-0.2-3l0-0.5l-0.1-9.8
						l-20.1-2.2l0.3,8.1c0.1,1.5,0.1,3,0.3,4.5c0,0.4,0,2,0,3.9c0,0.4,0,0.8,0.1,1.2C461.4,205.3,462.4,208.8,464,211.9z"/>
					<path class="st19" d="M462.1,202c3,0.4,6.1,0.2,9.1-0.6c0,0,0.1,0,0.1,0c5.7-1.6,9.5-7,9.5-13l0-1.9l-20.1-2.2l0.3,8.1
						c0.1,1.5,0.1,3,0.3,4.5c0,0.4,0,2.2,0,4.2C461.5,201.3,461.8,201.6,462.1,202z"/>
					<path class="st17" d="M502.3,150.6c-1.2-0.1-2.5,0.4-3.8,1.2c-1.9-7.8-6.2-16.1-11.4-21.7c-2.2-2.8-4.7-4.6-7.4-5.7
						c-1.5-0.7-2.9-1.1-4.4-1.2c-1-0.1-2-0.1-3,0c-1,0-2,0.1-3,0.2c-1.5,0.2-2.9,0.7-4.3,1.4c-2.6,1.2-5.1,3.1-7.1,6
						c-5,5.9-8.9,14.3-10.4,22.2c-1.3-0.7-2.7-1.1-3.8-1c-3.9,0.4-5,6.6-3.9,11.3c1.5,5.9,6,7.7,10.2,8.8c2,3.9,4.8,7.7,8,10.8
						c3.3,3.8,7.6,6.5,12.4,7.6c0.1,0,0.3,0.1,0.4,0.1c0.3,0.1,0.6,0.1,0.8,0.2c0.2,0,0.4,0,0.6,0c0.2,0,0.3,0,0.5,0
						c0.4,0,0.7,0,1.1,0c0.4,0,0.7,0,1.1-0.1c0.2,0,0.3,0,0.5-0.1c0.2,0,0.4,0,0.6-0.1c0.3-0.1,0.6-0.1,0.8-0.2
						c0.1,0,0.3-0.1,0.4-0.1c4.8-1.3,8.9-4.2,12.1-8.1c3-3.3,5.7-7.2,7.5-11.2c4.1-1.3,8.6-3.2,9.8-9.2
						C507.6,157,506.2,150.8,502.3,150.6z"/>
					<path class="st14" d="M500.6,142.6c-0.4-7-3.6-13.5-8.8-18.2c-5.2-4.7-12-7.3-19.1-7.2c-7.3,0.2-14.5,3.1-19.7,8.2
						c-6.3-4.2-15.6-4-20.1,2.8c-2,3-2.7,6.8-1.5,10.2c0.8,2,2.2,3.7,2.9,5.8c0.9,2.5,0.1,4.9-0.8,7.3c-0.9,2.4-1.9,4.9-1.3,7.5
						c0.4,2,1.8,3.8,3.8,4.3c0.3,0.1,0.7-0.2,0.7-0.5c-0.3-3.8,1.8-7.6,5.3-9.1c0.5-0.2,1-0.4,1.5-0.6c0.9,3.1,2.6,6,5,8.2
						c1.4,1.3,3,2.3,4.7,3c0.4,0.2,0.8-0.3,0.7-0.7c-2-8.7,2.5-18.3,10.6-22.1c4.1-1.9,9-2.4,13.4-1.3c4.4,1.1,8.2,3.7,10.8,7.4
						c2.9,4,4.3,9,3.7,14c-0.1,0.5,0.6,0.7,0.9,0.4C498.4,156.9,500.9,149.7,500.6,142.6z"/>
					<path class="st20" d="M511.6,147.7c-0.2-2.8-0.2-5.5-0.1-8.3c0.1-2.7,0.1-5.3-0.3-8c-0.3-2.2-1-4.3-1.8-6.3
						c-3.6-8.5-11.4-14.2-20-14.8c-2-0.1-4,0-6,0.4c-5.1-7.7-15.2-7.4-22.9-5.3c-3.7,1-7.7,2.2-10.4,5.2
						c-12.1,13.4-23,11.7-19.2,33.3c1.7,9.7-1.7,5.1-1.4,12.9c0.5,11.3,10.2,15.3,14.6,15.4c1.9,0.1,3.9-0.7,5.2-2.2
						c1.5-1.7,1.8-4.1,1.5-6.3c-0.2-2.4-0.7-4.7,0-7c0.6-2,1.9-3.7,3.3-5.1c3.3-3.1,7.7-4.8,11.8-5.9c4.6-1.2,9.5-1.6,14.2-1.2
						c2.3,0.2,4.7,0.6,6.9,1.3c1.9,0.6,3.8,1.4,5.3,2.7c1.6,1.4,2.6,3.4,2.7,5.7c0.1,2.6-0.9,5.1-1.4,7.6c-0.8,3.6-0.9,8.6,2.7,10.4
						c3.7,1.9,7.9-0.9,10.4-3.7c3-3.4,4.8-7.9,5.2-12.6C512,153.3,511.8,150.5,511.6,147.7z"/>
					<g>
						<path class="st19" d="M481.9,168.8c-0.3-0.8-0.9-1.4-1.4-2c-0.5-0.7-1-1.5-1.4-2.4c-0.8-1.7-1.3-3.4-1.4-5.3
							c0-0.5-0.6-0.8-1.1-0.8c-0.5,0.1-0.8,0.6-0.7,1c0.3,3,1.4,6,3.2,8.5c0.7,1,1.7,2,0.7,3.1c-1,1.1-2.7,0.8-4.1,0.6
							c-1.2-0.1-1.3,1.7-0.1,1.8c1.7,0.2,3.6,0.4,5.1-0.7C482,171.9,482.5,170.3,481.9,168.8z"/>
						<path class="st14" d="M463.9,160.1c0.2,1.7,1.3,3,2.5,2.9c1.1-0.1,1.9-1.5,1.7-3.2c-0.2-1.7-1.3-3-2.5-2.9
							C464.4,156.9,463.7,158.4,463.9,160.1z"/>
						<path class="st14" d="M482,160c0.2,1.7,1.3,3,2.5,2.9c1.1-0.1,1.9-1.5,1.7-3.2c-0.2-1.7-1.3-3-2.5-2.9
							C482.5,156.9,481.7,158.3,482,160z"/>
						<g>
							<path class="st14" d="M482.6,148c0.4-0.2,0.8-0.2,1.2-0.1c2.5,0.3,4.4,2.5,4.7,5.4c-0.2-0.4-0.3-0.8-0.6-1c0,0,0,0-0.1,0
								c-0.1-0.2-0.3-0.4-0.5-0.5c-0.7-0.5-1.6-0.7-2.4-0.9c-0.9-0.2-1.7-0.3-2.5-0.7c-0.4-0.2-0.7-0.5-0.7-1
								C481.8,148.6,482.2,148.2,482.6,148z"/>
						</g>
						<g>
							<path class="st14" d="M467,147.3c-0.4-0.3-0.8-0.4-1.2-0.4c-2.5-0.3-4.7,1.5-5.4,4.2c0.2-0.3,0.4-0.7,0.7-0.9c0,0,0,0,0.1,0
								c0.2-0.2,0.4-0.3,0.6-0.4c0.7-0.3,1.6-0.3,2.5-0.3c0.9,0,1.8,0.1,2.5-0.1c0.4-0.1,0.8-0.3,0.8-0.9
								C467.7,148.1,467.4,147.6,467,147.3z"/>
						</g>
						<path class="st19" d="M467.4,174.5c2.8,2.5,6.9,3.5,10.5,2.5c1-0.3,1.4,1.4,0.4,1.6c-4.2,1.1-8.9,0-12.1-3
							C465.4,174.9,466.6,173.8,467.4,174.5z"/>
					</g>
				</g>
				<path class="st8" d="M497.3,172.5c-1.5-2.5-2.4-5.4-2.6-8.3c-0.1-1.5,0-2.9,0.2-4.4c0.2-1.6,0.6-3.1,0.5-4.7
					c-0.1-6-5.2-10.1-10.6-11.5c-3-0.8-6.1-0.9-9.1-0.7c-3.1,0.2-6.2,0.4-9.2,0.9c-2.8,0.5-5.6,1.3-8,3c-2.3,1.7-4.4,3.9-6.2,6.1
					c-1,1.3-1.9,2.6-2.6,4.1c-0.6,1.5-0.8,3-0.9,4.6c-0.2,3.1,0.3,6.4-1,9.3c-0.3,0.5-0.2,1.2,0.4,1.5c0.5,0.3,1.3,0.1,1.5-0.4
					c2.3-5,0-10.9,2.9-15.7c1.4-2.3,3.3-4.3,5.3-6.1c2-1.9,4.3-3.2,7-3.9c2.7-0.7,5.6-0.9,8.4-1.1c3-0.3,6.1-0.5,9.2,0.1
					c4.8,0.8,10.4,3.9,10.7,9.4c0.1,1.7-0.3,3.4-0.5,5.1c-0.2,1.6-0.3,3.2-0.2,4.8c0.3,3.2,1.2,6.3,2.8,9
					C496.1,174.8,498,173.7,497.3,172.5z"/>
			</g>
			<g>
				<g>
					<path class="st16" d="M411.6,413.8l-2.3,28.1c-0.2,2.4,0.7,4.8,2.3,6.5l9.4,9.4c0.8,0.8,2.2,0.3,2.3-0.9
						c0.1-2.6-0.9-7-7.3-12.6l0.7-12.8c0,0-0.1,13.1,2,13.6c0,0,3.5,1.7,2.8-14.1c0,0,2.5-8.7-1.9-13.8l8-28.4l-16.8-1.3
						L411.6,413.8z"/>
					<path class="st8" d="M446,205.9l-1.3,39.8l-18.2,165.7c0,0-14.2,2.5-19.6-5l15.5-162.8c0.7-7.3,2.4-14.5,5.4-21.1
						C432,213.1,437.8,207,446,205.9z"/>
				</g>
				<path class="st18" d="M438.4,306.8c1.4-14.7,2.7-29.4,4.1-44.1c0.8-8.3,1.5-16.5,2.3-24.8c0.1-0.7,1.2-0.7,1.1,0
					c-1.4,14.7-2.7,29.3-4.1,44c-1.4,14.7-2.7,29.4-4.1,44.1c-0.8,8.3-1.5,16.5-2.3,24.8c-0.1,0.7-1.2,0.7-1.1,0
					C435.7,336.1,437,321.5,438.4,306.8z"/>
			</g>
		</g>
		<g style="clip-path:url(#SVGID_00000069392008401196124530000008332468475783131010_);">
			<g>
				<path class="st11" d="M415.3,414.8l-0.4,29.6c0,2.5-1.2,4.9-3.2,6.5l-11.4,8.8c-1,0.8-2.5,0.1-2.4-1.2c0.1-2.7,1.7-7.2,9.4-12.4
					l0.6-13.4c0,0-1.3,13.7-3.6,14c0,0-4,1.4-1.6-15c0,0-1.8-9.3,3.5-14.2l-5.8-30.5l18.7,0.5L415.3,414.8z"/>
				<path class="st16" d="M399.1,193.9l-2.7,41.7l2.7,175c0,0,15.5,4.2,22.2-3.1V235.7c0-7.7-1.1-15.4-3.8-22.6
					C413.8,202.9,408,195.9,399.1,193.9z"/>
			</g>
			<g>
				<path class="st11" d="M336,184.3L336,184.3c0,1.5,0.2,3.4,0.6,5.7c1.2,6.9,4.2,9.6,8.1,10.6c8.7,2.1,17-4.8,17.1-13.7l0.3-31.1
					c0.1-5.1-4-9.2-9.1-9.3l-7.4-0.1c-2.5,0-4.7,0.9-6.3,2.5c-1.8,1.7-2.9,4-2.9,6.6L336,184.3z"/>
				<path class="st11" d="M336,184.3c0.3,0,0.7,0,1,0c11.5-0.6,20.4-10.5,20.6-22.1l0.1-5.8c0-4.1-4-7.5-9.1-7.6l-7.4-0.1
					c-0.6,0-1.3,0-1.9,0.1c-1.8,1.7-2.9,4-2.9,6.6L336,184.3z"/>
				<path class="st11" d="M312.6,139.3c1.1,6.4,5.7,8.8,10.1,10.3c0.1,0,0.1,0,0.2,0.1c1.8,4.4,4.5,8.7,7.6,12.4
					c3.3,4.4,7.6,7.7,12.8,9.3c0.1,0,0.3,0.1,0.5,0.1c0.3,0.1,0.6,0.2,0.9,0.3c0.2,0.1,0.4,0.1,0.6,0.1c0.2,0,0.3,0,0.5,0.1
					c0.4,0.1,0.8,0.1,1.2,0.1c0.4,0,0.8,0,1.2,0c0.2,0,0.3,0,0.5,0c0.2,0,0.4,0,0.6,0c0.3,0,0.6-0.1,0.9-0.2c0.2,0,0.3,0,0.5-0.1
					c5.3-1,10-3.8,13.7-7.7c3.6-3.3,6.7-7.3,9-11.4c0.2,0,0.3-0.1,0.5-0.1c4.4-1,9.1-2.9,10.9-9c1.5-5,0.5-11.8-3.7-12.4
					c-1.2-0.2-2.7,0.2-4.2,0.9c-1.4-8.6-5.3-17.9-10.4-24.4c-2.1-3.2-4.7-5.4-7.5-6.8c-1.5-0.9-3.1-1.5-4.6-1.7
					c-1.1-0.2-2.2-0.3-3.2-0.3c-1.1-0.1-2.1-0.1-3.2-0.1c-1.6,0.1-3.2,0.5-4.8,1.1c-3,1-5.7,2.9-8.2,5.8c-5.9,5.9-10.8,14.6-13.2,23
					c-1.4-0.9-2.8-1.5-4-1.4C313.5,127.5,311.7,134.2,312.6,139.3z"/>
				<g>
					<path class="st14" d="M363.4,133.7C363.4,133.7,363.4,133.7,363.4,133.7c0.1,0,0.2,0,0.3,0c-1-2.8-3.6-5.1-6.6-5.6
						c-0.5-0.1-1-0.1-1.4,0c-0.4,0.2-0.8,0.6-0.8,1.1c0,0.5,0.5,0.9,1,1.1c1,0.5,2.1,0.7,3.1,1c1.1,0.2,2.1,0.5,3.1,1.1
						C362.6,132.6,363,133.1,363.4,133.7z"/>
				</g>
				<g>
					<path class="st14" d="M339.8,127.2c-0.4-0.2-0.9-0.1-1.4-0.1c-3.1,0.5-5.8,2.8-6.9,5.8c0.3-0.4,0.6-0.8,1-1.1c0,0,0,0,0.1,0
						c0.2-0.2,0.5-0.4,0.7-0.5c0.9-0.6,2-0.8,3.1-1c1.1-0.2,2.2-0.4,3.2-0.8c0.5-0.2,1-0.6,1-1.1
						C340.6,127.8,340.2,127.4,339.8,127.2z"/>
				</g>
				<path class="st11" d="M347.2,148.8c-1,0.2-1.9,0.1-2.9-0.2c-0.4-0.1-0.9-0.3-1.3-0.6c-0.1,0-0.2-0.2-0.2-0.2c0,0.1,0,0,0,0
					c0-0.2,0.2-0.5,0.3-0.8c0.9-2,2-4,3.2-5.8c0.3-0.4,0.3-0.9-0.1-1.2c-0.3-0.3-0.9-0.3-1.2,0.1c-0.8,1.2-1.5,2.4-2.2,3.6
					c-0.3,0.6-0.6,1.2-0.9,1.8c-0.3,0.6-0.7,1.3-0.8,1.9c-0.3,1.5,1.1,2.3,2.3,2.8c1.2,0.5,2.6,0.6,3.9,0.4c0.5-0.1,0.8-0.4,0.8-0.9
					C348.1,149.1,347.7,148.7,347.2,148.8z"/>
				<path class="st14" d="M359,138.4c-0.1,1.6-1.1,2.8-2.1,2.8c-1.1,0-1.9-1.4-1.8-2.9c0.1-1.6,1.1-2.8,2.1-2.8
					C358.3,135.5,359.1,136.8,359,138.4z"/>
				<path class="st14" d="M339.5,138.4c-0.1,1.6-1.1,2.8-2.1,2.8c-1.1,0-1.9-1.4-1.8-2.9c0.1-1.6,1.1-2.8,2.1-2.8
					C338.8,135.5,339.6,136.8,339.5,138.4z"/>
				<path class="st11" d="M341.9,155.8c2.6,0.5,5.4,0.7,8-0.1c2-0.7,3.9-2.1,4.6-4.1c0.4-1,2-0.5,1.7,0.5c-0.9,2.4-2.9,4.2-5.3,5.1
					c-2.9,1.1-6,0.9-9,0.4c-0.5-0.1-0.8-0.4-0.8-0.9C341,156.2,341.4,155.7,341.9,155.8z"/>
			</g>
			<path class="st21" d="M391.7,322.3c-0.1,1.8,5.5,38.7,4.6,64.5c-1.3,35.3-5.8,99.5-10.7,162.1c-3.4,43.9-6.9,87-9.5,118.8
				c-0.7,8-1.3,15.2-1.8,21.6l0,0c-0.9,11-1.6,19.4-2.1,24.3c-0.3,3.2-0.4,4.9-0.4,4.9l-16.9,0.1l-0.1-4.9l-0.2-23.3l-0.2-16.5
				L353,549.2l-1.7-159.4l-0.2-4.7l-5.5,164.2l-3.9,117.3l-0.8,24l-0.8,23.3l-0.2,4.9l-17.2-1.3l-1.4-49.4l-7.8-118.6l-9.3-142.9
				c-0.2-1.3-0.3-2.6-0.5-3.8l-0.2,0.1c-3.7-36,5.4-74.1,5.4-74.1L391.7,322.3z"/>
			<path class="st7" d="M393.3,272.9c-2.3,25.3-2,44.8-2,44.8l1.8,8l2.8,12.6c0.3,1.6-9,19-9.3,20.6c-20.4,10.5-34.6,7.2-58.6,5.3
				c-6.9-0.5-14-1.5-21.3-2.9c-0.3-0.1-0.6-0.1-0.9-0.2l-0.6-1.1l-2.4-4.9c-1.1-5.5-1.5-11.2-1.2-16.9c1.5-25.2-0.1-51.5-2.7-74.5
				c-0.2-1.5-0.3-3-0.5-4.5c-1-8.5-2.1-16.5-3.3-23.7c-2.7-16.9-3.1-33.3-3.1-41c4.2-3,9-5.1,14.1-6.4l14.1-3.5
				c4.3-0.6,8.7-1.1,13-1.2l2.7-0.1c1.7,10.3,12.1,10.5,12.1,10.5S361,193.9,362,183c5,0.9,12.8,2.7,20.6,4.8c0,0,0,0,0.1,0
				c1.5,0.4,3.1,0.8,4.6,1.2c4.2,1.1,16.1,6.3,16.1,6.3c-6.9,16.9-5.5,40.2-8,59.2c-0.5,3.8-1,7.5-1.4,11.2
				C393.8,268.1,393.6,270.5,393.3,272.9z"/>
			<path class="st7" d="M361.6,202.3c-4.7-0.4-9-2.8-12-6.3c-0.1-0.6-0.8-1.1-1.3-0.5c-3.3,3.8-7.5,6.6-12.4,8.1
				c-1,0.3-0.6,1.8,0.4,1.5c4.7-1.4,9-4.1,12.4-7.8c3.3,3.7,8,6,12.9,6.5C362.7,204,362.6,202.4,361.6,202.3z"/>
			<g>
				<path class="st16" d="M336,183l-0.8,43.6l-1.1,62l-2.9,161.7c-0.5,26.2-15.6,50-39.1,61.6l7.7-187.2l-7.7-130.4
					c0,0,7.2-4.1,17-7.3c7.8-2.6,17.3-4.8,26-4C335.5,182.9,335.7,183,336,183z"/>
				<path class="st16" d="M335.2,182.9v43.6l-1.1,62l-20.4-34.5l11.6-13.7l-15.2-15l-1-38.5C317,184.3,326.5,182.1,335.2,182.9z"/>
			</g>
			<g>
				<path class="st16" d="M405.6,194.2c0,0-20.9-11.8-40-11.5c-0.5,0-1.1,0-1.6,0c-0.7,0-1.5,0.1-2.2,0.2l1.8,104.3l2.9,162.9
					c0.4,26.2,15.6,50,39.1,61.6L398,324.6L405.6,194.2z"/>
				<path class="st22" d="M399.9,368.5c-0.5-21.8-0.3-43.7,0.6-65.5c0.5-12.2,1.2-24.4,2.1-36.6c0.1-0.7-0.5-1.3-0.9-1.3
					c-0.5,0-0.9,0.6-0.9,1.3c-1.6,21.7-2.5,43.6-2.8,65.4c-0.3,21.8,0.1,43.7,1.2,65.5c0.6,12.2,1.4,24.4,2.4,36.6
					c0.1,0.7,0.4,1.3,0.9,1.3c0.5,0,1-0.6,0.9-1.3C401.5,412.2,400.3,390.4,399.9,368.5z"/>
				<path class="st16" d="M386.9,225.4l-15.2,15l11.6,13.7l-19.7,33.2L361.8,183v-0.1c0.7-0.1,1.5-0.1,2.2-0.1c0.5,0,1,0,1.6,0
					c7.6,0,15.5,1.9,22.2,4.1L386.9,225.4z"/>
				<path class="st16" d="M394.3,281h-23.8c-0.4,0-0.6,0.2-0.7,0.5c-0.1,0.1-0.2,0.3-0.2,0.5v6.8c0,0.4,0.2,0.6,0.4,0.7
					c0.1,0.3,0.3,0.6,0.7,0.6h22.8c0.2,0,0.3-0.1,0.5-0.2c0.4,0,0.9-0.2,0.9-0.8v-6.9C395.3,282,395.1,281,394.3,281z M393.3,288.7
					h-22.1v-6h22.1V288.7z"/>
				<g>
					<path class="st21" d="M377.1,273.8h-1.9c-0.6,0-1.1,0.5-1.1,1.1v6.2h4.1v-6.2C378.2,274.3,377.7,273.8,377.1,273.8z"/>
					<path class="st14" d="M381.3,273.8h-1.9c-0.6,0-1.1,0.5-1.1,1.1v6.2h4.1v-6.2C382.4,274.3,381.9,273.8,381.3,273.8z"/>
					<path class="st21" d="M385.4,273.8h-1.9c-0.6,0-1.1,0.5-1.1,1.1v6.2h4.1v-6.2C386.5,274.3,386,273.8,385.4,273.8z"/>
					<path class="st14" d="M389.5,273.8h-1.9c-0.6,0-1.1,0.5-1.1,1.1v6.2h4.1v-6.2C390.6,274.3,390.1,273.8,389.5,273.8z"/>
				</g>
			</g>
			<path class="st14" d="M354.7,717.5c0,0-3,5.9-1.8,20H364V734l8.1,3.5h40.7c0,0,1.7-5.6-12.9-5l-28-17.9h-17L354.7,717.5z"/>
			<path class="st14" d="M340.4,717.5c0,0,3,5.9,1.8,20H331V734l-8.1,3.5h-40.7c0,0-1.7-5.6,12.9-5l28-17.9h17L340.4,717.5z"/>
			<g>
				<path class="st16" d="M302,245.1l-3.4,14l-19,78.7c-5.4,0.1-10.2-1.7-14.4-5.8c-6.2-5.9-8.8-14.8-7.4-23.3
					c5.3-33.9,11.4-65.3,19-92.7c0.2-0.7,0.4-1.4,0.7-2.2c2.7-8.1,8-14.8,14.9-19.6c4.2-3,9-5.1,14.1-6.4L302,245.1z"/>
			</g>
			<g>
				<path class="st14" d="M314.9,189.5c6.1-5.1,13.4-8.5,21.2-10.3v2.1c-8.1,1.9-15.9,5.8-21.8,11.5c-7.5,7.3-12,18-10,28.5
					c0.2,1.3-1.7,1.8-1.9,0.5C300,209.7,305.6,197.3,314.9,189.5z"/>
				<g>
					<path class="st14" d="M317.7,230.7c-0.1-0.1-0.2-0.3-0.3-0.4c-4.5-3.3-9.1-6.6-13.6-9.9c-1.1-0.8-2.1,1-1,1.7
						c4.5,3.3,9,6.5,13.4,9.8v35.8l-7.2,5.2c-0.5-0.1-1-0.1-1.4,0.1c-0.7,0.3-1.2,0.7-1.7,1.2c-0.5,0.5-1,1.1-1.2,1.8
						c-0.3,0.7-0.1,1.6,0.5,2.1c1,0.8,2.5,0.7,3.6-0.1c0.6-0.4,1-1,1.3-1.7c0.2-0.5,0.2-1.1,0-1.7c0,0,0.1-0.1,0.1-0.1l0,0
						c2.5-1.8,5-3.6,7.6-5.4c0,0,0,0,0,0c0.3-0.2,0.5-0.4,0.5-0.8v-36.7C318.2,231.1,318,230.9,317.7,230.7z"/>
					<path class="st14" d="M288,231.5v36.7c0,0.4,0.2,0.7,0.5,0.8c0,0,0,0,0,0c2.5,1.8,5,3.6,7.6,5.4l0,0c0,0,0.1,0.1,0.1,0.1
						c-0.2,0.5-0.2,1.2,0,1.7c0.3,0.7,0.7,1.2,1.3,1.7c1,0.8,2.5,0.9,3.6,0.1c0.6-0.5,0.8-1.4,0.5-2.1c-0.2-0.7-0.7-1.2-1.2-1.8
						c-0.5-0.5-1-0.9-1.7-1.2c-0.5-0.2-1-0.2-1.4-0.1l-7.2-5.2v-35.8c4.5-3.3,9-6.5,13.4-9.8c1-0.8,0-2.5-1-1.7
						c-4.5,3.3-9.1,6.6-13.6,9.9c-0.2,0.1-0.2,0.2-0.3,0.4C288.2,230.9,288,231.1,288,231.5z"/>
				</g>
				<path class="st14" d="M396.2,248.5c0.1,1.3-1.9,1.3-2,0c-1.4-12.9,1-26.4-3-39c-2.9-9.3-9.4-17.3-17.6-22.5
					c-3.7-2.4-7.7-4.1-11.9-5.3v-2.1c5.4,1.5,10.6,3.8,15.1,7.2c8.3,6.1,14.6,14.8,17,24.9C396.8,223.7,394.9,236.3,396.2,248.5z"/>
				<g>
					<path class="st14" d="M401.1,250.5c0,3.2-2.6,5.7-5.7,5.7c-3.2,0-5.7-2.6-5.7-5.7s2.6-5.7,5.7-5.7
						C398.6,244.8,401.1,247.4,401.1,250.5z"/>
					<path class="st16" d="M399.5,250.5c0,2.2-1.8,4-4,4c-2.2,0-4-1.8-4-4c0-2.2,1.8-4,4-4C397.7,246.5,399.5,248.3,399.5,250.5z"/>
				</g>
			</g>
			<g>
				<polygon class="st21" points="317.1,319.8 283,329.3 247.4,263.4 258.5,264.1 283.6,265.8 294.8,266.5 				"/>
				<g>
					<path class="st11" d="M310.7,291.3l-4.6-0.8c-1.2-0.2-2.1,1.1-1.5,2.1l1.2,2l-9.2,4.6c-2.3,1.2-3.8,3.6-3.9,6.2l-0.2,14.1
						c0,0-6.9,3.8-17.9-5.4c-6.9,5-8.3,12.2-5.2,21.1c0,0,12.8,9.8,35.2-5.9l14.5-9.5c2-1.3,3.2-3.6,3.2-5.9v-7.6
						c0-1.7-0.6-3.4-1.7-4.8l-6.3-8C313.4,292.3,312.2,291.5,310.7,291.3z"/>
					<g>
						<path class="st11" d="M307.1,295c1.1-0.7,1.8,0.2,2,1c0.3,1.4-0.7,2.7-1.6,3.7c-2,2.3-4.6,3.9-7.2,5.5c-1.1,0.7-0.1,2.4,1,1.7
							c3.3-2,7-4.2,9-7.7c0.9-1.6,1.3-3.7,0.1-5.3c-1.1-1.5-3.4-1.9-4.7-0.4C304.8,294.5,306.2,296,307.1,295L307.1,295z"/>
					</g>
				</g>
				<path class="st21" d="M277.5,279.4c-6.1,2.7-13.8-1.5-17.4-9.3c-0.9-2-1.4-4-1.6-5.9l25.1,1.6
					C284.4,271.8,282.1,277.3,277.5,279.4z"/>
			</g>
			<g>
				<path class="st16" d="M326.2,391.3c0-8.9-0.1-17.8-0.1-26.7c0-1-1.3-1-1.3,0c0,8.8,0.1,17.7,0.1,26.5c-3.8,0.6-7.7,0.7-11.5,0.4
					c0.2-0.1,0.4-0.3,0.4-0.7c0.6-7.1,1-14.2,1.1-21.3c0-1-1.2-1-1.3,0c-0.1,7.1-0.5,14.2-1.1,21.3c0,0.3,0.1,0.5,0.2,0.6
					c-3.2-0.3-6.5-0.9-9.7-1.8c0.9-10.9,1.9-21.8,2.8-32.7c0-0.1,0-0.2,0-0.3c6.3-0.5,12.7-0.3,19,0.5c0.1,0.1,0.3,0.1,0.4,0
					c0.1,0,0.2-0.1,0.3-0.2c0.1-0.1,0.1-0.3,0.1-0.5c0.1-3.6,0.2-7.3,0.4-10.9c0-1-1.2-1-1.3,0c-0.1,3.3-0.2,6.7-0.3,10
					c-6.3-0.8-12.7-0.9-19-0.4c-0.5,0-0.7,0.8-0.5,1.2c-0.2,0.1-0.3,0.3-0.3,0.6c-0.9,10.9-1.9,21.8-2.8,32.7c0,0.4,0.1,0.6,0.3,0.7
					c0,0.3,0.1,0.6,0.4,0.7c7.6,2.3,15.4,2.8,23.1,1.5C326.2,392.5,326.4,391.7,326.2,391.3z"/>
				<path class="st16" d="M320.8,365.9c-4.2,0.9-8.6,0.6-12.7-0.9c-0.8-0.3-1.1,1.2-0.3,1.5c4.4,1.6,8.9,1.9,13.4,0.9
					C321.9,367.2,321.6,365.7,320.8,365.9z"/>
			</g>
			<g>
				<path class="st16" d="M371,391.3c0-8.9,0.1-17.8,0.1-26.7c0-1,1.3-1,1.3,0c0,8.8-0.1,17.7-0.1,26.5c3.8,0.6,7.7,0.7,11.5,0.4
					c-0.2-0.1-0.4-0.3-0.4-0.7c-0.6-7.1-1-14.2-1.1-21.3c0-1,1.2-1,1.3,0c0.1,7.1,0.5,14.2,1.1,21.3c0,0.3-0.1,0.5-0.2,0.6
					c3.2-0.3,6.5-0.9,9.7-1.8c-0.9-10.9-1.9-21.8-2.8-32.7c0-0.1,0-0.2,0-0.3c-6.3-0.5-12.7-0.3-19,0.5c-0.1,0.1-0.3,0.1-0.4,0
					c-0.1,0-0.2-0.1-0.3-0.2c-0.1-0.1-0.1-0.3-0.1-0.5c-0.1-3.6-0.2-7.3-0.4-10.9c0-1,1.2-1,1.3,0c0.1,3.3,0.2,6.7,0.3,10
					c6.3-0.8,12.7-0.9,19-0.4c0.5,0,0.7,0.8,0.5,1.2c0.2,0.1,0.3,0.3,0.3,0.6c0.9,10.9,1.9,21.8,2.8,32.7c0,0.4-0.1,0.6-0.3,0.7
					c0,0.3-0.1,0.6-0.4,0.7c-7.6,2.3-15.4,2.8-23.1,1.5C371,392.5,370.8,391.7,371,391.3z"/>
				<path class="st16" d="M376.4,365.9c4.2,0.9,8.6,0.6,12.7-0.9c0.8-0.3,1.1,1.2,0.3,1.5c-4.4,1.6-8.9,1.9-13.4,0.9
					C375.3,367.2,375.6,365.7,376.4,365.9z"/>
			</g>
			<g>
				<g>
					<g>
						<path class="st7" d="M335.1,175c0,0,0,0.1,0.1,0.1C335.2,175.1,335.2,175.1,335.1,175c0,0.1,0,0.1,0,0.1c0,0,0,0,0,0.1
							c0,0,0,0,0.1,0c0.1,0,0.1,0,0.1,0c0,0,0.1-0.1,0.1-0.1c0,0,0,0,0,0c0,0,0,0,0,0c0,0,0,0,0,0c0,0,0,0,0-0.1c0,0,0,0,0,0
							c0,0,0,0,0,0c0,0,0,0,0,0c0,0,0,0-0.1,0c0,0-0.1,0-0.1,0c0,0,0,0,0,0c0,0,0,0,0,0c0,0,0,0,0,0c0,0,0,0,0,0c0,0,0,0-0.1,0
							c0,0,0,0-0.1,0c0,0,0,0-0.1,0c0,0,0,0,0,0C335.1,174.9,335.1,175,335.1,175C335.2,175,335.2,175,335.1,175
							C335.2,175.1,335.2,175.1,335.1,175c0.1,0.1,0.1,0.1,0.1,0.1c0,0,0,0,0.1,0c0,0,0,0,0.1,0c0-0.1-0.1-0.2-0.1-0.3
							C335.3,174.9,335.3,174.9,335.1,175c0.2,0,0.3,0,0.3,0c0,0,0-0.1-0.1-0.1c0,0,0,0,0,0c0,0,0,0,0,0c0,0,0,0,0-0.1c0,0,0,0,0,0
							c0,0,0,0-0.1,0c0,0,0,0-0.1,0c0,0-0.1,0-0.1,0.1C335.2,174.9,335.2,174.9,335.1,175C335.1,175,335.1,175,335.1,175z"/>
					</g>
				</g>
				<g>
					<g>
						<path class="st7" d="M336.1,172.8c-4.6,0.8-9,6.4-10.6,9.9l0.7,22.6c7.4,1.9,17.1-5,22.8-11.9
							C343,188.9,338.9,179.8,336.1,172.8z"/>
					</g>
					<g>
						<path class="st7" d="M361.9,172.8c4.6,0.8,9,6.4,10.6,9.9l-0.7,22.6c-7.4,1.9-17.1-5-22.7-11.9
							C355,188.9,359.1,179.8,361.9,172.8z"/>
					</g>
				</g>
			</g>
			<g>
				<g>
					<path class="st14" d="M382.7,132.3c0-8.9-1.6-17.7-4.8-26c-1.1-2.9-3-6.1-5.9-6.7c-0.3-0.6-0.7-1.2-1.2-1.7
						c-1.4-1.4-3.4-2.2-5.2-2.9c-7.3-2.8-14.9-5.7-22.7-5c-5.5,0.5-10.6,2.8-15.2,5.9c-4.6,3-8.6,6.8-12.6,10.6
						c2.7-0.5,5.4-1,8.1-1.5c-5.4,8.3-10.8,16.7-16.2,25c2.8-2,5.7-4,8.5-6c-2.8,2.1-3.1,6.4-1.9,9.7c1.2,3.3,3.5,6.2,5.1,9.3
						c1.6,3.2,2.5,7.1,0.8,10.2c2.5-1.8,4.4-4.6,5.1-7.7c-0.9,3.4,0.9,7.3,4,8.7c-1.5-8.9-0.3-18.3,3.5-26.6
						c7-4.7,13.4-10.1,19.3-16.1c-1.9,5.6-3,11.5-3.1,17.4c4.2-4.1,7.8-8.8,10.7-13.9c-0.7,5.3,2.2,10.3,4.9,14.9
						c2.7,4.6,5.5,9.7,4.7,15c2.6-2.9,4.4-6.4,5.2-10.2c-0.7,2.4,0.6,5.3,2.8,6.4c-0.6-3.6,0.4-7.4,2.7-10.3
						C380.3,131.4,381.5,131.9,382.7,132.3z"/>
				</g>
				<g class="st23">
					<path class="st14" d="M352.4,102.8c-6.9,3.8-12.9,9-17.7,15.2c-0.6,0.8,0.8,1.6,1.4,0.8c4.6-6,10.5-11,17.1-14.7
						C354.1,103.7,353.3,102.3,352.4,102.8z"/>
					<path class="st14" d="M334.4,106.1c-9.6,7.6-14.9,20.1-13.8,32.2c0.1,1,1.7,1,1.6,0c-1.1-11.8,4.1-23.7,13.4-31.1
						C336.3,106.6,335.2,105.5,334.4,106.1z"/>
					<path class="st14" d="M320.9,116.2c-3.7,4.3-5.3,10-4.4,15.6c0.2,1,1.7,0.6,1.5-0.4c-0.8-5,0.7-10.2,4-14
						C322.7,116.5,321.6,115.4,320.9,116.2z"/>
					<path class="st14" d="M330.7,121.5c-0.3-0.2-0.9-0.1-1.1,0.3c-1.1,2.5-2,5.1-2.7,7.7c-0.3,1,1.3,1.4,1.5,0.4
						c0.7-2.5,1.5-4.9,2.6-7.3C331.2,122.2,331.1,121.7,330.7,121.5z"/>
					<path class="st14" d="M356.2,97.2c-9.7-3.7-21.1-1.4-28.7,5.6c-0.8,0.7,0.4,1.8,1.1,1.1c7.2-6.6,18-8.7,27.2-5.2
						C356.8,99.1,357.2,97.6,356.2,97.2z"/>
					<path class="st14" d="M369.3,130.7c-4.8-7.9-6.1-17.7-3.5-26.6c0.3-1-1.2-1.4-1.5-0.4c-2.8,9.3-1.4,19.6,3.6,27.9
						C368.5,132.4,369.8,131.6,369.3,130.7z"/>
					<path class="st14" d="M371,111c0-1-1.6-1-1.6,0c0.1,4.1,0.1,8.2-0.2,12.2c-0.1,1,1.5,1,1.6,0C371,119.2,371.1,115.1,371,111z"
						/>
					<path class="st14" d="M373.2,104.2c-0.5-0.9-1.9-0.1-1.4,0.8c4,6.6,5.3,14.6,3.5,22.1c-0.2,1,1.3,1.4,1.5,0.4
						C378.8,119.6,377.4,111.2,373.2,104.2z"/>
					<path class="st14" d="M359.5,105.7c-0.4-0.2-0.8-0.1-1.1,0.3c-2.1,2.9-4.1,5.9-5.8,9.1c-0.5,0.9,0.9,1.7,1.4,0.8
						c1.7-3.1,3.7-6.2,5.8-9.1C360.1,106.4,359.9,105.9,359.5,105.7z"/>
				</g>
			</g>
		</g>
	</g>
</g>
</svg>
