<?xml version="1.0" encoding="utf-8"?>
<!-- Generator: Adobe Illustrator 25.4.1, SVG Export Plug-In . SVG Version: 6.00 Build 0)  -->
<svg version="1.1" id="Layer_1" xmlns="http://www.w3.org/2000/svg" xmlns:xlink="http://www.w3.org/1999/xlink" x="0px" y="0px"
	 viewBox="0 0 386.6 390.9" style="enable-background:new 0 0 386.6 390.9;" xml:space="preserve">
<style type="text/css">
	.st0{fill:#0D6EFD;}
	.st1{fill:#FC3103;}
</style>
<g id="upload">
	<path class="st0" d="M204.3,106.1h57.1v11.4h-57.1V106.1z"/>
	<path class="st0" d="M204.3,128.9h57.1v11.4h-57.1V128.9z"/>
	<path class="st0" d="M204.3,151.7h57.1v11.4h-57.1V151.7z"/>
	<path class="st0" d="M204.3,174.5h57.1v11.4h-57.1V174.5z"/>
	<path class="st0" d="M140.8,116.4c4.2,1.4,8.7,1.4,12.9,0c2.1,7.3,8.8,12.4,16.4,12.5h5.7c3.2,0,5.7,2.6,5.7,5.7v17.1h11.4v-17.1
		c0-9.5-7.7-17.1-17.1-17.1H170c-3.2,0-5.7-2.6-5.7-5.7v-2.2c3.7-4.1,5.7-9.4,5.7-14.9V83.2c0-12.6-10.2-22.8-22.8-22.8
		c-12.6,0-22.8,10.2-22.8,22.8v11.4c0,5.5,2,10.8,5.7,14.9v2.2c0,3.2-2.6,5.7-5.7,5.7h-5.7c-9.5,0-17.1,7.7-17.1,17.1v17.1H113
		v-17.1c0-3.2,2.6-5.7,5.7-5.7h5.7C132,128.8,138.7,123.8,140.8,116.4z M135.8,83.2c0-6.3,5.1-11.4,11.4-11.4
		c6.3,0,11.4,5.1,11.4,11.4v11.4c0,6.3-5.1,11.4-11.4,11.4c-6.3,0-11.4-5.1-11.4-11.4V83.2z"/>
	<path class="st0" d="M210,94.6h45.6c3.2,0,5.7-2.6,5.7-5.7V66.1c0-3.2-2.6-5.7-5.7-5.7H210c-3.2,0-5.7,2.6-5.7,5.7v22.8
		C204.3,92.1,206.8,94.6,210,94.6z M215.7,71.8h34.2v11.4h-34.2V71.8z"/>
	<path class="st0" d="M375.5,185.9c0-18.9-15.3-34.2-34.2-34.2H307V66.1c0-3.2-2.6-5.7-5.7-5.7h-17.1V43.3c0-3.2-2.6-5.7-5.7-5.7
		h-194c-3.2,0-5.7,2.6-5.7,5.7v125.5H61.6c-15.7,0-28.5,12.8-28.5,28.5v154.1c0,15.7,12.8,28.5,28.5,28.5h239.6
		c15.2-0.1,27.8-12.1,28.4-27.3l45.6-165.2C375.4,187,375.5,186.4,375.5,185.9z M295.6,71.8v125.5h-11.4V71.8H295.6z M90.2,49h182.6
		v148.4H161l-26.9-26.9c-1.1-1.1-2.5-1.7-4-1.7H90.2V49z M318.4,351.4c0,9.5-7.7,17.1-17.1,17.1H61.6c-9.5,0-17.1-7.7-17.1-17.1
		V197.3c0-9.5,7.7-17.1,17.1-17.1h66.1l26.9,26.9c1.1,1.1,2.5,1.7,4,1.7h142.6c9.5,0,17.1,7.7,17.1,17.1V351.4z M329.8,309.3v-83.4
		c0-13.6-9.5-25.2-22.8-28v-34.8h34.2c12.3,0,22.4,9.8,22.8,22.1L329.8,309.3z"/>
	<path class="st0" d="M238.5,260.1H210v-28.5c0-3.2-2.6-5.7-5.7-5.7h-45.6c-3.2,0-5.7,2.6-5.7,5.7v28.5h-28.5
		c-3.2,0-5.7,2.6-5.7,5.7v45.6c0,3.2,2.6,5.7,5.7,5.7h28.5v28.5c0,3.2,2.6,5.7,5.7,5.7h45.6c3.2,0,5.7-2.6,5.7-5.7v-28.5h28.5
		c3.2,0,5.7-2.6,5.7-5.7v-45.6C244.2,262.7,241.7,260.1,238.5,260.1z M232.8,305.8h-28.5c-3.2,0-5.7,2.6-5.7,5.7V340h-34.2v-28.5
		c0-3.2-2.6-5.7-5.7-5.7h-28.5v-34.2h28.5c3.2,0,5.7-2.6,5.7-5.7v-28.5h34.2v28.5c0,3.2,2.6,5.7,5.7,5.7h28.5V305.8z"/>
</g>
<g id="four_pointed_star_bright_sparks">
	<g>
		<path class="st1" d="M74.8,64.2C49.1,66.8,47,69,44.4,94.6C41.8,69,39.6,66.8,14,64.2c25.7-2.6,27.8-4.7,30.4-30.4
			C47,59.5,49.1,61.6,74.8,64.2z"/>
		<path class="st1" d="M78.4,27.4c-17.6,1.8-19,3.3-20.8,20.8c-1.8-17.6-3.3-19-20.8-20.8c17.6-1.8,19-3.3,20.8-20.8
			C59.4,24.1,60.8,25.6,78.4,27.4z"/>
		<path class="st1" d="M39.5,37.6C25.2,39.1,24,40.2,22.5,54.5c-1.5-14.3-2.6-15.5-16.9-16.9c14.3-1.5,15.5-2.6,16.9-16.9
			C24,35,25.2,36.1,39.5,37.6L39.5,37.6z"/>
	</g>
</g>
</svg>
