<?xml version="1.0" encoding="utf-8"?>
<!-- Generator: Adobe Illustrator 25.4.1, SVG Export Plug-In . SVG Version: 6.00 Build 0)  -->
<svg version="1.1" id="Layer_1" xmlns="http://www.w3.org/2000/svg" xmlns:xlink="http://www.w3.org/1999/xlink" x="0px" y="0px"
	 viewBox="0 0 512 512" style="enable-background:new 0 0 512 512;" xml:space="preserve">
<style type="text/css">
	.st0{fill:#228A87;}
	.st1{fill:#FC3103;}
</style>
<path class="st0" d="M287.6,464.5H145.8V61.2h45.4v32c0,4.3,3.5,7.7,7.7,7.7h197.7c4.3,0,7.7-3.4,7.7-7.7v-32h45.4v199.7
	c0,4.3,3.4,7.7,7.7,7.7s7.7-3.5,7.7-7.7V53.5c0-4.3-3.4-7.7-7.7-7.7h-53.1v-8.7c0-4.3-3.5-7.7-7.7-7.7h-58C332.8,12,316.6,0,297.7,0
	c-18.8,0-35.1,12-40.9,29.4h-58c-4.3,0-7.7,3.4-7.7,7.7v8.7H138c-4.3,0-7.7,3.4-7.7,7.7v418.7c0,4.3,3.4,7.7,7.7,7.7h149.5
	c4.3,0,7.7-3.5,7.7-7.7S291.9,464.5,287.6,464.5z M206.6,44.8h56.3c3.8,0,7-2.7,7.6-6.4c2.3-13.3,13.8-23,27.3-23s25,9.7,27.3,23
	c0.6,3.7,3.8,6.4,7.6,6.4H389v40.7H206.6V44.8z"/>
<path class="st0" d="M98.3,161.4h-1.7v-21.9c0-4.3-3.4-7.7-7.7-7.7H34.2c-4.3,0-7.7,3.5-7.7,7.7v21.9h-3.6
	c-8.8,0-15.9,7.1-15.9,15.9v10.6c0,9.1,7.4,16.5,16.5,16.5c0.6,0,1.1,0.5,1.1,1.1v215c0,19.9,16.2,36.1,36.1,36.1
	s36.1-16.2,36.1-36.1v-215c0-0.6,0.5-1.1,1.1-1.1c9.1,0,16.5-7.4,16.5-16.5v-10.6C114.3,168.5,107.1,161.4,98.3,161.4z M41.9,147.2
	h39.3v14.2H41.9V147.2z M81.3,380H66.7V268.6h14.6C81.3,268.6,81.3,380,81.3,380z M98.8,187.9c0,0.6-0.5,1.1-1.1,1.1
	c-9.1,0-16.5,7.4-16.5,16.5v13.9H59c-4.3,0-7.7,3.4-7.7,7.7s3.5,7.7,7.7,7.7h22.4v18.5H59c-4.3,0-7.7,3.4-7.7,7.7v126.9
	c0,4.3,3.5,7.7,7.7,7.7h22.4v25c0,11.4-9.3,20.7-20.7,20.7S40,432,40,420.6v-215c0-9.1-7.4-16.5-16.5-16.5c-0.6,0-1.1-0.5-1.1-1.1
	v-10.6c0-0.3,0.2-0.5,0.5-0.5h75.4c0.3,0,0.5,0.2,0.5,0.5V187.9z"/>
<path class="st0" d="M404,137.9H256.9c-4.3,0-7.7,3.5-7.7,7.7s3.4,7.7,7.7,7.7H404c4.3,0,7.7-3.4,7.7-7.7S408.3,137.9,404,137.9z"/>
<path class="st0" d="M202.2,137.9c-12,0-21.7,9.8-21.7,21.7c0,12,9.8,21.7,21.7,21.7c12,0,21.7-9.8,21.7-21.7
	C223.9,147.6,214.2,137.9,202.2,137.9z M202.2,165.9c-3.5,0-6.3-2.8-6.3-6.3s2.8-6.3,6.3-6.3s6.3,2.8,6.3,6.3
	C208.5,163.1,205.7,165.9,202.2,165.9z"/>
<path class="st0" d="M256.9,181.3h73.6c4.3,0,7.7-3.4,7.7-7.7s-3.5-7.7-7.7-7.7h-73.6c-4.3,0-7.7,3.5-7.7,7.7
	S252.6,181.3,256.9,181.3z"/>
<path class="st0" d="M411.7,226.1c0-4.3-3.5-7.7-7.7-7.7H256.9c-4.3,0-7.7,3.5-7.7,7.7c0,4.3,3.4,7.7,7.7,7.7H404
	C408.3,233.8,411.7,230.3,411.7,226.1z"/>
<path class="st0" d="M202.2,218.3c-12,0-21.7,9.8-21.7,21.7c0,12,9.8,21.7,21.7,21.7c12,0,21.7-9.8,21.7-21.7
	C223.9,228.1,214.2,218.3,202.2,218.3z M202.2,246.4c-3.5,0-6.3-2.8-6.3-6.3s2.8-6.3,6.3-6.3s6.3,2.8,6.3,6.3
	C208.5,243.6,205.7,246.4,202.2,246.4z"/>
<path class="st0" d="M256.9,246.4c-4.3,0-7.7,3.4-7.7,7.7s3.4,7.7,7.7,7.7h73.6c4.3,0,7.7-3.5,7.7-7.7s-3.5-7.7-7.7-7.7H256.9z"/>
<path class="st0" d="M202.2,298.8c-12,0-21.7,9.8-21.7,21.7c0,12,9.8,21.7,21.7,21.7c12,0,21.7-9.8,21.7-21.7
	C223.9,308.6,214.2,298.8,202.2,298.8z M202.2,326.8c-3.5,0-6.3-2.8-6.3-6.3s2.8-6.3,6.3-6.3s6.3,2.8,6.3,6.3
	S205.7,326.8,202.2,326.8z"/>
<path class="st0" d="M202.2,379.3c-12,0-21.7,9.7-21.7,21.7s9.8,21.7,21.7,21.7c12,0,21.7-9.7,21.7-21.7S214.2,379.3,202.2,379.3z
	 M202.2,407.3c-3.5,0-6.3-2.8-6.3-6.3s2.8-6.3,6.3-6.3s6.3,2.8,6.3,6.3S205.7,407.3,202.2,407.3z"/>
<path class="st1" d="M484.3,307.9c-27.6-27.6-72.5-27.6-100.1,0l-7,7l-7-7c-27.6-27.6-72.5-27.6-100.1,0s-27.6,72.5,0,100.1
	l101.7,101.7c1.5,1.5,3.5,2.3,5.4,2.3s3.9-0.8,5.5-2.3L484.3,408C511.9,380.4,511.9,335.5,484.3,307.9z M473.4,397.1l-96.3,96.3
	l-96.3-96.3c-21.6-21.6-21.6-56.7,0-78.3c10.8-10.8,25-16.2,39.2-16.2s28.4,5.4,39.2,16.2l12.5,12.5c1.4,1.4,3.4,2.3,5.4,2.3
	s4-0.8,5.5-2.3l12.5-12.5c21.6-21.6,56.7-21.6,78.3,0C495,340.4,495,375.5,473.4,397.1z"/>
<path class="st1" d="M439.7,388.7h-29.2c-3.1,0-5.9,1.8-7.1,4.7l-6.2,14.4l-11.1-56c-0.7-3.5-3.7-6.1-7.3-6.2
	c-3.6-0.1-6.8,2.3-7.7,5.8l-10.8,41.4l-7.3-18.3c-1-2.5-3.3-4.3-6-4.8c-2.7-0.4-5.4,0.6-7.1,2.7l-13.5,16.4h-16.3
	c-4.3,0-7.7,3.5-7.7,7.7c0,4.3,3.5,7.7,7.7,7.7H330c2.3,0,4.5-1,5.9-2.8l7.5-9.1l11.1,28c1.2,3.1,4.3,5.1,7.6,4.9
	c3.3-0.2,6.1-2.5,7-5.7l8.3-31.6l9.4,47.5c0.7,3.3,3.4,5.8,6.8,6.2c0.3,0,0.5,0,0.8,0c3.1,0,5.9-1.8,7.1-4.7l14-32.6h24.2
	c4.3,0,7.7-3.4,7.7-7.7S444,388.7,439.7,388.7z"/>
</svg>
